G04 #@! TF.GenerationSoftware,KiCad,Pcbnew,5.0.0-rc2-dev-unknown-54f14b0~63~ubuntu16.04.1*
G04 #@! TF.CreationDate,2018-04-02T00:46:52+01:00*
G04 #@! TF.ProjectId,g5500-ethernet-controller,67353530302D65746865726E65742D63,rev?*
G04 #@! TF.SameCoordinates,Original*
G04 #@! TF.FileFunction,Legend,Top*
G04 #@! TF.FilePolarity,Positive*
%FSLAX46Y46*%
G04 Gerber Fmt 4.6, Leading zero omitted, Abs format (unit mm)*
G04 Created by KiCad (PCBNEW 5.0.0-rc2-dev-unknown-54f14b0~63~ubuntu16.04.1) date Mon Apr  2 00:46:52 2018*
%MOMM*%
%LPD*%
G01*
G04 APERTURE LIST*
%ADD10C,0.200000*%
%ADD11C,0.500000*%
%ADD12C,0.300000*%
%ADD13C,0.120000*%
%ADD14C,0.150000*%
G04 APERTURE END LIST*
D10*
X74250000Y-35000000D02*
X74500000Y-35250000D01*
X74250000Y-35000000D02*
X74500000Y-34750000D01*
X82000000Y-35750000D02*
X79500000Y-35750000D01*
X82000000Y-34250000D02*
X82000000Y-35750000D01*
X79500000Y-34250000D02*
X82000000Y-34250000D01*
X79500000Y-37250000D02*
X78000000Y-37250000D01*
X79500000Y-34250000D02*
X79500000Y-37250000D01*
X78000000Y-34250000D02*
X79500000Y-34250000D01*
X76500000Y-34250000D02*
X78000000Y-34250000D01*
X76500000Y-37250000D02*
X76500000Y-34250000D01*
X78000000Y-37250000D02*
X76500000Y-37250000D01*
X78000000Y-34250000D02*
X78000000Y-37250000D01*
X76250000Y-35250000D02*
X74250000Y-35000000D01*
X65500000Y-137500000D02*
X71000000Y-137500000D01*
X114250000Y-137500000D02*
X119750000Y-137500000D01*
D11*
X118154761Y-117261904D02*
X116154761Y-117261904D01*
X116154761Y-116785714D01*
X116250000Y-116500000D01*
X116440476Y-116309523D01*
X116630952Y-116214285D01*
X117011904Y-116119047D01*
X117297619Y-116119047D01*
X117678571Y-116214285D01*
X117869047Y-116309523D01*
X118059523Y-116500000D01*
X118154761Y-116785714D01*
X118154761Y-117261904D01*
X116154761Y-114880952D02*
X116154761Y-114500000D01*
X116250000Y-114309523D01*
X116440476Y-114119047D01*
X116821428Y-114023809D01*
X117488095Y-114023809D01*
X117869047Y-114119047D01*
X118059523Y-114309523D01*
X118154761Y-114500000D01*
X118154761Y-114880952D01*
X118059523Y-115071428D01*
X117869047Y-115261904D01*
X117488095Y-115357142D01*
X116821428Y-115357142D01*
X116440476Y-115261904D01*
X116250000Y-115071428D01*
X116154761Y-114880952D01*
X116154761Y-113357142D02*
X118154761Y-112880952D01*
X116726190Y-112500000D01*
X118154761Y-112119047D01*
X116154761Y-111642857D01*
X118154761Y-110880952D02*
X116154761Y-110880952D01*
X118154761Y-109738095D01*
X116154761Y-109738095D01*
D10*
X114250000Y-108250000D02*
X119750000Y-108250000D01*
X114000000Y-79750000D02*
X119500000Y-79750000D01*
D11*
X115904761Y-85571428D02*
X117523809Y-85571428D01*
X117714285Y-85476190D01*
X117809523Y-85380952D01*
X117904761Y-85190476D01*
X117904761Y-84809523D01*
X117809523Y-84619047D01*
X117714285Y-84523809D01*
X117523809Y-84428571D01*
X115904761Y-84428571D01*
X117904761Y-83476190D02*
X115904761Y-83476190D01*
X115904761Y-82714285D01*
X116000000Y-82523809D01*
X116095238Y-82428571D01*
X116285714Y-82333333D01*
X116571428Y-82333333D01*
X116761904Y-82428571D01*
X116857142Y-82523809D01*
X116952380Y-82714285D01*
X116952380Y-83476190D01*
D10*
X65500000Y-108250000D02*
X71000000Y-108250000D01*
D11*
X67785714Y-110976190D02*
X67690476Y-110880952D01*
X67595238Y-110595238D01*
X67595238Y-110404761D01*
X67690476Y-110119047D01*
X67880952Y-109928571D01*
X68071428Y-109833333D01*
X68452380Y-109738095D01*
X68738095Y-109738095D01*
X69119047Y-109833333D01*
X69309523Y-109928571D01*
X69500000Y-110119047D01*
X69595238Y-110404761D01*
X69595238Y-110595238D01*
X69500000Y-110880952D01*
X69404761Y-110976190D01*
X67785714Y-112976190D02*
X67690476Y-112880952D01*
X67595238Y-112595238D01*
X67595238Y-112404761D01*
X67690476Y-112119047D01*
X67880952Y-111928571D01*
X68071428Y-111833333D01*
X68452380Y-111738095D01*
X68738095Y-111738095D01*
X69119047Y-111833333D01*
X69309523Y-111928571D01*
X69500000Y-112119047D01*
X69595238Y-112404761D01*
X69595238Y-112595238D01*
X69500000Y-112880952D01*
X69404761Y-112976190D01*
X69595238Y-113642857D02*
X67595238Y-114119047D01*
X69023809Y-114500000D01*
X67595238Y-114880952D01*
X69595238Y-115357142D01*
X67535714Y-83476190D02*
X67440476Y-83380952D01*
X67345238Y-83095238D01*
X67345238Y-82904761D01*
X67440476Y-82619047D01*
X67630952Y-82428571D01*
X67821428Y-82333333D01*
X68202380Y-82238095D01*
X68488095Y-82238095D01*
X68869047Y-82333333D01*
X69059523Y-82428571D01*
X69250000Y-82619047D01*
X69345238Y-82904761D01*
X69345238Y-83095238D01*
X69250000Y-83380952D01*
X69154761Y-83476190D01*
X69345238Y-84142857D02*
X67345238Y-84619047D01*
X68773809Y-85000000D01*
X67345238Y-85380952D01*
X69345238Y-85857142D01*
D10*
X65250000Y-79750000D02*
X70750000Y-79750000D01*
D12*
X100821428Y-139178571D02*
X100821428Y-140392857D01*
X100892857Y-140535714D01*
X100964285Y-140607142D01*
X101107142Y-140678571D01*
X101392857Y-140678571D01*
X101535714Y-140607142D01*
X101607142Y-140535714D01*
X101678571Y-140392857D01*
X101678571Y-139178571D01*
X98357142Y-140678571D02*
X98357142Y-139178571D01*
X98714285Y-139178571D01*
X98928571Y-139250000D01*
X99071428Y-139392857D01*
X99142857Y-139535714D01*
X99214285Y-139821428D01*
X99214285Y-140035714D01*
X99142857Y-140321428D01*
X99071428Y-140464285D01*
X98928571Y-140607142D01*
X98714285Y-140678571D01*
X98357142Y-140678571D01*
X104214285Y-140535714D02*
X104142857Y-140607142D01*
X103928571Y-140678571D01*
X103785714Y-140678571D01*
X103571428Y-140607142D01*
X103428571Y-140464285D01*
X103357142Y-140321428D01*
X103285714Y-140035714D01*
X103285714Y-139821428D01*
X103357142Y-139535714D01*
X103428571Y-139392857D01*
X103571428Y-139250000D01*
X103785714Y-139178571D01*
X103928571Y-139178571D01*
X104142857Y-139250000D01*
X104214285Y-139321428D01*
X82214285Y-140678571D02*
X81500000Y-140678571D01*
X81500000Y-139178571D01*
X84714285Y-140678571D02*
X84214285Y-139964285D01*
X83857142Y-140678571D02*
X83857142Y-139178571D01*
X84428571Y-139178571D01*
X84571428Y-139250000D01*
X84642857Y-139321428D01*
X84714285Y-139464285D01*
X84714285Y-139678571D01*
X84642857Y-139821428D01*
X84571428Y-139892857D01*
X84428571Y-139964285D01*
X83857142Y-139964285D01*
X87214285Y-140535714D02*
X87142857Y-140607142D01*
X86928571Y-140678571D01*
X86785714Y-140678571D01*
X86571428Y-140607142D01*
X86428571Y-140464285D01*
X86357142Y-140321428D01*
X86285714Y-140035714D01*
X86285714Y-139821428D01*
X86357142Y-139535714D01*
X86428571Y-139392857D01*
X86571428Y-139250000D01*
X86785714Y-139178571D01*
X86928571Y-139178571D01*
X87142857Y-139250000D01*
X87214285Y-139321428D01*
D10*
X95000000Y-36750000D02*
X94750000Y-37000000D01*
X94500000Y-36750000D02*
X94750000Y-37000000D01*
X94750000Y-36250000D02*
X94750000Y-37000000D01*
X89000000Y-56250000D02*
X89250000Y-56500000D01*
X89000000Y-56250000D02*
X90000000Y-56250000D01*
X89000000Y-57000000D02*
X89000000Y-55500000D01*
X88000000Y-57000000D02*
X89000000Y-57000000D01*
X89000000Y-56250000D02*
X89250000Y-56000000D01*
X88500000Y-53750000D02*
X88500000Y-55500000D01*
X88000000Y-55500000D02*
X88000000Y-57000000D01*
X90000000Y-53750000D02*
X88500000Y-53750000D01*
X88500000Y-57000000D02*
X88500000Y-58750000D01*
X89250000Y-56000000D02*
X89000000Y-56250000D01*
X90000000Y-56250000D02*
X89000000Y-56250000D01*
X89000000Y-55500000D02*
X88500000Y-55500000D01*
X88500000Y-58750000D02*
X90000000Y-58750000D01*
X88500000Y-55500000D02*
X88000000Y-55500000D01*
X88500000Y-73250000D02*
X90000000Y-73250000D01*
X88500000Y-71500000D02*
X88500000Y-73250000D01*
X89000000Y-70750000D02*
X89250000Y-71000000D01*
X89250000Y-70500000D02*
X89000000Y-70750000D01*
X89000000Y-70750000D02*
X89250000Y-70500000D01*
X90000000Y-70750000D02*
X89000000Y-70750000D01*
X89000000Y-70750000D02*
X90000000Y-70750000D01*
X89000000Y-70000000D02*
X88500000Y-70000000D01*
X89000000Y-71500000D02*
X89000000Y-70000000D01*
X88000000Y-71500000D02*
X89000000Y-71500000D01*
X88000000Y-70000000D02*
X88000000Y-71500000D01*
X88500000Y-70000000D02*
X88000000Y-70000000D01*
X88500000Y-68250000D02*
X88500000Y-70000000D01*
X90000000Y-68250000D02*
X88500000Y-68250000D01*
X96000000Y-36500000D02*
X97250000Y-36500000D01*
X93500000Y-36500000D02*
X92250000Y-36500000D01*
X95250000Y-35250000D02*
X95250000Y-36000000D01*
X94250000Y-35250000D02*
X95250000Y-35250000D01*
X94250000Y-36000000D02*
X94250000Y-35250000D01*
X93500000Y-36000000D02*
X96000000Y-36000000D01*
D12*
X101214285Y-38428571D02*
X100714285Y-37714285D01*
X100357142Y-38428571D02*
X100357142Y-36928571D01*
X100928571Y-36928571D01*
X101071428Y-37000000D01*
X101142857Y-37071428D01*
X101214285Y-37214285D01*
X101214285Y-37428571D01*
X101142857Y-37571428D01*
X101071428Y-37642857D01*
X100928571Y-37714285D01*
X100357142Y-37714285D01*
X103964285Y-38428571D02*
X103250000Y-38428571D01*
X103250000Y-36928571D01*
X116821428Y-36928571D02*
X116821428Y-38142857D01*
X116892857Y-38285714D01*
X116964285Y-38357142D01*
X117107142Y-38428571D01*
X117392857Y-38428571D01*
X117535714Y-38357142D01*
X117607142Y-38285714D01*
X117678571Y-38142857D01*
X117678571Y-36928571D01*
X119357142Y-38428571D02*
X119357142Y-36928571D01*
X119714285Y-36928571D01*
X119928571Y-37000000D01*
X120071428Y-37142857D01*
X120142857Y-37285714D01*
X120214285Y-37571428D01*
X120214285Y-37785714D01*
X120142857Y-38071428D01*
X120071428Y-38214285D01*
X119928571Y-38357142D01*
X119714285Y-38428571D01*
X119357142Y-38428571D01*
X121678571Y-37857142D02*
X122821428Y-37857142D01*
X105428571Y-37857142D02*
X106571428Y-37857142D01*
X114142857Y-140250000D02*
X114857142Y-140250000D01*
X114000000Y-140678571D02*
X114500000Y-139178571D01*
X115000000Y-140678571D01*
X67392857Y-140250000D02*
X68107142Y-140250000D01*
X67250000Y-140678571D02*
X67750000Y-139178571D01*
X68250000Y-140678571D01*
X69678571Y-140107142D02*
X70821428Y-140107142D01*
X116428571Y-140107142D02*
X117571428Y-140107142D01*
D10*
X119750000Y-152000000D02*
X119750000Y-151000000D01*
X65250000Y-152000000D02*
X65250000Y-151000000D01*
X89500000Y-152000000D02*
X89500000Y-150500000D01*
X96000000Y-152000000D02*
X96000000Y-150500000D01*
X117250000Y-152000000D02*
X119750000Y-152000000D01*
X96000000Y-152000000D02*
X101250000Y-152000000D01*
X83000000Y-152000000D02*
X89500000Y-152000000D01*
X65250000Y-152000000D02*
X69750000Y-152000000D01*
D12*
X102059523Y-152642857D02*
X102726190Y-152642857D01*
X103011904Y-153428571D02*
X102059523Y-153428571D01*
X102059523Y-151928571D01*
X103011904Y-151928571D01*
X104821428Y-153428571D02*
X103869047Y-153428571D01*
X103869047Y-151928571D01*
X105488095Y-152642857D02*
X106154761Y-152642857D01*
X106440476Y-153428571D02*
X105488095Y-153428571D01*
X105488095Y-151928571D01*
X106440476Y-151928571D01*
X107011904Y-151928571D02*
X107678571Y-153428571D01*
X108345238Y-151928571D01*
X108916666Y-153000000D02*
X109869047Y-153000000D01*
X108726190Y-153428571D02*
X109392857Y-151928571D01*
X110059523Y-153428571D01*
X110440476Y-151928571D02*
X111583333Y-151928571D01*
X111011904Y-153428571D02*
X111011904Y-151928571D01*
X112250000Y-153428571D02*
X112250000Y-151928571D01*
X113583333Y-151928571D02*
X113964285Y-151928571D01*
X114154761Y-152000000D01*
X114345238Y-152142857D01*
X114440476Y-152428571D01*
X114440476Y-152928571D01*
X114345238Y-153214285D01*
X114154761Y-153357142D01*
X113964285Y-153428571D01*
X113583333Y-153428571D01*
X113392857Y-153357142D01*
X113202380Y-153214285D01*
X113107142Y-152928571D01*
X113107142Y-152428571D01*
X113202380Y-152142857D01*
X113392857Y-152000000D01*
X113583333Y-151928571D01*
X115297619Y-153428571D02*
X115297619Y-151928571D01*
X116440476Y-153428571D01*
X116440476Y-151928571D01*
X70595238Y-153000000D02*
X71547619Y-153000000D01*
X70404761Y-153428571D02*
X71071428Y-151928571D01*
X71738095Y-153428571D01*
X72214285Y-151928571D02*
X73547619Y-151928571D01*
X72214285Y-153428571D01*
X73547619Y-153428571D01*
X74309523Y-153428571D02*
X74309523Y-151928571D01*
X75261904Y-153428571D02*
X75261904Y-151928571D01*
X75928571Y-153000000D01*
X76595238Y-151928571D01*
X76595238Y-153428571D01*
X77547619Y-151928571D02*
X77547619Y-153142857D01*
X77642857Y-153285714D01*
X77738095Y-153357142D01*
X77928571Y-153428571D01*
X78309523Y-153428571D01*
X78500000Y-153357142D01*
X78595238Y-153285714D01*
X78690476Y-153142857D01*
X78690476Y-151928571D01*
X79357142Y-151928571D02*
X80500000Y-151928571D01*
X79928571Y-153428571D02*
X79928571Y-151928571D01*
X81166666Y-153428571D02*
X81166666Y-151928571D01*
X81166666Y-152642857D02*
X82309523Y-152642857D01*
X82309523Y-153428571D02*
X82309523Y-151928571D01*
X70142857Y-156725000D02*
X69980952Y-156644047D01*
X69738095Y-156644047D01*
X69495238Y-156725000D01*
X69333333Y-156886904D01*
X69252380Y-157048809D01*
X69171428Y-157372619D01*
X69171428Y-157615476D01*
X69252380Y-157939285D01*
X69333333Y-158101190D01*
X69495238Y-158263095D01*
X69738095Y-158344047D01*
X69900000Y-158344047D01*
X70142857Y-158263095D01*
X70223809Y-158182142D01*
X70223809Y-157615476D01*
X69900000Y-157615476D01*
X70952380Y-157696428D02*
X72247619Y-157696428D01*
X73866666Y-156644047D02*
X73057142Y-156644047D01*
X72976190Y-157453571D01*
X73057142Y-157372619D01*
X73219047Y-157291666D01*
X73623809Y-157291666D01*
X73785714Y-157372619D01*
X73866666Y-157453571D01*
X73947619Y-157615476D01*
X73947619Y-158020238D01*
X73866666Y-158182142D01*
X73785714Y-158263095D01*
X73623809Y-158344047D01*
X73219047Y-158344047D01*
X73057142Y-158263095D01*
X72976190Y-158182142D01*
X75485714Y-156644047D02*
X74676190Y-156644047D01*
X74595238Y-157453571D01*
X74676190Y-157372619D01*
X74838095Y-157291666D01*
X75242857Y-157291666D01*
X75404761Y-157372619D01*
X75485714Y-157453571D01*
X75566666Y-157615476D01*
X75566666Y-158020238D01*
X75485714Y-158182142D01*
X75404761Y-158263095D01*
X75242857Y-158344047D01*
X74838095Y-158344047D01*
X74676190Y-158263095D01*
X74595238Y-158182142D01*
X76619047Y-156644047D02*
X76780952Y-156644047D01*
X76942857Y-156725000D01*
X77023809Y-156805952D01*
X77104761Y-156967857D01*
X77185714Y-157291666D01*
X77185714Y-157696428D01*
X77104761Y-158020238D01*
X77023809Y-158182142D01*
X76942857Y-158263095D01*
X76780952Y-158344047D01*
X76619047Y-158344047D01*
X76457142Y-158263095D01*
X76376190Y-158182142D01*
X76295238Y-158020238D01*
X76214285Y-157696428D01*
X76214285Y-157291666D01*
X76295238Y-156967857D01*
X76376190Y-156805952D01*
X76457142Y-156725000D01*
X76619047Y-156644047D01*
X78238095Y-156644047D02*
X78400000Y-156644047D01*
X78561904Y-156725000D01*
X78642857Y-156805952D01*
X78723809Y-156967857D01*
X78804761Y-157291666D01*
X78804761Y-157696428D01*
X78723809Y-158020238D01*
X78642857Y-158182142D01*
X78561904Y-158263095D01*
X78400000Y-158344047D01*
X78238095Y-158344047D01*
X78076190Y-158263095D01*
X77995238Y-158182142D01*
X77914285Y-158020238D01*
X77833333Y-157696428D01*
X77833333Y-157291666D01*
X77914285Y-156967857D01*
X77995238Y-156805952D01*
X78076190Y-156725000D01*
X78238095Y-156644047D01*
X81800000Y-158344047D02*
X81233333Y-157534523D01*
X80828571Y-158344047D02*
X80828571Y-156644047D01*
X81476190Y-156644047D01*
X81638095Y-156725000D01*
X81719047Y-156805952D01*
X81800000Y-156967857D01*
X81800000Y-157210714D01*
X81719047Y-157372619D01*
X81638095Y-157453571D01*
X81476190Y-157534523D01*
X80828571Y-157534523D01*
X82771428Y-158344047D02*
X82609523Y-158263095D01*
X82528571Y-158182142D01*
X82447619Y-158020238D01*
X82447619Y-157534523D01*
X82528571Y-157372619D01*
X82609523Y-157291666D01*
X82771428Y-157210714D01*
X83014285Y-157210714D01*
X83176190Y-157291666D01*
X83257142Y-157372619D01*
X83338095Y-157534523D01*
X83338095Y-158020238D01*
X83257142Y-158182142D01*
X83176190Y-158263095D01*
X83014285Y-158344047D01*
X82771428Y-158344047D01*
X83823809Y-157210714D02*
X84471428Y-157210714D01*
X84066666Y-156644047D02*
X84066666Y-158101190D01*
X84147619Y-158263095D01*
X84309523Y-158344047D01*
X84471428Y-158344047D01*
X85766666Y-158344047D02*
X85766666Y-157453571D01*
X85685714Y-157291666D01*
X85523809Y-157210714D01*
X85200000Y-157210714D01*
X85038095Y-157291666D01*
X85766666Y-158263095D02*
X85604761Y-158344047D01*
X85200000Y-158344047D01*
X85038095Y-158263095D01*
X84957142Y-158101190D01*
X84957142Y-157939285D01*
X85038095Y-157777380D01*
X85200000Y-157696428D01*
X85604761Y-157696428D01*
X85766666Y-157615476D01*
X86333333Y-157210714D02*
X86980952Y-157210714D01*
X86576190Y-156644047D02*
X86576190Y-158101190D01*
X86657142Y-158263095D01*
X86819047Y-158344047D01*
X86980952Y-158344047D01*
X87790476Y-158344047D02*
X87628571Y-158263095D01*
X87547619Y-158182142D01*
X87466666Y-158020238D01*
X87466666Y-157534523D01*
X87547619Y-157372619D01*
X87628571Y-157291666D01*
X87790476Y-157210714D01*
X88033333Y-157210714D01*
X88195238Y-157291666D01*
X88276190Y-157372619D01*
X88357142Y-157534523D01*
X88357142Y-158020238D01*
X88276190Y-158182142D01*
X88195238Y-158263095D01*
X88033333Y-158344047D01*
X87790476Y-158344047D01*
X89085714Y-158344047D02*
X89085714Y-157210714D01*
X89085714Y-157534523D02*
X89166666Y-157372619D01*
X89247619Y-157291666D01*
X89409523Y-157210714D01*
X89571428Y-157210714D01*
X92404761Y-158182142D02*
X92323809Y-158263095D01*
X92080952Y-158344047D01*
X91919047Y-158344047D01*
X91676190Y-158263095D01*
X91514285Y-158101190D01*
X91433333Y-157939285D01*
X91352380Y-157615476D01*
X91352380Y-157372619D01*
X91433333Y-157048809D01*
X91514285Y-156886904D01*
X91676190Y-156725000D01*
X91919047Y-156644047D01*
X92080952Y-156644047D01*
X92323809Y-156725000D01*
X92404761Y-156805952D01*
X93376190Y-158344047D02*
X93214285Y-158263095D01*
X93133333Y-158182142D01*
X93052380Y-158020238D01*
X93052380Y-157534523D01*
X93133333Y-157372619D01*
X93214285Y-157291666D01*
X93376190Y-157210714D01*
X93619047Y-157210714D01*
X93780952Y-157291666D01*
X93861904Y-157372619D01*
X93942857Y-157534523D01*
X93942857Y-158020238D01*
X93861904Y-158182142D01*
X93780952Y-158263095D01*
X93619047Y-158344047D01*
X93376190Y-158344047D01*
X94671428Y-157210714D02*
X94671428Y-158344047D01*
X94671428Y-157372619D02*
X94752380Y-157291666D01*
X94914285Y-157210714D01*
X95157142Y-157210714D01*
X95319047Y-157291666D01*
X95400000Y-157453571D01*
X95400000Y-158344047D01*
X95966666Y-157210714D02*
X96614285Y-157210714D01*
X96209523Y-156644047D02*
X96209523Y-158101190D01*
X96290476Y-158263095D01*
X96452380Y-158344047D01*
X96614285Y-158344047D01*
X97180952Y-158344047D02*
X97180952Y-157210714D01*
X97180952Y-157534523D02*
X97261904Y-157372619D01*
X97342857Y-157291666D01*
X97504761Y-157210714D01*
X97666666Y-157210714D01*
X98476190Y-158344047D02*
X98314285Y-158263095D01*
X98233333Y-158182142D01*
X98152380Y-158020238D01*
X98152380Y-157534523D01*
X98233333Y-157372619D01*
X98314285Y-157291666D01*
X98476190Y-157210714D01*
X98719047Y-157210714D01*
X98880952Y-157291666D01*
X98961904Y-157372619D01*
X99042857Y-157534523D01*
X99042857Y-158020238D01*
X98961904Y-158182142D01*
X98880952Y-158263095D01*
X98719047Y-158344047D01*
X98476190Y-158344047D01*
X100014285Y-158344047D02*
X99852380Y-158263095D01*
X99771428Y-158101190D01*
X99771428Y-156644047D01*
X100904761Y-158344047D02*
X100742857Y-158263095D01*
X100661904Y-158101190D01*
X100661904Y-156644047D01*
X102200000Y-158263095D02*
X102038095Y-158344047D01*
X101714285Y-158344047D01*
X101552380Y-158263095D01*
X101471428Y-158101190D01*
X101471428Y-157453571D01*
X101552380Y-157291666D01*
X101714285Y-157210714D01*
X102038095Y-157210714D01*
X102200000Y-157291666D01*
X102280952Y-157453571D01*
X102280952Y-157615476D01*
X101471428Y-157777380D01*
X103009523Y-158344047D02*
X103009523Y-157210714D01*
X103009523Y-157534523D02*
X103090476Y-157372619D01*
X103171428Y-157291666D01*
X103333333Y-157210714D01*
X103495238Y-157210714D01*
X105195238Y-157210714D02*
X105600000Y-158344047D01*
X106004761Y-157210714D01*
X106571428Y-156805952D02*
X106652380Y-156725000D01*
X106814285Y-156644047D01*
X107219047Y-156644047D01*
X107380952Y-156725000D01*
X107461904Y-156805952D01*
X107542857Y-156967857D01*
X107542857Y-157129761D01*
X107461904Y-157372619D01*
X106490476Y-158344047D01*
X107542857Y-158344047D01*
X108595238Y-156644047D02*
X108757142Y-156644047D01*
X108919047Y-156725000D01*
X109000000Y-156805952D01*
X109080952Y-156967857D01*
X109161904Y-157291666D01*
X109161904Y-157696428D01*
X109080952Y-158020238D01*
X109000000Y-158182142D01*
X108919047Y-158263095D01*
X108757142Y-158344047D01*
X108595238Y-158344047D01*
X108433333Y-158263095D01*
X108352380Y-158182142D01*
X108271428Y-158020238D01*
X108190476Y-157696428D01*
X108190476Y-157291666D01*
X108271428Y-156967857D01*
X108352380Y-156805952D01*
X108433333Y-156725000D01*
X108595238Y-156644047D01*
X110780952Y-158344047D02*
X109809523Y-158344047D01*
X110295238Y-158344047D02*
X110295238Y-156644047D01*
X110133333Y-156886904D01*
X109971428Y-157048809D01*
X109809523Y-157129761D01*
X111752380Y-157372619D02*
X111590476Y-157291666D01*
X111509523Y-157210714D01*
X111428571Y-157048809D01*
X111428571Y-156967857D01*
X111509523Y-156805952D01*
X111590476Y-156725000D01*
X111752380Y-156644047D01*
X112076190Y-156644047D01*
X112238095Y-156725000D01*
X112319047Y-156805952D01*
X112400000Y-156967857D01*
X112400000Y-157048809D01*
X112319047Y-157210714D01*
X112238095Y-157291666D01*
X112076190Y-157372619D01*
X111752380Y-157372619D01*
X111590476Y-157453571D01*
X111509523Y-157534523D01*
X111428571Y-157696428D01*
X111428571Y-158020238D01*
X111509523Y-158182142D01*
X111590476Y-158263095D01*
X111752380Y-158344047D01*
X112076190Y-158344047D01*
X112238095Y-158263095D01*
X112319047Y-158182142D01*
X112400000Y-158020238D01*
X112400000Y-157696428D01*
X112319047Y-157534523D01*
X112238095Y-157453571D01*
X112076190Y-157372619D01*
X113128571Y-158182142D02*
X113209523Y-158263095D01*
X113128571Y-158344047D01*
X113047619Y-158263095D01*
X113128571Y-158182142D01*
X113128571Y-158344047D01*
X113776190Y-156644047D02*
X114828571Y-156644047D01*
X114261904Y-157291666D01*
X114504761Y-157291666D01*
X114666666Y-157372619D01*
X114747619Y-157453571D01*
X114828571Y-157615476D01*
X114828571Y-158020238D01*
X114747619Y-158182142D01*
X114666666Y-158263095D01*
X114504761Y-158344047D01*
X114019047Y-158344047D01*
X113857142Y-158263095D01*
X113776190Y-158182142D01*
X80342857Y-161194047D02*
X80342857Y-159494047D01*
X80990476Y-159494047D01*
X81152380Y-159575000D01*
X81233333Y-159655952D01*
X81314285Y-159817857D01*
X81314285Y-160060714D01*
X81233333Y-160222619D01*
X81152380Y-160303571D01*
X80990476Y-160384523D01*
X80342857Y-160384523D01*
X82042857Y-161194047D02*
X82042857Y-159494047D01*
X82771428Y-161194047D02*
X82771428Y-160303571D01*
X82690476Y-160141666D01*
X82528571Y-160060714D01*
X82285714Y-160060714D01*
X82123809Y-160141666D01*
X82042857Y-160222619D01*
X83580952Y-161194047D02*
X83580952Y-160060714D01*
X83580952Y-159494047D02*
X83500000Y-159575000D01*
X83580952Y-159655952D01*
X83661904Y-159575000D01*
X83580952Y-159494047D01*
X83580952Y-159655952D01*
X84633333Y-161194047D02*
X84471428Y-161113095D01*
X84390476Y-160951190D01*
X84390476Y-159494047D01*
X87547619Y-161032142D02*
X87466666Y-161113095D01*
X87223809Y-161194047D01*
X87061904Y-161194047D01*
X86819047Y-161113095D01*
X86657142Y-160951190D01*
X86576190Y-160789285D01*
X86495238Y-160465476D01*
X86495238Y-160222619D01*
X86576190Y-159898809D01*
X86657142Y-159736904D01*
X86819047Y-159575000D01*
X87061904Y-159494047D01*
X87223809Y-159494047D01*
X87466666Y-159575000D01*
X87547619Y-159655952D01*
X88276190Y-161194047D02*
X88276190Y-160060714D01*
X88276190Y-160384523D02*
X88357142Y-160222619D01*
X88438095Y-160141666D01*
X88600000Y-160060714D01*
X88761904Y-160060714D01*
X90057142Y-160060714D02*
X90057142Y-161194047D01*
X89328571Y-160060714D02*
X89328571Y-160951190D01*
X89409523Y-161113095D01*
X89571428Y-161194047D01*
X89814285Y-161194047D01*
X89976190Y-161113095D01*
X90057142Y-161032142D01*
X90866666Y-161194047D02*
X90866666Y-160060714D01*
X90866666Y-160222619D02*
X90947619Y-160141666D01*
X91109523Y-160060714D01*
X91352380Y-160060714D01*
X91514285Y-160141666D01*
X91595238Y-160303571D01*
X91595238Y-161194047D01*
X91595238Y-160303571D02*
X91676190Y-160141666D01*
X91838095Y-160060714D01*
X92080952Y-160060714D01*
X92242857Y-160141666D01*
X92323809Y-160303571D01*
X92323809Y-161194047D01*
X93133333Y-160060714D02*
X93133333Y-161760714D01*
X93133333Y-160141666D02*
X93295238Y-160060714D01*
X93619047Y-160060714D01*
X93780952Y-160141666D01*
X93861904Y-160222619D01*
X93942857Y-160384523D01*
X93942857Y-160870238D01*
X93861904Y-161032142D01*
X93780952Y-161113095D01*
X93619047Y-161194047D01*
X93295238Y-161194047D01*
X93133333Y-161113095D01*
X95966666Y-161194047D02*
X95966666Y-159494047D01*
X96533333Y-160708333D01*
X97100000Y-159494047D01*
X97100000Y-161194047D01*
X98233333Y-159494047D02*
X98395238Y-159494047D01*
X98557142Y-159575000D01*
X98638095Y-159655952D01*
X98719047Y-159817857D01*
X98800000Y-160141666D01*
X98800000Y-160546428D01*
X98719047Y-160870238D01*
X98638095Y-161032142D01*
X98557142Y-161113095D01*
X98395238Y-161194047D01*
X98233333Y-161194047D01*
X98071428Y-161113095D01*
X97990476Y-161032142D01*
X97909523Y-160870238D01*
X97828571Y-160546428D01*
X97828571Y-160141666D01*
X97909523Y-159817857D01*
X97990476Y-159655952D01*
X98071428Y-159575000D01*
X98233333Y-159494047D01*
X99528571Y-161194047D02*
X99528571Y-159494047D01*
X99933333Y-159494047D01*
X100176190Y-159575000D01*
X100338095Y-159736904D01*
X100419047Y-159898809D01*
X100500000Y-160222619D01*
X100500000Y-160465476D01*
X100419047Y-160789285D01*
X100338095Y-160951190D01*
X100176190Y-161113095D01*
X99933333Y-161194047D01*
X99528571Y-161194047D01*
X101228571Y-161194047D02*
X101228571Y-159494047D01*
X102200000Y-161194047D01*
X102200000Y-159494047D01*
X103333333Y-160384523D02*
X103333333Y-161194047D01*
X102766666Y-159494047D02*
X103333333Y-160384523D01*
X103900000Y-159494047D01*
D10*
X59500000Y-46000000D02*
X59500000Y-49500000D01*
X61500000Y-46000000D02*
X59500000Y-46000000D01*
X61500000Y-49500000D02*
X61500000Y-46000000D01*
X59500000Y-49500000D02*
X61500000Y-49500000D01*
D12*
X63837857Y-29225000D02*
X63695000Y-29153571D01*
X63480714Y-29153571D01*
X63266428Y-29225000D01*
X63123571Y-29367857D01*
X63052142Y-29510714D01*
X62980714Y-29796428D01*
X62980714Y-30010714D01*
X63052142Y-30296428D01*
X63123571Y-30439285D01*
X63266428Y-30582142D01*
X63480714Y-30653571D01*
X63623571Y-30653571D01*
X63837857Y-30582142D01*
X63909285Y-30510714D01*
X63909285Y-30010714D01*
X63623571Y-30010714D01*
X64552142Y-30653571D02*
X64552142Y-29153571D01*
X65123571Y-29153571D01*
X65266428Y-29225000D01*
X65337857Y-29296428D01*
X65409285Y-29439285D01*
X65409285Y-29653571D01*
X65337857Y-29796428D01*
X65266428Y-29867857D01*
X65123571Y-29939285D01*
X64552142Y-29939285D01*
X65980714Y-30582142D02*
X66195000Y-30653571D01*
X66552142Y-30653571D01*
X66695000Y-30582142D01*
X66766428Y-30510714D01*
X66837857Y-30367857D01*
X66837857Y-30225000D01*
X66766428Y-30082142D01*
X66695000Y-30010714D01*
X66552142Y-29939285D01*
X66266428Y-29867857D01*
X66123571Y-29796428D01*
X66052142Y-29725000D01*
X65980714Y-29582142D01*
X65980714Y-29439285D01*
X66052142Y-29296428D01*
X66123571Y-29225000D01*
X66266428Y-29153571D01*
X66623571Y-29153571D01*
X66837857Y-29225000D01*
X62980714Y-32775000D02*
X63695000Y-32775000D01*
X62837857Y-33203571D02*
X63337857Y-31703571D01*
X63837857Y-33203571D01*
X64337857Y-33203571D02*
X64337857Y-31703571D01*
X65195000Y-33203571D01*
X65195000Y-31703571D01*
X65695000Y-31703571D02*
X66552142Y-31703571D01*
X66123571Y-33203571D02*
X66123571Y-31703571D01*
X67052142Y-33060714D02*
X67123571Y-33132142D01*
X67052142Y-33203571D01*
X66980714Y-33132142D01*
X67052142Y-33060714D01*
X67052142Y-33203571D01*
X112302142Y-29653571D02*
X112302142Y-30867857D01*
X112373571Y-31010714D01*
X112445000Y-31082142D01*
X112587857Y-31153571D01*
X112873571Y-31153571D01*
X113016428Y-31082142D01*
X113087857Y-31010714D01*
X113159285Y-30867857D01*
X113159285Y-29653571D01*
X113802142Y-31082142D02*
X114016428Y-31153571D01*
X114373571Y-31153571D01*
X114516428Y-31082142D01*
X114587857Y-31010714D01*
X114659285Y-30867857D01*
X114659285Y-30725000D01*
X114587857Y-30582142D01*
X114516428Y-30510714D01*
X114373571Y-30439285D01*
X114087857Y-30367857D01*
X113945000Y-30296428D01*
X113873571Y-30225000D01*
X113802142Y-30082142D01*
X113802142Y-29939285D01*
X113873571Y-29796428D01*
X113945000Y-29725000D01*
X114087857Y-29653571D01*
X114445000Y-29653571D01*
X114659285Y-29725000D01*
X115802142Y-30367857D02*
X116016428Y-30439285D01*
X116087857Y-30510714D01*
X116159285Y-30653571D01*
X116159285Y-30867857D01*
X116087857Y-31010714D01*
X116016428Y-31082142D01*
X115873571Y-31153571D01*
X115302142Y-31153571D01*
X115302142Y-29653571D01*
X115802142Y-29653571D01*
X115945000Y-29725000D01*
X116016428Y-29796428D01*
X116087857Y-29939285D01*
X116087857Y-30082142D01*
X116016428Y-30225000D01*
X115945000Y-30296428D01*
X115802142Y-30367857D01*
X115302142Y-30367857D01*
X112302142Y-33703571D02*
X112302142Y-32203571D01*
X112873571Y-32203571D01*
X113016428Y-32275000D01*
X113087857Y-32346428D01*
X113159285Y-32489285D01*
X113159285Y-32703571D01*
X113087857Y-32846428D01*
X113016428Y-32917857D01*
X112873571Y-32989285D01*
X112302142Y-32989285D01*
X114087857Y-32203571D02*
X114373571Y-32203571D01*
X114516428Y-32275000D01*
X114659285Y-32417857D01*
X114730714Y-32703571D01*
X114730714Y-33203571D01*
X114659285Y-33489285D01*
X114516428Y-33632142D01*
X114373571Y-33703571D01*
X114087857Y-33703571D01*
X113945000Y-33632142D01*
X113802142Y-33489285D01*
X113730714Y-33203571D01*
X113730714Y-32703571D01*
X113802142Y-32417857D01*
X113945000Y-32275000D01*
X114087857Y-32203571D01*
X115230714Y-32203571D02*
X115587857Y-33703571D01*
X115873571Y-32632142D01*
X116159285Y-33703571D01*
X116516428Y-32203571D01*
X117087857Y-32917857D02*
X117587857Y-32917857D01*
X117802142Y-33703571D02*
X117087857Y-33703571D01*
X117087857Y-32203571D01*
X117802142Y-32203571D01*
X119302142Y-33703571D02*
X118802142Y-32989285D01*
X118445000Y-33703571D02*
X118445000Y-32203571D01*
X119016428Y-32203571D01*
X119159285Y-32275000D01*
X119230714Y-32346428D01*
X119302142Y-32489285D01*
X119302142Y-32703571D01*
X119230714Y-32846428D01*
X119159285Y-32917857D01*
X119016428Y-32989285D01*
X118445000Y-32989285D01*
X111642857Y-150178571D02*
X111642857Y-148678571D01*
X112000000Y-148678571D01*
X112214285Y-148750000D01*
X112357142Y-148892857D01*
X112428571Y-149035714D01*
X112500000Y-149321428D01*
X112500000Y-149535714D01*
X112428571Y-149821428D01*
X112357142Y-149964285D01*
X112214285Y-150107142D01*
X112000000Y-150178571D01*
X111642857Y-150178571D01*
X113142857Y-150178571D02*
X113142857Y-148678571D01*
X113785714Y-150107142D02*
X114000000Y-150178571D01*
X114357142Y-150178571D01*
X114500000Y-150107142D01*
X114571428Y-150035714D01*
X114642857Y-149892857D01*
X114642857Y-149750000D01*
X114571428Y-149607142D01*
X114500000Y-149535714D01*
X114357142Y-149464285D01*
X114071428Y-149392857D01*
X113928571Y-149321428D01*
X113857142Y-149250000D01*
X113785714Y-149107142D01*
X113785714Y-148964285D01*
X113857142Y-148821428D01*
X113928571Y-148750000D01*
X114071428Y-148678571D01*
X114428571Y-148678571D01*
X114642857Y-148750000D01*
X115285714Y-150178571D02*
X115285714Y-148678571D01*
X115857142Y-148678571D01*
X116000000Y-148750000D01*
X116071428Y-148821428D01*
X116142857Y-148964285D01*
X116142857Y-149178571D01*
X116071428Y-149321428D01*
X116000000Y-149392857D01*
X115857142Y-149464285D01*
X115285714Y-149464285D01*
X117500000Y-150178571D02*
X116785714Y-150178571D01*
X116785714Y-148678571D01*
X117928571Y-149750000D02*
X118642857Y-149750000D01*
X117785714Y-150178571D02*
X118285714Y-148678571D01*
X118785714Y-150178571D01*
X119571428Y-149464285D02*
X119571428Y-150178571D01*
X119071428Y-148678571D02*
X119571428Y-149464285D01*
X120071428Y-148678571D01*
X65142857Y-150178571D02*
X65142857Y-148678571D01*
X65500000Y-148678571D01*
X65714285Y-148750000D01*
X65857142Y-148892857D01*
X65928571Y-149035714D01*
X66000000Y-149321428D01*
X66000000Y-149535714D01*
X65928571Y-149821428D01*
X65857142Y-149964285D01*
X65714285Y-150107142D01*
X65500000Y-150178571D01*
X65142857Y-150178571D01*
X66642857Y-150178571D02*
X66642857Y-148678571D01*
X67285714Y-150107142D02*
X67500000Y-150178571D01*
X67857142Y-150178571D01*
X68000000Y-150107142D01*
X68071428Y-150035714D01*
X68142857Y-149892857D01*
X68142857Y-149750000D01*
X68071428Y-149607142D01*
X68000000Y-149535714D01*
X67857142Y-149464285D01*
X67571428Y-149392857D01*
X67428571Y-149321428D01*
X67357142Y-149250000D01*
X67285714Y-149107142D01*
X67285714Y-148964285D01*
X67357142Y-148821428D01*
X67428571Y-148750000D01*
X67571428Y-148678571D01*
X67928571Y-148678571D01*
X68142857Y-148750000D01*
X68785714Y-150178571D02*
X68785714Y-148678571D01*
X69357142Y-148678571D01*
X69500000Y-148750000D01*
X69571428Y-148821428D01*
X69642857Y-148964285D01*
X69642857Y-149178571D01*
X69571428Y-149321428D01*
X69500000Y-149392857D01*
X69357142Y-149464285D01*
X68785714Y-149464285D01*
X71000000Y-150178571D02*
X70285714Y-150178571D01*
X70285714Y-148678571D01*
X71428571Y-149750000D02*
X72142857Y-149750000D01*
X71285714Y-150178571D02*
X71785714Y-148678571D01*
X72285714Y-150178571D01*
X73071428Y-149464285D02*
X73071428Y-150178571D01*
X72571428Y-148678571D02*
X73071428Y-149464285D01*
X73571428Y-148678571D01*
X92159285Y-31903571D02*
X91659285Y-31189285D01*
X91302142Y-31903571D02*
X91302142Y-30403571D01*
X91873571Y-30403571D01*
X92016428Y-30475000D01*
X92087857Y-30546428D01*
X92159285Y-30689285D01*
X92159285Y-30903571D01*
X92087857Y-31046428D01*
X92016428Y-31117857D01*
X91873571Y-31189285D01*
X91302142Y-31189285D01*
X92802142Y-31117857D02*
X93302142Y-31117857D01*
X93516428Y-31903571D02*
X92802142Y-31903571D01*
X92802142Y-30403571D01*
X93516428Y-30403571D01*
X94159285Y-31903571D02*
X94159285Y-30403571D01*
X94659285Y-31475000D01*
X95159285Y-30403571D01*
X95159285Y-31903571D01*
X96159285Y-30403571D02*
X96445000Y-30403571D01*
X96587857Y-30475000D01*
X96730714Y-30617857D01*
X96802142Y-30903571D01*
X96802142Y-31403571D01*
X96730714Y-31689285D01*
X96587857Y-31832142D01*
X96445000Y-31903571D01*
X96159285Y-31903571D01*
X96016428Y-31832142D01*
X95873571Y-31689285D01*
X95802142Y-31403571D01*
X95802142Y-30903571D01*
X95873571Y-30617857D01*
X96016428Y-30475000D01*
X96159285Y-30403571D01*
X97230714Y-30403571D02*
X98087857Y-30403571D01*
X97659285Y-31903571D02*
X97659285Y-30403571D01*
X98587857Y-31117857D02*
X99087857Y-31117857D01*
X99302142Y-31903571D02*
X98587857Y-31903571D01*
X98587857Y-30403571D01*
X99302142Y-30403571D01*
X91302142Y-33667857D02*
X91802142Y-33667857D01*
X92016428Y-34453571D02*
X91302142Y-34453571D01*
X91302142Y-32953571D01*
X92016428Y-32953571D01*
X92659285Y-34453571D02*
X92659285Y-32953571D01*
X93516428Y-34453571D01*
X93516428Y-32953571D01*
X94159285Y-34025000D02*
X94873571Y-34025000D01*
X94016428Y-34453571D02*
X94516428Y-32953571D01*
X95016428Y-34453571D01*
X96016428Y-33667857D02*
X96230714Y-33739285D01*
X96302142Y-33810714D01*
X96373571Y-33953571D01*
X96373571Y-34167857D01*
X96302142Y-34310714D01*
X96230714Y-34382142D01*
X96087857Y-34453571D01*
X95516428Y-34453571D01*
X95516428Y-32953571D01*
X96016428Y-32953571D01*
X96159285Y-33025000D01*
X96230714Y-33096428D01*
X96302142Y-33239285D01*
X96302142Y-33382142D01*
X96230714Y-33525000D01*
X96159285Y-33596428D01*
X96016428Y-33667857D01*
X95516428Y-33667857D01*
X97730714Y-34453571D02*
X97016428Y-34453571D01*
X97016428Y-32953571D01*
X98230714Y-33667857D02*
X98730714Y-33667857D01*
X98945000Y-34453571D02*
X98230714Y-34453571D01*
X98230714Y-32953571D01*
X98945000Y-32953571D01*
X113678571Y-47142857D02*
X114178571Y-47142857D01*
X114392857Y-47928571D02*
X113678571Y-47928571D01*
X113678571Y-46428571D01*
X114392857Y-46428571D01*
X115750000Y-47928571D02*
X115035714Y-47928571D01*
X115035714Y-46428571D01*
X117392857Y-47928571D02*
X117392857Y-46428571D01*
X117892857Y-47500000D01*
X118392857Y-46428571D01*
X118392857Y-47928571D01*
X119035714Y-47500000D02*
X119750000Y-47500000D01*
X118892857Y-47928571D02*
X119392857Y-46428571D01*
X119892857Y-47928571D01*
X120392857Y-47928571D02*
X120392857Y-46428571D01*
X121250000Y-47928571D01*
X121250000Y-46428571D01*
X121964285Y-46428571D02*
X121964285Y-47642857D01*
X122035714Y-47785714D01*
X122107142Y-47857142D01*
X122250000Y-47928571D01*
X122535714Y-47928571D01*
X122678571Y-47857142D01*
X122750000Y-47785714D01*
X122821428Y-47642857D01*
X122821428Y-46428571D01*
X123464285Y-47500000D02*
X124178571Y-47500000D01*
X123321428Y-47928571D02*
X123821428Y-46428571D01*
X124321428Y-47928571D01*
X125535714Y-47928571D02*
X124821428Y-47928571D01*
X124821428Y-46428571D01*
X97785714Y-47500000D02*
X98500000Y-47500000D01*
X97642857Y-47928571D02*
X98142857Y-46428571D01*
X98642857Y-47928571D01*
X99000000Y-46428571D02*
X100000000Y-46428571D01*
X99000000Y-47928571D01*
X100000000Y-47928571D01*
X101714285Y-47928571D02*
X101714285Y-46428571D01*
X102214285Y-47500000D01*
X102714285Y-46428571D01*
X102714285Y-47928571D01*
X103357142Y-47500000D02*
X104071428Y-47500000D01*
X103214285Y-47928571D02*
X103714285Y-46428571D01*
X104214285Y-47928571D01*
X104714285Y-47928571D02*
X104714285Y-46428571D01*
X105571428Y-47928571D01*
X105571428Y-46428571D01*
X106285714Y-46428571D02*
X106285714Y-47642857D01*
X106357142Y-47785714D01*
X106428571Y-47857142D01*
X106571428Y-47928571D01*
X106857142Y-47928571D01*
X107000000Y-47857142D01*
X107071428Y-47785714D01*
X107142857Y-47642857D01*
X107142857Y-46428571D01*
X107785714Y-47500000D02*
X108500000Y-47500000D01*
X107642857Y-47928571D02*
X108142857Y-46428571D01*
X108642857Y-47928571D01*
X109857142Y-47928571D02*
X109142857Y-47928571D01*
X109142857Y-46428571D01*
X58725000Y-44162142D02*
X58653571Y-44305000D01*
X58653571Y-44519285D01*
X58725000Y-44733571D01*
X58867857Y-44876428D01*
X59010714Y-44947857D01*
X59296428Y-45019285D01*
X59510714Y-45019285D01*
X59796428Y-44947857D01*
X59939285Y-44876428D01*
X60082142Y-44733571D01*
X60153571Y-44519285D01*
X60153571Y-44376428D01*
X60082142Y-44162142D01*
X60010714Y-44090714D01*
X59510714Y-44090714D01*
X59510714Y-44376428D01*
X60153571Y-43447857D02*
X58653571Y-43447857D01*
X58653571Y-42876428D01*
X58725000Y-42733571D01*
X58796428Y-42662142D01*
X58939285Y-42590714D01*
X59153571Y-42590714D01*
X59296428Y-42662142D01*
X59367857Y-42733571D01*
X59439285Y-42876428D01*
X59439285Y-43447857D01*
X60082142Y-42019285D02*
X60153571Y-41805000D01*
X60153571Y-41447857D01*
X60082142Y-41305000D01*
X60010714Y-41233571D01*
X59867857Y-41162142D01*
X59725000Y-41162142D01*
X59582142Y-41233571D01*
X59510714Y-41305000D01*
X59439285Y-41447857D01*
X59367857Y-41733571D01*
X59296428Y-41876428D01*
X59225000Y-41947857D01*
X59082142Y-42019285D01*
X58939285Y-42019285D01*
X58796428Y-41947857D01*
X58725000Y-41876428D01*
X58653571Y-41733571D01*
X58653571Y-41376428D01*
X58725000Y-41162142D01*
X62632142Y-45019285D02*
X62703571Y-44805000D01*
X62703571Y-44447857D01*
X62632142Y-44305000D01*
X62560714Y-44233571D01*
X62417857Y-44162142D01*
X62275000Y-44162142D01*
X62132142Y-44233571D01*
X62060714Y-44305000D01*
X61989285Y-44447857D01*
X61917857Y-44733571D01*
X61846428Y-44876428D01*
X61775000Y-44947857D01*
X61632142Y-45019285D01*
X61489285Y-45019285D01*
X61346428Y-44947857D01*
X61275000Y-44876428D01*
X61203571Y-44733571D01*
X61203571Y-44376428D01*
X61275000Y-44162142D01*
X61203571Y-43733571D02*
X61203571Y-42876428D01*
X62703571Y-43305000D02*
X61203571Y-43305000D01*
X62275000Y-42447857D02*
X62275000Y-41733571D01*
X62703571Y-42590714D02*
X61203571Y-42090714D01*
X62703571Y-41590714D01*
X61203571Y-41305000D02*
X61203571Y-40447857D01*
X62703571Y-40876428D02*
X61203571Y-40876428D01*
X61203571Y-39947857D02*
X62417857Y-39947857D01*
X62560714Y-39876428D01*
X62632142Y-39805000D01*
X62703571Y-39662142D01*
X62703571Y-39376428D01*
X62632142Y-39233571D01*
X62560714Y-39162142D01*
X62417857Y-39090714D01*
X61203571Y-39090714D01*
X62632142Y-38447857D02*
X62703571Y-38233571D01*
X62703571Y-37876428D01*
X62632142Y-37733571D01*
X62560714Y-37662142D01*
X62417857Y-37590714D01*
X62275000Y-37590714D01*
X62132142Y-37662142D01*
X62060714Y-37733571D01*
X61989285Y-37876428D01*
X61917857Y-38162142D01*
X61846428Y-38305000D01*
X61775000Y-38376428D01*
X61632142Y-38447857D01*
X61489285Y-38447857D01*
X61346428Y-38376428D01*
X61275000Y-38305000D01*
X61203571Y-38162142D01*
X61203571Y-37805000D01*
X61275000Y-37590714D01*
X97857142Y-150178571D02*
X97857142Y-148678571D01*
X98357142Y-149750000D01*
X98857142Y-148678571D01*
X98857142Y-150178571D01*
X99857142Y-148678571D02*
X100142857Y-148678571D01*
X100285714Y-148750000D01*
X100428571Y-148892857D01*
X100500000Y-149178571D01*
X100500000Y-149678571D01*
X100428571Y-149964285D01*
X100285714Y-150107142D01*
X100142857Y-150178571D01*
X99857142Y-150178571D01*
X99714285Y-150107142D01*
X99571428Y-149964285D01*
X99500000Y-149678571D01*
X99500000Y-149178571D01*
X99571428Y-148892857D01*
X99714285Y-148750000D01*
X99857142Y-148678571D01*
X100928571Y-148678571D02*
X101785714Y-148678571D01*
X101357142Y-150178571D02*
X101357142Y-148678571D01*
X102571428Y-148678571D02*
X102857142Y-148678571D01*
X103000000Y-148750000D01*
X103142857Y-148892857D01*
X103214285Y-149178571D01*
X103214285Y-149678571D01*
X103142857Y-149964285D01*
X103000000Y-150107142D01*
X102857142Y-150178571D01*
X102571428Y-150178571D01*
X102428571Y-150107142D01*
X102285714Y-149964285D01*
X102214285Y-149678571D01*
X102214285Y-149178571D01*
X102285714Y-148892857D01*
X102428571Y-148750000D01*
X102571428Y-148678571D01*
X104714285Y-150178571D02*
X104214285Y-149464285D01*
X103857142Y-150178571D02*
X103857142Y-148678571D01*
X104428571Y-148678571D01*
X104571428Y-148750000D01*
X104642857Y-148821428D01*
X104714285Y-148964285D01*
X104714285Y-149178571D01*
X104642857Y-149321428D01*
X104571428Y-149392857D01*
X104428571Y-149464285D01*
X103857142Y-149464285D01*
X80607142Y-150178571D02*
X80607142Y-148678571D01*
X81107142Y-149750000D01*
X81607142Y-148678571D01*
X81607142Y-150178571D01*
X82607142Y-148678571D02*
X82892857Y-148678571D01*
X83035714Y-148750000D01*
X83178571Y-148892857D01*
X83250000Y-149178571D01*
X83250000Y-149678571D01*
X83178571Y-149964285D01*
X83035714Y-150107142D01*
X82892857Y-150178571D01*
X82607142Y-150178571D01*
X82464285Y-150107142D01*
X82321428Y-149964285D01*
X82250000Y-149678571D01*
X82250000Y-149178571D01*
X82321428Y-148892857D01*
X82464285Y-148750000D01*
X82607142Y-148678571D01*
X83678571Y-148678571D02*
X84535714Y-148678571D01*
X84107142Y-150178571D02*
X84107142Y-148678571D01*
X85321428Y-148678571D02*
X85607142Y-148678571D01*
X85750000Y-148750000D01*
X85892857Y-148892857D01*
X85964285Y-149178571D01*
X85964285Y-149678571D01*
X85892857Y-149964285D01*
X85750000Y-150107142D01*
X85607142Y-150178571D01*
X85321428Y-150178571D01*
X85178571Y-150107142D01*
X85035714Y-149964285D01*
X84964285Y-149678571D01*
X84964285Y-149178571D01*
X85035714Y-148892857D01*
X85178571Y-148750000D01*
X85321428Y-148678571D01*
X87464285Y-150178571D02*
X86964285Y-149464285D01*
X86607142Y-150178571D02*
X86607142Y-148678571D01*
X87178571Y-148678571D01*
X87321428Y-148750000D01*
X87392857Y-148821428D01*
X87464285Y-148964285D01*
X87464285Y-149178571D01*
X87392857Y-149321428D01*
X87321428Y-149392857D01*
X87178571Y-149464285D01*
X86607142Y-149464285D01*
X94730714Y-62250000D02*
X95445000Y-62250000D01*
X94587857Y-62678571D02*
X95087857Y-61178571D01*
X95587857Y-62678571D01*
X95945000Y-61178571D02*
X96945000Y-61178571D01*
X95945000Y-62678571D01*
X96945000Y-62678571D01*
X99159285Y-61892857D02*
X98659285Y-61892857D01*
X98659285Y-62678571D02*
X98659285Y-61178571D01*
X99373571Y-61178571D01*
X99945000Y-61892857D02*
X100445000Y-61892857D01*
X100659285Y-62678571D02*
X99945000Y-62678571D01*
X99945000Y-61178571D01*
X100659285Y-61178571D01*
X101302142Y-61892857D02*
X101802142Y-61892857D01*
X102016428Y-62678571D02*
X101302142Y-62678571D01*
X101302142Y-61178571D01*
X102016428Y-61178571D01*
X102659285Y-62678571D02*
X102659285Y-61178571D01*
X103016428Y-61178571D01*
X103230714Y-61250000D01*
X103373571Y-61392857D01*
X103445000Y-61535714D01*
X103516428Y-61821428D01*
X103516428Y-62035714D01*
X103445000Y-62321428D01*
X103373571Y-62464285D01*
X103230714Y-62607142D01*
X103016428Y-62678571D01*
X102659285Y-62678571D01*
X104659285Y-61892857D02*
X104873571Y-61964285D01*
X104945000Y-62035714D01*
X105016428Y-62178571D01*
X105016428Y-62392857D01*
X104945000Y-62535714D01*
X104873571Y-62607142D01*
X104730714Y-62678571D01*
X104159285Y-62678571D01*
X104159285Y-61178571D01*
X104659285Y-61178571D01*
X104802142Y-61250000D01*
X104873571Y-61321428D01*
X104945000Y-61464285D01*
X104945000Y-61607142D01*
X104873571Y-61750000D01*
X104802142Y-61821428D01*
X104659285Y-61892857D01*
X104159285Y-61892857D01*
X105587857Y-62250000D02*
X106302142Y-62250000D01*
X105445000Y-62678571D02*
X105945000Y-61178571D01*
X106445000Y-62678571D01*
X107802142Y-62535714D02*
X107730714Y-62607142D01*
X107516428Y-62678571D01*
X107373571Y-62678571D01*
X107159285Y-62607142D01*
X107016428Y-62464285D01*
X106945000Y-62321428D01*
X106873571Y-62035714D01*
X106873571Y-61821428D01*
X106945000Y-61535714D01*
X107016428Y-61392857D01*
X107159285Y-61250000D01*
X107373571Y-61178571D01*
X107516428Y-61178571D01*
X107730714Y-61250000D01*
X107802142Y-61321428D01*
X108445000Y-62678571D02*
X108445000Y-61178571D01*
X109302142Y-62678571D02*
X108659285Y-61821428D01*
X109302142Y-61178571D02*
X108445000Y-62035714D01*
X94802142Y-76142857D02*
X95302142Y-76142857D01*
X95516428Y-76928571D02*
X94802142Y-76928571D01*
X94802142Y-75428571D01*
X95516428Y-75428571D01*
X96873571Y-76928571D02*
X96159285Y-76928571D01*
X96159285Y-75428571D01*
X99016428Y-76142857D02*
X98516428Y-76142857D01*
X98516428Y-76928571D02*
X98516428Y-75428571D01*
X99230714Y-75428571D01*
X99802142Y-76142857D02*
X100302142Y-76142857D01*
X100516428Y-76928571D02*
X99802142Y-76928571D01*
X99802142Y-75428571D01*
X100516428Y-75428571D01*
X101159285Y-76142857D02*
X101659285Y-76142857D01*
X101873571Y-76928571D02*
X101159285Y-76928571D01*
X101159285Y-75428571D01*
X101873571Y-75428571D01*
X102516428Y-76928571D02*
X102516428Y-75428571D01*
X102873571Y-75428571D01*
X103087857Y-75500000D01*
X103230714Y-75642857D01*
X103302142Y-75785714D01*
X103373571Y-76071428D01*
X103373571Y-76285714D01*
X103302142Y-76571428D01*
X103230714Y-76714285D01*
X103087857Y-76857142D01*
X102873571Y-76928571D01*
X102516428Y-76928571D01*
X104516428Y-76142857D02*
X104730714Y-76214285D01*
X104802142Y-76285714D01*
X104873571Y-76428571D01*
X104873571Y-76642857D01*
X104802142Y-76785714D01*
X104730714Y-76857142D01*
X104587857Y-76928571D01*
X104016428Y-76928571D01*
X104016428Y-75428571D01*
X104516428Y-75428571D01*
X104659285Y-75500000D01*
X104730714Y-75571428D01*
X104802142Y-75714285D01*
X104802142Y-75857142D01*
X104730714Y-76000000D01*
X104659285Y-76071428D01*
X104516428Y-76142857D01*
X104016428Y-76142857D01*
X105445000Y-76500000D02*
X106159285Y-76500000D01*
X105302142Y-76928571D02*
X105802142Y-75428571D01*
X106302142Y-76928571D01*
X107659285Y-76785714D02*
X107587857Y-76857142D01*
X107373571Y-76928571D01*
X107230714Y-76928571D01*
X107016428Y-76857142D01*
X106873571Y-76714285D01*
X106802142Y-76571428D01*
X106730714Y-76285714D01*
X106730714Y-76071428D01*
X106802142Y-75785714D01*
X106873571Y-75642857D01*
X107016428Y-75500000D01*
X107230714Y-75428571D01*
X107373571Y-75428571D01*
X107587857Y-75500000D01*
X107659285Y-75571428D01*
X108302142Y-76928571D02*
X108302142Y-75428571D01*
X109159285Y-76928571D02*
X108516428Y-76071428D01*
X109159285Y-75428571D02*
X108302142Y-76285714D01*
X72428571Y-75071428D02*
X72500000Y-75000000D01*
X72642857Y-74928571D01*
X73000000Y-74928571D01*
X73142857Y-75000000D01*
X73214285Y-75071428D01*
X73285714Y-75214285D01*
X73285714Y-75357142D01*
X73214285Y-75571428D01*
X72357142Y-76428571D01*
X73285714Y-76428571D01*
X74571428Y-75428571D02*
X74571428Y-76428571D01*
X74214285Y-74857142D02*
X73857142Y-75928571D01*
X74785714Y-75928571D01*
X75142857Y-74928571D02*
X75642857Y-76428571D01*
X76142857Y-74928571D01*
X77714285Y-76000000D02*
X78428571Y-76000000D01*
X77571428Y-76428571D02*
X78071428Y-74928571D01*
X78571428Y-76428571D01*
X79928571Y-76285714D02*
X79857142Y-76357142D01*
X79642857Y-76428571D01*
X79500000Y-76428571D01*
X79285714Y-76357142D01*
X79142857Y-76214285D01*
X79071428Y-76071428D01*
X79000000Y-75785714D01*
X79000000Y-75571428D01*
X79071428Y-75285714D01*
X79142857Y-75142857D01*
X79285714Y-75000000D01*
X79500000Y-74928571D01*
X79642857Y-74928571D01*
X79857142Y-75000000D01*
X79928571Y-75071428D01*
X81714285Y-76428571D02*
X81714285Y-74928571D01*
X82428571Y-76428571D02*
X82428571Y-74928571D01*
X83285714Y-76428571D01*
X83285714Y-74928571D01*
X84000000Y-76428571D02*
X84000000Y-74928571D01*
X84571428Y-74928571D01*
X84714285Y-75000000D01*
X84785714Y-75071428D01*
X84857142Y-75214285D01*
X84857142Y-75428571D01*
X84785714Y-75571428D01*
X84714285Y-75642857D01*
X84571428Y-75714285D01*
X84000000Y-75714285D01*
X85500000Y-74928571D02*
X85500000Y-76142857D01*
X85571428Y-76285714D01*
X85642857Y-76357142D01*
X85785714Y-76428571D01*
X86071428Y-76428571D01*
X86214285Y-76357142D01*
X86285714Y-76285714D01*
X86357142Y-76142857D01*
X86357142Y-74928571D01*
X86857142Y-74928571D02*
X87714285Y-74928571D01*
X87285714Y-76428571D02*
X87285714Y-74928571D01*
D13*
X80370000Y-141470000D02*
X80370000Y-147490000D01*
X80370000Y-147490000D02*
X88210000Y-147490000D01*
X88210000Y-147490000D02*
X88210000Y-141470000D01*
X88210000Y-141470000D02*
X80370000Y-141470000D01*
X80080000Y-142500000D02*
X80080000Y-146500000D01*
X81750000Y-147490000D02*
X81750000Y-146490000D01*
X81750000Y-146490000D02*
X86830000Y-146490000D01*
X86830000Y-146490000D02*
X86830000Y-147490000D01*
X81750000Y-146490000D02*
X82000000Y-145960000D01*
X82000000Y-145960000D02*
X86580000Y-145960000D01*
X86580000Y-145960000D02*
X86830000Y-146490000D01*
X82000000Y-147490000D02*
X82000000Y-146490000D01*
X86580000Y-147490000D02*
X86580000Y-146490000D01*
X80950000Y-141470000D02*
X80950000Y-142070000D01*
X80950000Y-142070000D02*
X82550000Y-142070000D01*
X82550000Y-142070000D02*
X82550000Y-141470000D01*
X83490000Y-141470000D02*
X83490000Y-142070000D01*
X83490000Y-142070000D02*
X85090000Y-142070000D01*
X85090000Y-142070000D02*
X85090000Y-141470000D01*
X86030000Y-141470000D02*
X86030000Y-142070000D01*
X86030000Y-142070000D02*
X87630000Y-142070000D01*
X87630000Y-142070000D02*
X87630000Y-141470000D01*
D14*
X109675000Y-56875000D02*
X110325000Y-56875000D01*
X109675000Y-57125000D02*
X109675000Y-56875000D01*
X110325000Y-57125000D02*
X109675000Y-57125000D01*
X110325000Y-56875000D02*
X110325000Y-57125000D01*
D13*
X81262963Y-119539017D02*
X84412963Y-119539017D01*
X75412963Y-119539017D02*
X78562963Y-119539017D01*
X78912963Y-114429017D02*
X80912963Y-114429017D01*
X79562963Y-120139017D02*
X80262963Y-120139017D01*
X79562963Y-118939017D02*
X79562963Y-120139017D01*
X80262963Y-118939017D02*
X79562963Y-118939017D01*
X80262963Y-120139017D02*
X80262963Y-118939017D01*
X79562963Y-119739017D02*
X80262963Y-119339017D01*
X71562963Y-137389017D02*
X88262963Y-137389017D01*
X71562963Y-114689017D02*
X71562963Y-137389017D01*
X88262963Y-114689017D02*
X71562963Y-114689017D01*
X88262963Y-137389017D02*
X88262963Y-114689017D01*
X88389300Y-108180960D02*
X88389300Y-85480960D01*
X88389300Y-85480960D02*
X71689300Y-85480960D01*
X71689300Y-85480960D02*
X71689300Y-108180960D01*
X71689300Y-108180960D02*
X88389300Y-108180960D01*
X79689300Y-90530960D02*
X80389300Y-90130960D01*
X80389300Y-90930960D02*
X80389300Y-89730960D01*
X80389300Y-89730960D02*
X79689300Y-89730960D01*
X79689300Y-89730960D02*
X79689300Y-90930960D01*
X79689300Y-90930960D02*
X80389300Y-90930960D01*
X79039300Y-85220960D02*
X81039300Y-85220960D01*
X75539300Y-90330960D02*
X78689300Y-90330960D01*
X81389300Y-90330960D02*
X84539300Y-90330960D01*
X113935681Y-108060085D02*
X113935681Y-85360085D01*
X113935681Y-85360085D02*
X97235681Y-85360085D01*
X97235681Y-85360085D02*
X97235681Y-108060085D01*
X97235681Y-108060085D02*
X113935681Y-108060085D01*
X105235681Y-90410085D02*
X105935681Y-90010085D01*
X105935681Y-90810085D02*
X105935681Y-89610085D01*
X105935681Y-89610085D02*
X105235681Y-89610085D01*
X105235681Y-89610085D02*
X105235681Y-90810085D01*
X105235681Y-90810085D02*
X105935681Y-90810085D01*
X104585681Y-85100085D02*
X106585681Y-85100085D01*
X101085681Y-90210085D02*
X104235681Y-90210085D01*
X106935681Y-90210085D02*
X110085681Y-90210085D01*
X106850000Y-119500000D02*
X110000000Y-119500000D01*
X101000000Y-119500000D02*
X104150000Y-119500000D01*
X104500000Y-114390000D02*
X106500000Y-114390000D01*
X105150000Y-120100000D02*
X105850000Y-120100000D01*
X105150000Y-118900000D02*
X105150000Y-120100000D01*
X105850000Y-118900000D02*
X105150000Y-118900000D01*
X105850000Y-120100000D02*
X105850000Y-118900000D01*
X105150000Y-119700000D02*
X105850000Y-119300000D01*
X97150000Y-137350000D02*
X113850000Y-137350000D01*
X97150000Y-114650000D02*
X97150000Y-137350000D01*
X113850000Y-114650000D02*
X97150000Y-114650000D01*
X113850000Y-137350000D02*
X113850000Y-114650000D01*
X108985001Y-162047500D02*
X127175001Y-162047500D01*
X127575001Y-161647500D02*
X127575001Y-28847500D01*
X102365001Y-28447500D02*
X57775001Y-28447500D01*
X57375001Y-28847500D02*
X57375001Y-161647500D01*
X108985001Y-162047500D02*
X108985001Y-164497500D01*
X108985001Y-164497500D02*
X94765001Y-164497500D01*
X94765001Y-164497500D02*
X94765001Y-162047500D01*
X69365001Y-162047500D02*
X57775001Y-162047500D01*
X94765001Y-162047500D02*
X77585001Y-162037500D01*
X69365001Y-162047500D02*
X69365001Y-163557500D01*
X69365001Y-163557500D02*
X77585001Y-163557500D01*
X77585001Y-163557500D02*
X77585001Y-162037500D01*
X102365001Y-28447500D02*
X102365001Y-26937500D01*
X102365001Y-26937500D02*
X110585001Y-26937500D01*
X110585001Y-26937500D02*
X110585001Y-28447500D01*
X110585001Y-28447500D02*
X127175001Y-28447500D01*
X127575001Y-28847500D02*
G75*
G03X127175001Y-28447500I-400000J0D01*
G01*
X57775001Y-28447500D02*
G75*
G03X57375001Y-28847500I0J-400000D01*
G01*
X57375001Y-161647500D02*
G75*
G03X57775001Y-162047500I400000J0D01*
G01*
X127175001Y-162047500D02*
G75*
G03X127575001Y-161647500I0J400000D01*
G01*
X75340888Y-82942609D02*
X79240888Y-82942609D01*
X75340888Y-84942609D02*
X79240888Y-84942609D01*
X75340888Y-82942609D02*
X75340888Y-84942609D01*
X100000000Y-82750000D02*
X100000000Y-84750000D01*
X100000000Y-84750000D02*
X103900000Y-84750000D01*
X100000000Y-82750000D02*
X103900000Y-82750000D01*
X74750000Y-112000000D02*
X74750000Y-114000000D01*
X74750000Y-114000000D02*
X78650000Y-114000000D01*
X74750000Y-112000000D02*
X78650000Y-112000000D01*
X100250000Y-112000000D02*
X104150000Y-112000000D01*
X100250000Y-114000000D02*
X104150000Y-114000000D01*
X100250000Y-112000000D02*
X100250000Y-114000000D01*
D14*
X110200000Y-32550000D02*
X110200000Y-30850000D01*
X109400000Y-32550000D02*
X110200000Y-32550000D01*
X102800000Y-32550000D02*
X103650000Y-32550000D01*
X102800000Y-30850000D02*
X102800000Y-32550000D01*
D13*
X106020000Y-112500000D02*
X106020000Y-111840000D01*
X106020000Y-114160000D02*
X106020000Y-113500000D01*
X106020000Y-114160000D02*
X108050000Y-114160000D01*
X107430000Y-111840000D02*
X106020000Y-111840000D01*
X82520888Y-82532609D02*
X81110888Y-82532609D01*
X81110888Y-84852609D02*
X83140888Y-84852609D01*
X81110888Y-84852609D02*
X81110888Y-84192609D01*
X81110888Y-83192609D02*
X81110888Y-82532609D01*
X107430000Y-82590000D02*
X106020000Y-82590000D01*
X106020000Y-84910000D02*
X108050000Y-84910000D01*
X106020000Y-84910000D02*
X106020000Y-84250000D01*
X106020000Y-83250000D02*
X106020000Y-82590000D01*
X80770000Y-112500000D02*
X80770000Y-111840000D01*
X80770000Y-114160000D02*
X80770000Y-113500000D01*
X80770000Y-114160000D02*
X82800000Y-114160000D01*
X82180000Y-111840000D02*
X80770000Y-111840000D01*
D14*
X65850000Y-45000000D02*
X65850000Y-38900000D01*
X65850000Y-38900000D02*
X74650000Y-38900000D01*
X74650000Y-38900000D02*
X74650000Y-45600000D01*
X74650000Y-45600000D02*
X66450000Y-45600000D01*
X66450000Y-45600000D02*
X65850000Y-45000000D01*
D13*
X88130000Y-42440000D02*
X86370000Y-42440000D01*
X86370000Y-45510000D02*
X88800000Y-45510000D01*
D14*
X93325000Y-57875000D02*
X93325000Y-58125000D01*
X93325000Y-58125000D02*
X92675000Y-58125000D01*
X92675000Y-58125000D02*
X92675000Y-57875000D01*
X92675000Y-57875000D02*
X93325000Y-57875000D01*
X92675000Y-72375000D02*
X93325000Y-72375000D01*
X92675000Y-72625000D02*
X92675000Y-72375000D01*
X93325000Y-72625000D02*
X92675000Y-72625000D01*
X93325000Y-72375000D02*
X93325000Y-72625000D01*
X104675000Y-56875000D02*
X105325000Y-56875000D01*
X104675000Y-57125000D02*
X104675000Y-56875000D01*
X105325000Y-57125000D02*
X104675000Y-57125000D01*
X105325000Y-56875000D02*
X105325000Y-57125000D01*
X104675000Y-71375000D02*
X105325000Y-71375000D01*
X104675000Y-71625000D02*
X104675000Y-71375000D01*
X105325000Y-71625000D02*
X104675000Y-71625000D01*
X105325000Y-71375000D02*
X105325000Y-71625000D01*
X110325000Y-71375000D02*
X110325000Y-71625000D01*
X110325000Y-71625000D02*
X109675000Y-71625000D01*
X109675000Y-71625000D02*
X109675000Y-71375000D01*
X109675000Y-71375000D02*
X110325000Y-71375000D01*
X107125000Y-34425000D02*
X107125000Y-35075000D01*
X106875000Y-34425000D02*
X107125000Y-34425000D01*
X106875000Y-35075000D02*
X106875000Y-34425000D01*
X107125000Y-35075000D02*
X106875000Y-35075000D01*
X98425000Y-112625000D02*
X98425000Y-112375000D01*
X98425000Y-112375000D02*
X99075000Y-112375000D01*
X99075000Y-112375000D02*
X99075000Y-112625000D01*
X99075000Y-112625000D02*
X98425000Y-112625000D01*
X73765888Y-83567609D02*
X73765888Y-83317609D01*
X73765888Y-83317609D02*
X74415888Y-83317609D01*
X74415888Y-83317609D02*
X74415888Y-83567609D01*
X74415888Y-83567609D02*
X73765888Y-83567609D01*
X98825000Y-83625000D02*
X98175000Y-83625000D01*
X98825000Y-83375000D02*
X98825000Y-83625000D01*
X98175000Y-83375000D02*
X98825000Y-83375000D01*
X98175000Y-83625000D02*
X98175000Y-83375000D01*
X72675000Y-112625000D02*
X72675000Y-112375000D01*
X72675000Y-112375000D02*
X73325000Y-112375000D01*
X73325000Y-112375000D02*
X73325000Y-112625000D01*
X73325000Y-112625000D02*
X72675000Y-112625000D01*
X90825000Y-44875000D02*
X90175000Y-44875000D01*
X90825000Y-44625000D02*
X90825000Y-44875000D01*
X90175000Y-44625000D02*
X90825000Y-44625000D01*
X90175000Y-44875000D02*
X90175000Y-44625000D01*
X78175000Y-44375000D02*
X78175000Y-44125000D01*
X78175000Y-44125000D02*
X78825000Y-44125000D01*
X78825000Y-44125000D02*
X78825000Y-44375000D01*
X78825000Y-44375000D02*
X78175000Y-44375000D01*
X77075000Y-44375000D02*
X76425000Y-44375000D01*
X77075000Y-44125000D02*
X77075000Y-44375000D01*
X76425000Y-44125000D02*
X77075000Y-44125000D01*
X76425000Y-44375000D02*
X76425000Y-44125000D01*
X83425000Y-44375000D02*
X83425000Y-44125000D01*
X83425000Y-44125000D02*
X84075000Y-44125000D01*
X84075000Y-44125000D02*
X84075000Y-44375000D01*
X84075000Y-44375000D02*
X83425000Y-44375000D01*
X60500000Y-47575000D02*
X60825000Y-47825000D01*
X60500000Y-47575000D02*
X60175000Y-47825000D01*
X60825000Y-47825000D02*
X60175000Y-47825000D01*
D13*
X100780000Y-52370000D02*
X94760000Y-52370000D01*
X94760000Y-52370000D02*
X94760000Y-60210000D01*
X94760000Y-60210000D02*
X100780000Y-60210000D01*
X100780000Y-60210000D02*
X100780000Y-52370000D01*
X99750000Y-52080000D02*
X95750000Y-52080000D01*
X94760000Y-53750000D02*
X95760000Y-53750000D01*
X95760000Y-53750000D02*
X95760000Y-58830000D01*
X95760000Y-58830000D02*
X94760000Y-58830000D01*
X95760000Y-53750000D02*
X96290000Y-54000000D01*
X96290000Y-54000000D02*
X96290000Y-58580000D01*
X96290000Y-58580000D02*
X95760000Y-58830000D01*
X94760000Y-54000000D02*
X95760000Y-54000000D01*
X94760000Y-58580000D02*
X95760000Y-58580000D01*
X100780000Y-52950000D02*
X100180000Y-52950000D01*
X100180000Y-52950000D02*
X100180000Y-54550000D01*
X100180000Y-54550000D02*
X100780000Y-54550000D01*
X100780000Y-55490000D02*
X100180000Y-55490000D01*
X100180000Y-55490000D02*
X100180000Y-57090000D01*
X100180000Y-57090000D02*
X100780000Y-57090000D01*
X100780000Y-58030000D02*
X100180000Y-58030000D01*
X100180000Y-58030000D02*
X100180000Y-59630000D01*
X100180000Y-59630000D02*
X100780000Y-59630000D01*
X100180000Y-74090000D02*
X100780000Y-74090000D01*
X100180000Y-72490000D02*
X100180000Y-74090000D01*
X100780000Y-72490000D02*
X100180000Y-72490000D01*
X100180000Y-71550000D02*
X100780000Y-71550000D01*
X100180000Y-69950000D02*
X100180000Y-71550000D01*
X100780000Y-69950000D02*
X100180000Y-69950000D01*
X100180000Y-69010000D02*
X100780000Y-69010000D01*
X100180000Y-67410000D02*
X100180000Y-69010000D01*
X100780000Y-67410000D02*
X100180000Y-67410000D01*
X94760000Y-73040000D02*
X95760000Y-73040000D01*
X94760000Y-68460000D02*
X95760000Y-68460000D01*
X96290000Y-73040000D02*
X95760000Y-73290000D01*
X96290000Y-68460000D02*
X96290000Y-73040000D01*
X95760000Y-68210000D02*
X96290000Y-68460000D01*
X95760000Y-73290000D02*
X94760000Y-73290000D01*
X95760000Y-68210000D02*
X95760000Y-73290000D01*
X94760000Y-68210000D02*
X95760000Y-68210000D01*
X99750000Y-66540000D02*
X95750000Y-66540000D01*
X100780000Y-74670000D02*
X100780000Y-66830000D01*
X94760000Y-74670000D02*
X100780000Y-74670000D01*
X94760000Y-66830000D02*
X94760000Y-74670000D01*
X100780000Y-66830000D02*
X94760000Y-66830000D01*
X83030000Y-69120000D02*
X77010000Y-69120000D01*
X77010000Y-69120000D02*
X77010000Y-74420000D01*
X77010000Y-74420000D02*
X83030000Y-74420000D01*
X83030000Y-74420000D02*
X83030000Y-69120000D01*
X82000000Y-68830000D02*
X78000000Y-68830000D01*
X77010000Y-70500000D02*
X78010000Y-70500000D01*
X78010000Y-70500000D02*
X78010000Y-73040000D01*
X78010000Y-73040000D02*
X77010000Y-73040000D01*
X78010000Y-70500000D02*
X78540000Y-70750000D01*
X78540000Y-70750000D02*
X78540000Y-72790000D01*
X78540000Y-72790000D02*
X78010000Y-73040000D01*
X77010000Y-70750000D02*
X78010000Y-70750000D01*
X77010000Y-72790000D02*
X78010000Y-72790000D01*
X83030000Y-69700000D02*
X82430000Y-69700000D01*
X82430000Y-69700000D02*
X82430000Y-71300000D01*
X82430000Y-71300000D02*
X83030000Y-71300000D01*
X83030000Y-72240000D02*
X82430000Y-72240000D01*
X82430000Y-72240000D02*
X82430000Y-73840000D01*
X82430000Y-73840000D02*
X83030000Y-73840000D01*
X104630000Y-142070000D02*
X104630000Y-141470000D01*
X103030000Y-142070000D02*
X104630000Y-142070000D01*
X103030000Y-141470000D02*
X103030000Y-142070000D01*
X102090000Y-142070000D02*
X102090000Y-141470000D01*
X100490000Y-142070000D02*
X102090000Y-142070000D01*
X100490000Y-141470000D02*
X100490000Y-142070000D01*
X99550000Y-142070000D02*
X99550000Y-141470000D01*
X97950000Y-142070000D02*
X99550000Y-142070000D01*
X97950000Y-141470000D02*
X97950000Y-142070000D01*
X103580000Y-147490000D02*
X103580000Y-146490000D01*
X99000000Y-147490000D02*
X99000000Y-146490000D01*
X103580000Y-145960000D02*
X103830000Y-146490000D01*
X99000000Y-145960000D02*
X103580000Y-145960000D01*
X98750000Y-146490000D02*
X99000000Y-145960000D01*
X103830000Y-146490000D02*
X103830000Y-147490000D01*
X98750000Y-146490000D02*
X103830000Y-146490000D01*
X98750000Y-147490000D02*
X98750000Y-146490000D01*
X97080000Y-142500000D02*
X97080000Y-146500000D01*
X105210000Y-141470000D02*
X97370000Y-141470000D01*
X105210000Y-147490000D02*
X105210000Y-141470000D01*
X97370000Y-147490000D02*
X105210000Y-147490000D01*
X97370000Y-141470000D02*
X97370000Y-147490000D01*
D14*
X90675000Y-57875000D02*
X91325000Y-57875000D01*
X90675000Y-58125000D02*
X90675000Y-57875000D01*
X91325000Y-58125000D02*
X90675000Y-58125000D01*
X91325000Y-57875000D02*
X91325000Y-58125000D01*
X90675000Y-69125000D02*
X90675000Y-68875000D01*
X90675000Y-68875000D02*
X91325000Y-68875000D01*
X91325000Y-68875000D02*
X91325000Y-69125000D01*
X91325000Y-69125000D02*
X90675000Y-69125000D01*
X107375000Y-56575000D02*
X107375000Y-55925000D01*
X107625000Y-56575000D02*
X107375000Y-56575000D01*
X107625000Y-55925000D02*
X107625000Y-56575000D01*
X107375000Y-55925000D02*
X107625000Y-55925000D01*
X107375000Y-71075000D02*
X107375000Y-70425000D01*
X107625000Y-71075000D02*
X107375000Y-71075000D01*
X107625000Y-70425000D02*
X107625000Y-71075000D01*
X107375000Y-70425000D02*
X107625000Y-70425000D01*
X110625000Y-113175000D02*
X110625000Y-113825000D01*
X110375000Y-113175000D02*
X110625000Y-113175000D01*
X110375000Y-113825000D02*
X110375000Y-113175000D01*
X110625000Y-113825000D02*
X110375000Y-113825000D01*
X85465888Y-84517609D02*
X85215888Y-84517609D01*
X85215888Y-84517609D02*
X85215888Y-83867609D01*
X85215888Y-83867609D02*
X85465888Y-83867609D01*
X85465888Y-83867609D02*
X85465888Y-84517609D01*
X110625000Y-83925000D02*
X110625000Y-84575000D01*
X110375000Y-83925000D02*
X110625000Y-83925000D01*
X110375000Y-84575000D02*
X110375000Y-83925000D01*
X110625000Y-84575000D02*
X110375000Y-84575000D01*
X85875000Y-113825000D02*
X85625000Y-113825000D01*
X85625000Y-113825000D02*
X85625000Y-113175000D01*
X85625000Y-113175000D02*
X85875000Y-113175000D01*
X85875000Y-113175000D02*
X85875000Y-113825000D01*
X60175000Y-52625000D02*
X60825000Y-52625000D01*
X60175000Y-52875000D02*
X60175000Y-52625000D01*
X60825000Y-52875000D02*
X60175000Y-52875000D01*
X60825000Y-52625000D02*
X60825000Y-52875000D01*
X68075000Y-54875000D02*
X68075000Y-55125000D01*
X68075000Y-55125000D02*
X67425000Y-55125000D01*
X67425000Y-55125000D02*
X67425000Y-54875000D01*
X67425000Y-54875000D02*
X68075000Y-54875000D01*
X65825000Y-54875000D02*
X65825000Y-55125000D01*
X65825000Y-55125000D02*
X65175000Y-55125000D01*
X65175000Y-55125000D02*
X65175000Y-54875000D01*
X65175000Y-54875000D02*
X65825000Y-54875000D01*
X72325000Y-81375000D02*
X72325000Y-81625000D01*
X72325000Y-81625000D02*
X71675000Y-81625000D01*
X71675000Y-81625000D02*
X71675000Y-81375000D01*
X71675000Y-81375000D02*
X72325000Y-81375000D01*
D13*
X69690000Y-49290000D02*
X81310000Y-49290000D01*
X69690000Y-59210000D02*
X81310000Y-59210000D01*
X69690000Y-49290000D02*
X69690000Y-53500000D01*
X69690000Y-55000000D02*
X69690000Y-59210000D01*
X81310000Y-49290000D02*
X81310000Y-53500000D01*
X81310000Y-55000000D02*
X81310000Y-59210000D01*
X82750000Y-51750000D02*
X84750000Y-51750000D01*
X84750000Y-51750000D02*
X84750000Y-47850000D01*
X82750000Y-51750000D02*
X82750000Y-47850000D01*
D14*
X84075000Y-54125000D02*
X84075000Y-54375000D01*
X84075000Y-54375000D02*
X83425000Y-54375000D01*
X83425000Y-54375000D02*
X83425000Y-54125000D01*
X83425000Y-54125000D02*
X84075000Y-54125000D01*
D13*
X84870000Y-29220000D02*
X84870000Y-35240000D01*
X84870000Y-35240000D02*
X90170000Y-35240000D01*
X90170000Y-35240000D02*
X90170000Y-29220000D01*
X90170000Y-29220000D02*
X84870000Y-29220000D01*
X84580000Y-30250000D02*
X84580000Y-34250000D01*
X86250000Y-35240000D02*
X86250000Y-34240000D01*
X86250000Y-34240000D02*
X88790000Y-34240000D01*
X88790000Y-34240000D02*
X88790000Y-35240000D01*
X86250000Y-34240000D02*
X86500000Y-33710000D01*
X86500000Y-33710000D02*
X88540000Y-33710000D01*
X88540000Y-33710000D02*
X88790000Y-34240000D01*
X86500000Y-35240000D02*
X86500000Y-34240000D01*
X88540000Y-35240000D02*
X88540000Y-34240000D01*
X85450000Y-29220000D02*
X85450000Y-29820000D01*
X85450000Y-29820000D02*
X87050000Y-29820000D01*
X87050000Y-29820000D02*
X87050000Y-29220000D01*
X87990000Y-29220000D02*
X87990000Y-29820000D01*
X87990000Y-29820000D02*
X89590000Y-29820000D01*
X89590000Y-29820000D02*
X89590000Y-29220000D01*
X99580000Y-39470000D02*
X99580000Y-45490000D01*
X99580000Y-45490000D02*
X107420000Y-45490000D01*
X107420000Y-45490000D02*
X107420000Y-39470000D01*
X107420000Y-39470000D02*
X99580000Y-39470000D01*
X99290000Y-40500000D02*
X99290000Y-44500000D01*
X100960000Y-45490000D02*
X100960000Y-44490000D01*
X100960000Y-44490000D02*
X106040000Y-44490000D01*
X106040000Y-44490000D02*
X106040000Y-45490000D01*
X100960000Y-44490000D02*
X101210000Y-43960000D01*
X101210000Y-43960000D02*
X105790000Y-43960000D01*
X105790000Y-43960000D02*
X106040000Y-44490000D01*
X101210000Y-45490000D02*
X101210000Y-44490000D01*
X105790000Y-45490000D02*
X105790000Y-44490000D01*
X100160000Y-39470000D02*
X100160000Y-40070000D01*
X100160000Y-40070000D02*
X101760000Y-40070000D01*
X101760000Y-40070000D02*
X101760000Y-39470000D01*
X102700000Y-39470000D02*
X102700000Y-40070000D01*
X102700000Y-40070000D02*
X104300000Y-40070000D01*
X104300000Y-40070000D02*
X104300000Y-39470000D01*
X105240000Y-39470000D02*
X105240000Y-40070000D01*
X105240000Y-40070000D02*
X106840000Y-40070000D01*
X106840000Y-40070000D02*
X106840000Y-39470000D01*
X123130000Y-40070000D02*
X123130000Y-39470000D01*
X121530000Y-40070000D02*
X123130000Y-40070000D01*
X121530000Y-39470000D02*
X121530000Y-40070000D01*
X120590000Y-40070000D02*
X120590000Y-39470000D01*
X118990000Y-40070000D02*
X120590000Y-40070000D01*
X118990000Y-39470000D02*
X118990000Y-40070000D01*
X118050000Y-40070000D02*
X118050000Y-39470000D01*
X116450000Y-40070000D02*
X118050000Y-40070000D01*
X116450000Y-39470000D02*
X116450000Y-40070000D01*
X122080000Y-45490000D02*
X122080000Y-44490000D01*
X117500000Y-45490000D02*
X117500000Y-44490000D01*
X122080000Y-43960000D02*
X122330000Y-44490000D01*
X117500000Y-43960000D02*
X122080000Y-43960000D01*
X117250000Y-44490000D02*
X117500000Y-43960000D01*
X122330000Y-44490000D02*
X122330000Y-45490000D01*
X117250000Y-44490000D02*
X122330000Y-44490000D01*
X117250000Y-45490000D02*
X117250000Y-44490000D01*
X115580000Y-40500000D02*
X115580000Y-44500000D01*
X123710000Y-39470000D02*
X115870000Y-39470000D01*
X123710000Y-45490000D02*
X123710000Y-39470000D01*
X115870000Y-45490000D02*
X123710000Y-45490000D01*
X115870000Y-39470000D02*
X115870000Y-45490000D01*
X113120000Y-141470000D02*
X113120000Y-147490000D01*
X113120000Y-147490000D02*
X118420000Y-147490000D01*
X118420000Y-147490000D02*
X118420000Y-141470000D01*
X118420000Y-141470000D02*
X113120000Y-141470000D01*
X112830000Y-142500000D02*
X112830000Y-146500000D01*
X114500000Y-147490000D02*
X114500000Y-146490000D01*
X114500000Y-146490000D02*
X117040000Y-146490000D01*
X117040000Y-146490000D02*
X117040000Y-147490000D01*
X114500000Y-146490000D02*
X114750000Y-145960000D01*
X114750000Y-145960000D02*
X116790000Y-145960000D01*
X116790000Y-145960000D02*
X117040000Y-146490000D01*
X114750000Y-147490000D02*
X114750000Y-146490000D01*
X116790000Y-147490000D02*
X116790000Y-146490000D01*
X113700000Y-141470000D02*
X113700000Y-142070000D01*
X113700000Y-142070000D02*
X115300000Y-142070000D01*
X115300000Y-142070000D02*
X115300000Y-141470000D01*
X116240000Y-141470000D02*
X116240000Y-142070000D01*
X116240000Y-142070000D02*
X117840000Y-142070000D01*
X117840000Y-142070000D02*
X117840000Y-141470000D01*
X66370000Y-141470000D02*
X66370000Y-147490000D01*
X66370000Y-147490000D02*
X71670000Y-147490000D01*
X71670000Y-147490000D02*
X71670000Y-141470000D01*
X71670000Y-141470000D02*
X66370000Y-141470000D01*
X66080000Y-142500000D02*
X66080000Y-146500000D01*
X67750000Y-147490000D02*
X67750000Y-146490000D01*
X67750000Y-146490000D02*
X70290000Y-146490000D01*
X70290000Y-146490000D02*
X70290000Y-147490000D01*
X67750000Y-146490000D02*
X68000000Y-145960000D01*
X68000000Y-145960000D02*
X70040000Y-145960000D01*
X70040000Y-145960000D02*
X70290000Y-146490000D01*
X68000000Y-147490000D02*
X68000000Y-146490000D01*
X70040000Y-147490000D02*
X70040000Y-146490000D01*
X66950000Y-141470000D02*
X66950000Y-142070000D01*
X66950000Y-142070000D02*
X68550000Y-142070000D01*
X68550000Y-142070000D02*
X68550000Y-141470000D01*
X69490000Y-141470000D02*
X69490000Y-142070000D01*
X69490000Y-142070000D02*
X71090000Y-142070000D01*
X71090000Y-142070000D02*
X71090000Y-141470000D01*
D14*
X102875000Y-109425000D02*
X102875000Y-110075000D01*
X102625000Y-109750000D02*
X102875000Y-110075000D01*
X102625000Y-109750000D02*
X102875000Y-109425000D01*
X77375000Y-80750000D02*
X77625000Y-80425000D01*
X77375000Y-80750000D02*
X77625000Y-81075000D01*
X77625000Y-80425000D02*
X77625000Y-81075000D01*
X102375000Y-80500000D02*
X102625000Y-80175000D01*
X102375000Y-80500000D02*
X102625000Y-80825000D01*
X102625000Y-80175000D02*
X102625000Y-80825000D01*
X77625000Y-109425000D02*
X77625000Y-110075000D01*
X77375000Y-109750000D02*
X77625000Y-110075000D01*
X77375000Y-109750000D02*
X77625000Y-109425000D01*
X106375000Y-109425000D02*
X106625000Y-109425000D01*
X106625000Y-109425000D02*
X106625000Y-110075000D01*
X106625000Y-110075000D02*
X106375000Y-110075000D01*
X106375000Y-110075000D02*
X106375000Y-109425000D01*
X81625000Y-81075000D02*
X81625000Y-80425000D01*
X81875000Y-81075000D02*
X81625000Y-81075000D01*
X81875000Y-80425000D02*
X81875000Y-81075000D01*
X81625000Y-80425000D02*
X81875000Y-80425000D01*
X106875000Y-80825000D02*
X106875000Y-80175000D01*
X107125000Y-80825000D02*
X106875000Y-80825000D01*
X107125000Y-80175000D02*
X107125000Y-80825000D01*
X106875000Y-80175000D02*
X107125000Y-80175000D01*
X83075000Y-109425000D02*
X83325000Y-109425000D01*
X83325000Y-109425000D02*
X83325000Y-110075000D01*
X83325000Y-110075000D02*
X83075000Y-110075000D01*
X83075000Y-110075000D02*
X83075000Y-109425000D01*
X79925000Y-44375000D02*
X79925000Y-44125000D01*
X79925000Y-44125000D02*
X80575000Y-44125000D01*
X80575000Y-44125000D02*
X80575000Y-44375000D01*
X80575000Y-44375000D02*
X79925000Y-44375000D01*
X102375000Y-56575000D02*
X102375000Y-55925000D01*
X102625000Y-56575000D02*
X102375000Y-56575000D01*
X102625000Y-55925000D02*
X102625000Y-56575000D01*
X102375000Y-55925000D02*
X102625000Y-55925000D01*
X93325000Y-54375000D02*
X93325000Y-54625000D01*
X93325000Y-54625000D02*
X92675000Y-54625000D01*
X92675000Y-54625000D02*
X92675000Y-54375000D01*
X92675000Y-54375000D02*
X93325000Y-54375000D01*
X93325000Y-68875000D02*
X93325000Y-69125000D01*
X93325000Y-69125000D02*
X92675000Y-69125000D01*
X92675000Y-69125000D02*
X92675000Y-68875000D01*
X92675000Y-68875000D02*
X93325000Y-68875000D01*
X102375000Y-71075000D02*
X102375000Y-70425000D01*
X102625000Y-71075000D02*
X102375000Y-71075000D01*
X102625000Y-70425000D02*
X102625000Y-71075000D01*
X102375000Y-70425000D02*
X102625000Y-70425000D01*
X89166666Y-146202380D02*
X89166666Y-146916666D01*
X89119047Y-147059523D01*
X89023809Y-147154761D01*
X88880952Y-147202380D01*
X88785714Y-147202380D01*
X90071428Y-146202380D02*
X89880952Y-146202380D01*
X89785714Y-146250000D01*
X89738095Y-146297619D01*
X89642857Y-146440476D01*
X89595238Y-146630952D01*
X89595238Y-147011904D01*
X89642857Y-147107142D01*
X89690476Y-147154761D01*
X89785714Y-147202380D01*
X89976190Y-147202380D01*
X90071428Y-147154761D01*
X90119047Y-147107142D01*
X90166666Y-147011904D01*
X90166666Y-146773809D01*
X90119047Y-146678571D01*
X90071428Y-146630952D01*
X89976190Y-146583333D01*
X89785714Y-146583333D01*
X89690476Y-146630952D01*
X89642857Y-146678571D01*
X89595238Y-146773809D01*
X110357142Y-54666666D02*
X110404761Y-54714285D01*
X110452380Y-54857142D01*
X110452380Y-54952380D01*
X110404761Y-55095238D01*
X110309523Y-55190476D01*
X110214285Y-55238095D01*
X110023809Y-55285714D01*
X109880952Y-55285714D01*
X109690476Y-55238095D01*
X109595238Y-55190476D01*
X109500000Y-55095238D01*
X109452380Y-54952380D01*
X109452380Y-54857142D01*
X109500000Y-54714285D01*
X109547619Y-54666666D01*
X109452380Y-53761904D02*
X109452380Y-54238095D01*
X109928571Y-54285714D01*
X109880952Y-54238095D01*
X109833333Y-54142857D01*
X109833333Y-53904761D01*
X109880952Y-53809523D01*
X109928571Y-53761904D01*
X110023809Y-53714285D01*
X110261904Y-53714285D01*
X110357142Y-53761904D01*
X110404761Y-53809523D01*
X110452380Y-53904761D01*
X110452380Y-54142857D01*
X110404761Y-54238095D01*
X110357142Y-54285714D01*
X89702380Y-137238095D02*
X88702380Y-137238095D01*
X89702380Y-136666666D02*
X89130952Y-137095238D01*
X88702380Y-136666666D02*
X89273809Y-137238095D01*
X89702380Y-135714285D02*
X89702380Y-136285714D01*
X89702380Y-136000000D02*
X88702380Y-136000000D01*
X88845238Y-136095238D01*
X88940476Y-136190476D01*
X88988095Y-136285714D01*
X89952380Y-107988095D02*
X88952380Y-107988095D01*
X89952380Y-107416666D02*
X89380952Y-107845238D01*
X88952380Y-107416666D02*
X89523809Y-107988095D01*
X89047619Y-107035714D02*
X89000000Y-106988095D01*
X88952380Y-106892857D01*
X88952380Y-106654761D01*
X89000000Y-106559523D01*
X89047619Y-106511904D01*
X89142857Y-106464285D01*
X89238095Y-106464285D01*
X89380952Y-106511904D01*
X89952380Y-107083333D01*
X89952380Y-106464285D01*
X115452380Y-107738095D02*
X114452380Y-107738095D01*
X115452380Y-107166666D02*
X114880952Y-107595238D01*
X114452380Y-107166666D02*
X115023809Y-107738095D01*
X114452380Y-106833333D02*
X114452380Y-106214285D01*
X114833333Y-106547619D01*
X114833333Y-106404761D01*
X114880952Y-106309523D01*
X114928571Y-106261904D01*
X115023809Y-106214285D01*
X115261904Y-106214285D01*
X115357142Y-106261904D01*
X115404761Y-106309523D01*
X115452380Y-106404761D01*
X115452380Y-106690476D01*
X115404761Y-106785714D01*
X115357142Y-106833333D01*
X115202380Y-136988095D02*
X114202380Y-136988095D01*
X115202380Y-136416666D02*
X114630952Y-136845238D01*
X114202380Y-136416666D02*
X114773809Y-136988095D01*
X114535714Y-135559523D02*
X115202380Y-135559523D01*
X114154761Y-135797619D02*
X114869047Y-136035714D01*
X114869047Y-135416666D01*
X76852792Y-82702380D02*
X76852792Y-81702380D01*
X77090888Y-81702380D01*
X77233745Y-81750000D01*
X77328983Y-81845238D01*
X77376602Y-81940476D01*
X77424221Y-82130952D01*
X77424221Y-82273809D01*
X77376602Y-82464285D01*
X77328983Y-82559523D01*
X77233745Y-82654761D01*
X77090888Y-82702380D01*
X76852792Y-82702380D01*
X78376602Y-82702380D02*
X77805173Y-82702380D01*
X78090888Y-82702380D02*
X78090888Y-81702380D01*
X77995649Y-81845238D01*
X77900411Y-81940476D01*
X77805173Y-81988095D01*
X101511904Y-82452380D02*
X101511904Y-81452380D01*
X101750000Y-81452380D01*
X101892857Y-81500000D01*
X101988095Y-81595238D01*
X102035714Y-81690476D01*
X102083333Y-81880952D01*
X102083333Y-82023809D01*
X102035714Y-82214285D01*
X101988095Y-82309523D01*
X101892857Y-82404761D01*
X101750000Y-82452380D01*
X101511904Y-82452380D01*
X102464285Y-81547619D02*
X102511904Y-81500000D01*
X102607142Y-81452380D01*
X102845238Y-81452380D01*
X102940476Y-81500000D01*
X102988095Y-81547619D01*
X103035714Y-81642857D01*
X103035714Y-81738095D01*
X102988095Y-81880952D01*
X102416666Y-82452380D01*
X103035714Y-82452380D01*
X76261904Y-111702380D02*
X76261904Y-110702380D01*
X76500000Y-110702380D01*
X76642857Y-110750000D01*
X76738095Y-110845238D01*
X76785714Y-110940476D01*
X76833333Y-111130952D01*
X76833333Y-111273809D01*
X76785714Y-111464285D01*
X76738095Y-111559523D01*
X76642857Y-111654761D01*
X76500000Y-111702380D01*
X76261904Y-111702380D01*
X77166666Y-110702380D02*
X77785714Y-110702380D01*
X77452380Y-111083333D01*
X77595238Y-111083333D01*
X77690476Y-111130952D01*
X77738095Y-111178571D01*
X77785714Y-111273809D01*
X77785714Y-111511904D01*
X77738095Y-111607142D01*
X77690476Y-111654761D01*
X77595238Y-111702380D01*
X77309523Y-111702380D01*
X77214285Y-111654761D01*
X77166666Y-111607142D01*
X101761904Y-111702380D02*
X101761904Y-110702380D01*
X102000000Y-110702380D01*
X102142857Y-110750000D01*
X102238095Y-110845238D01*
X102285714Y-110940476D01*
X102333333Y-111130952D01*
X102333333Y-111273809D01*
X102285714Y-111464285D01*
X102238095Y-111559523D01*
X102142857Y-111654761D01*
X102000000Y-111702380D01*
X101761904Y-111702380D01*
X103190476Y-111035714D02*
X103190476Y-111702380D01*
X102952380Y-110654761D02*
X102714285Y-111369047D01*
X103333333Y-111369047D01*
X102166666Y-33952380D02*
X102166666Y-34666666D01*
X102119047Y-34809523D01*
X102023809Y-34904761D01*
X101880952Y-34952380D01*
X101785714Y-34952380D01*
X102547619Y-33952380D02*
X103166666Y-33952380D01*
X102833333Y-34333333D01*
X102976190Y-34333333D01*
X103071428Y-34380952D01*
X103119047Y-34428571D01*
X103166666Y-34523809D01*
X103166666Y-34761904D01*
X103119047Y-34857142D01*
X103071428Y-34904761D01*
X102976190Y-34952380D01*
X102690476Y-34952380D01*
X102595238Y-34904761D01*
X102547619Y-34857142D01*
X109404761Y-112297619D02*
X109309523Y-112250000D01*
X109214285Y-112154761D01*
X109071428Y-112011904D01*
X108976190Y-111964285D01*
X108880952Y-111964285D01*
X108928571Y-112202380D02*
X108833333Y-112154761D01*
X108738095Y-112059523D01*
X108690476Y-111869047D01*
X108690476Y-111535714D01*
X108738095Y-111345238D01*
X108833333Y-111250000D01*
X108928571Y-111202380D01*
X109119047Y-111202380D01*
X109214285Y-111250000D01*
X109309523Y-111345238D01*
X109357142Y-111535714D01*
X109357142Y-111869047D01*
X109309523Y-112059523D01*
X109214285Y-112154761D01*
X109119047Y-112202380D01*
X108928571Y-112202380D01*
X110309523Y-112202380D02*
X109738095Y-112202380D01*
X110023809Y-112202380D02*
X110023809Y-111202380D01*
X109928571Y-111345238D01*
X109833333Y-111440476D01*
X109738095Y-111488095D01*
X84404761Y-83047619D02*
X84309523Y-83000000D01*
X84214285Y-82904761D01*
X84071428Y-82761904D01*
X83976190Y-82714285D01*
X83880952Y-82714285D01*
X83928571Y-82952380D02*
X83833333Y-82904761D01*
X83738095Y-82809523D01*
X83690476Y-82619047D01*
X83690476Y-82285714D01*
X83738095Y-82095238D01*
X83833333Y-82000000D01*
X83928571Y-81952380D01*
X84119047Y-81952380D01*
X84214285Y-82000000D01*
X84309523Y-82095238D01*
X84357142Y-82285714D01*
X84357142Y-82619047D01*
X84309523Y-82809523D01*
X84214285Y-82904761D01*
X84119047Y-82952380D01*
X83928571Y-82952380D01*
X84738095Y-82047619D02*
X84785714Y-82000000D01*
X84880952Y-81952380D01*
X85119047Y-81952380D01*
X85214285Y-82000000D01*
X85261904Y-82047619D01*
X85309523Y-82142857D01*
X85309523Y-82238095D01*
X85261904Y-82380952D01*
X84690476Y-82952380D01*
X85309523Y-82952380D01*
X109154761Y-82797619D02*
X109059523Y-82750000D01*
X108964285Y-82654761D01*
X108821428Y-82511904D01*
X108726190Y-82464285D01*
X108630952Y-82464285D01*
X108678571Y-82702380D02*
X108583333Y-82654761D01*
X108488095Y-82559523D01*
X108440476Y-82369047D01*
X108440476Y-82035714D01*
X108488095Y-81845238D01*
X108583333Y-81750000D01*
X108678571Y-81702380D01*
X108869047Y-81702380D01*
X108964285Y-81750000D01*
X109059523Y-81845238D01*
X109107142Y-82035714D01*
X109107142Y-82369047D01*
X109059523Y-82559523D01*
X108964285Y-82654761D01*
X108869047Y-82702380D01*
X108678571Y-82702380D01*
X109440476Y-81702380D02*
X110059523Y-81702380D01*
X109726190Y-82083333D01*
X109869047Y-82083333D01*
X109964285Y-82130952D01*
X110011904Y-82178571D01*
X110059523Y-82273809D01*
X110059523Y-82511904D01*
X110011904Y-82607142D01*
X109964285Y-82654761D01*
X109869047Y-82702380D01*
X109583333Y-82702380D01*
X109488095Y-82654761D01*
X109440476Y-82607142D01*
X84154761Y-112547619D02*
X84059523Y-112500000D01*
X83964285Y-112404761D01*
X83821428Y-112261904D01*
X83726190Y-112214285D01*
X83630952Y-112214285D01*
X83678571Y-112452380D02*
X83583333Y-112404761D01*
X83488095Y-112309523D01*
X83440476Y-112119047D01*
X83440476Y-111785714D01*
X83488095Y-111595238D01*
X83583333Y-111500000D01*
X83678571Y-111452380D01*
X83869047Y-111452380D01*
X83964285Y-111500000D01*
X84059523Y-111595238D01*
X84107142Y-111785714D01*
X84107142Y-112119047D01*
X84059523Y-112309523D01*
X83964285Y-112404761D01*
X83869047Y-112452380D01*
X83678571Y-112452380D01*
X84964285Y-111785714D02*
X84964285Y-112452380D01*
X84726190Y-111404761D02*
X84488095Y-112119047D01*
X85107142Y-112119047D01*
X64702380Y-43226190D02*
X63702380Y-43226190D01*
X64607142Y-42178571D02*
X64654761Y-42226190D01*
X64702380Y-42369047D01*
X64702380Y-42464285D01*
X64654761Y-42607142D01*
X64559523Y-42702380D01*
X64464285Y-42750000D01*
X64273809Y-42797619D01*
X64130952Y-42797619D01*
X63940476Y-42750000D01*
X63845238Y-42702380D01*
X63750000Y-42607142D01*
X63702380Y-42464285D01*
X63702380Y-42369047D01*
X63750000Y-42226190D01*
X63797619Y-42178571D01*
X64702380Y-41226190D02*
X64702380Y-41797619D01*
X64702380Y-41511904D02*
X63702380Y-41511904D01*
X63845238Y-41607142D01*
X63940476Y-41702380D01*
X63988095Y-41797619D01*
X80452380Y-33238095D02*
X79452380Y-33238095D01*
X79452380Y-32857142D01*
X79500000Y-32761904D01*
X79547619Y-32714285D01*
X79642857Y-32666666D01*
X79785714Y-32666666D01*
X79880952Y-32714285D01*
X79928571Y-32761904D01*
X79976190Y-32857142D01*
X79976190Y-33238095D01*
X80452380Y-31714285D02*
X80452380Y-32285714D01*
X80452380Y-32000000D02*
X79452380Y-32000000D01*
X79595238Y-32095238D01*
X79690476Y-32190476D01*
X79738095Y-32285714D01*
X86488095Y-46202380D02*
X86488095Y-47011904D01*
X86535714Y-47107142D01*
X86583333Y-47154761D01*
X86678571Y-47202380D01*
X86869047Y-47202380D01*
X86964285Y-47154761D01*
X87011904Y-47107142D01*
X87059523Y-47011904D01*
X87059523Y-46202380D01*
X87488095Y-46297619D02*
X87535714Y-46250000D01*
X87630952Y-46202380D01*
X87869047Y-46202380D01*
X87964285Y-46250000D01*
X88011904Y-46297619D01*
X88059523Y-46392857D01*
X88059523Y-46488095D01*
X88011904Y-46630952D01*
X87440476Y-47202380D01*
X88059523Y-47202380D01*
X93357142Y-60666666D02*
X93404761Y-60714285D01*
X93452380Y-60857142D01*
X93452380Y-60952380D01*
X93404761Y-61095238D01*
X93309523Y-61190476D01*
X93214285Y-61238095D01*
X93023809Y-61285714D01*
X92880952Y-61285714D01*
X92690476Y-61238095D01*
X92595238Y-61190476D01*
X92500000Y-61095238D01*
X92452380Y-60952380D01*
X92452380Y-60857142D01*
X92500000Y-60714285D01*
X92547619Y-60666666D01*
X93452380Y-59714285D02*
X93452380Y-60285714D01*
X93452380Y-60000000D02*
X92452380Y-60000000D01*
X92595238Y-60095238D01*
X92690476Y-60190476D01*
X92738095Y-60285714D01*
X93357142Y-75166666D02*
X93404761Y-75214285D01*
X93452380Y-75357142D01*
X93452380Y-75452380D01*
X93404761Y-75595238D01*
X93309523Y-75690476D01*
X93214285Y-75738095D01*
X93023809Y-75785714D01*
X92880952Y-75785714D01*
X92690476Y-75738095D01*
X92595238Y-75690476D01*
X92500000Y-75595238D01*
X92452380Y-75452380D01*
X92452380Y-75357142D01*
X92500000Y-75214285D01*
X92547619Y-75166666D01*
X92547619Y-74785714D02*
X92500000Y-74738095D01*
X92452380Y-74642857D01*
X92452380Y-74404761D01*
X92500000Y-74309523D01*
X92547619Y-74261904D01*
X92642857Y-74214285D01*
X92738095Y-74214285D01*
X92880952Y-74261904D01*
X93452380Y-74833333D01*
X93452380Y-74214285D01*
X105357142Y-54666666D02*
X105404761Y-54714285D01*
X105452380Y-54857142D01*
X105452380Y-54952380D01*
X105404761Y-55095238D01*
X105309523Y-55190476D01*
X105214285Y-55238095D01*
X105023809Y-55285714D01*
X104880952Y-55285714D01*
X104690476Y-55238095D01*
X104595238Y-55190476D01*
X104500000Y-55095238D01*
X104452380Y-54952380D01*
X104452380Y-54857142D01*
X104500000Y-54714285D01*
X104547619Y-54666666D01*
X104452380Y-54333333D02*
X104452380Y-53714285D01*
X104833333Y-54047619D01*
X104833333Y-53904761D01*
X104880952Y-53809523D01*
X104928571Y-53761904D01*
X105023809Y-53714285D01*
X105261904Y-53714285D01*
X105357142Y-53761904D01*
X105404761Y-53809523D01*
X105452380Y-53904761D01*
X105452380Y-54190476D01*
X105404761Y-54285714D01*
X105357142Y-54333333D01*
X105357142Y-69166666D02*
X105404761Y-69214285D01*
X105452380Y-69357142D01*
X105452380Y-69452380D01*
X105404761Y-69595238D01*
X105309523Y-69690476D01*
X105214285Y-69738095D01*
X105023809Y-69785714D01*
X104880952Y-69785714D01*
X104690476Y-69738095D01*
X104595238Y-69690476D01*
X104500000Y-69595238D01*
X104452380Y-69452380D01*
X104452380Y-69357142D01*
X104500000Y-69214285D01*
X104547619Y-69166666D01*
X104785714Y-68309523D02*
X105452380Y-68309523D01*
X104404761Y-68547619D02*
X105119047Y-68785714D01*
X105119047Y-68166666D01*
X110357142Y-69166666D02*
X110404761Y-69214285D01*
X110452380Y-69357142D01*
X110452380Y-69452380D01*
X110404761Y-69595238D01*
X110309523Y-69690476D01*
X110214285Y-69738095D01*
X110023809Y-69785714D01*
X109880952Y-69785714D01*
X109690476Y-69738095D01*
X109595238Y-69690476D01*
X109500000Y-69595238D01*
X109452380Y-69452380D01*
X109452380Y-69357142D01*
X109500000Y-69214285D01*
X109547619Y-69166666D01*
X109452380Y-68309523D02*
X109452380Y-68500000D01*
X109500000Y-68595238D01*
X109547619Y-68642857D01*
X109690476Y-68738095D01*
X109880952Y-68785714D01*
X110261904Y-68785714D01*
X110357142Y-68738095D01*
X110404761Y-68690476D01*
X110452380Y-68595238D01*
X110452380Y-68404761D01*
X110404761Y-68309523D01*
X110357142Y-68261904D01*
X110261904Y-68214285D01*
X110023809Y-68214285D01*
X109928571Y-68261904D01*
X109880952Y-68309523D01*
X109833333Y-68404761D01*
X109833333Y-68595238D01*
X109880952Y-68690476D01*
X109928571Y-68738095D01*
X110023809Y-68785714D01*
X106833333Y-36607142D02*
X106785714Y-36654761D01*
X106642857Y-36702380D01*
X106547619Y-36702380D01*
X106404761Y-36654761D01*
X106309523Y-36559523D01*
X106261904Y-36464285D01*
X106214285Y-36273809D01*
X106214285Y-36130952D01*
X106261904Y-35940476D01*
X106309523Y-35845238D01*
X106404761Y-35750000D01*
X106547619Y-35702380D01*
X106642857Y-35702380D01*
X106785714Y-35750000D01*
X106833333Y-35797619D01*
X107166666Y-35702380D02*
X107833333Y-35702380D01*
X107404761Y-36702380D01*
X97607142Y-112666666D02*
X97654761Y-112714285D01*
X97702380Y-112857142D01*
X97702380Y-112952380D01*
X97654761Y-113095238D01*
X97559523Y-113190476D01*
X97464285Y-113238095D01*
X97273809Y-113285714D01*
X97130952Y-113285714D01*
X96940476Y-113238095D01*
X96845238Y-113190476D01*
X96750000Y-113095238D01*
X96702380Y-112952380D01*
X96702380Y-112857142D01*
X96750000Y-112714285D01*
X96797619Y-112666666D01*
X97130952Y-112095238D02*
X97083333Y-112190476D01*
X97035714Y-112238095D01*
X96940476Y-112285714D01*
X96892857Y-112285714D01*
X96797619Y-112238095D01*
X96750000Y-112190476D01*
X96702380Y-112095238D01*
X96702380Y-111904761D01*
X96750000Y-111809523D01*
X96797619Y-111761904D01*
X96892857Y-111714285D01*
X96940476Y-111714285D01*
X97035714Y-111761904D01*
X97083333Y-111809523D01*
X97130952Y-111904761D01*
X97130952Y-112095238D01*
X97178571Y-112190476D01*
X97226190Y-112238095D01*
X97321428Y-112285714D01*
X97511904Y-112285714D01*
X97607142Y-112238095D01*
X97654761Y-112190476D01*
X97702380Y-112095238D01*
X97702380Y-111904761D01*
X97654761Y-111809523D01*
X97607142Y-111761904D01*
X97511904Y-111714285D01*
X97321428Y-111714285D01*
X97226190Y-111761904D01*
X97178571Y-111809523D01*
X97130952Y-111904761D01*
X74448030Y-81166666D02*
X74495649Y-81214285D01*
X74543268Y-81357142D01*
X74543268Y-81452380D01*
X74495649Y-81595238D01*
X74400411Y-81690476D01*
X74305173Y-81738095D01*
X74114697Y-81785714D01*
X73971840Y-81785714D01*
X73781364Y-81738095D01*
X73686126Y-81690476D01*
X73590888Y-81595238D01*
X73543268Y-81452380D01*
X73543268Y-81357142D01*
X73590888Y-81214285D01*
X73638507Y-81166666D01*
X74543268Y-80690476D02*
X74543268Y-80500000D01*
X74495649Y-80404761D01*
X74448030Y-80357142D01*
X74305173Y-80261904D01*
X74114697Y-80214285D01*
X73733745Y-80214285D01*
X73638507Y-80261904D01*
X73590888Y-80309523D01*
X73543268Y-80404761D01*
X73543268Y-80595238D01*
X73590888Y-80690476D01*
X73638507Y-80738095D01*
X73733745Y-80785714D01*
X73971840Y-80785714D01*
X74067078Y-80738095D01*
X74114697Y-80690476D01*
X74162316Y-80595238D01*
X74162316Y-80404761D01*
X74114697Y-80309523D01*
X74067078Y-80261904D01*
X73971840Y-80214285D01*
X97357142Y-84142857D02*
X97404761Y-84190476D01*
X97452380Y-84333333D01*
X97452380Y-84428571D01*
X97404761Y-84571428D01*
X97309523Y-84666666D01*
X97214285Y-84714285D01*
X97023809Y-84761904D01*
X96880952Y-84761904D01*
X96690476Y-84714285D01*
X96595238Y-84666666D01*
X96500000Y-84571428D01*
X96452380Y-84428571D01*
X96452380Y-84333333D01*
X96500000Y-84190476D01*
X96547619Y-84142857D01*
X97452380Y-83190476D02*
X97452380Y-83761904D01*
X97452380Y-83476190D02*
X96452380Y-83476190D01*
X96595238Y-83571428D01*
X96690476Y-83666666D01*
X96738095Y-83761904D01*
X96452380Y-82571428D02*
X96452380Y-82476190D01*
X96500000Y-82380952D01*
X96547619Y-82333333D01*
X96642857Y-82285714D01*
X96833333Y-82238095D01*
X97071428Y-82238095D01*
X97261904Y-82285714D01*
X97357142Y-82333333D01*
X97404761Y-82380952D01*
X97452380Y-82476190D01*
X97452380Y-82571428D01*
X97404761Y-82666666D01*
X97357142Y-82714285D01*
X97261904Y-82761904D01*
X97071428Y-82809523D01*
X96833333Y-82809523D01*
X96642857Y-82761904D01*
X96547619Y-82714285D01*
X96500000Y-82666666D01*
X96452380Y-82571428D01*
X71857142Y-113142857D02*
X71904761Y-113190476D01*
X71952380Y-113333333D01*
X71952380Y-113428571D01*
X71904761Y-113571428D01*
X71809523Y-113666666D01*
X71714285Y-113714285D01*
X71523809Y-113761904D01*
X71380952Y-113761904D01*
X71190476Y-113714285D01*
X71095238Y-113666666D01*
X71000000Y-113571428D01*
X70952380Y-113428571D01*
X70952380Y-113333333D01*
X71000000Y-113190476D01*
X71047619Y-113142857D01*
X71952380Y-112190476D02*
X71952380Y-112761904D01*
X71952380Y-112476190D02*
X70952380Y-112476190D01*
X71095238Y-112571428D01*
X71190476Y-112666666D01*
X71238095Y-112761904D01*
X71952380Y-111238095D02*
X71952380Y-111809523D01*
X71952380Y-111523809D02*
X70952380Y-111523809D01*
X71095238Y-111619047D01*
X71190476Y-111714285D01*
X71238095Y-111809523D01*
X92357142Y-45392857D02*
X92404761Y-45440476D01*
X92452380Y-45583333D01*
X92452380Y-45678571D01*
X92404761Y-45821428D01*
X92309523Y-45916666D01*
X92214285Y-45964285D01*
X92023809Y-46011904D01*
X91880952Y-46011904D01*
X91690476Y-45964285D01*
X91595238Y-45916666D01*
X91500000Y-45821428D01*
X91452380Y-45678571D01*
X91452380Y-45583333D01*
X91500000Y-45440476D01*
X91547619Y-45392857D01*
X92452380Y-44440476D02*
X92452380Y-45011904D01*
X92452380Y-44726190D02*
X91452380Y-44726190D01*
X91595238Y-44821428D01*
X91690476Y-44916666D01*
X91738095Y-45011904D01*
X91547619Y-44059523D02*
X91500000Y-44011904D01*
X91452380Y-43916666D01*
X91452380Y-43678571D01*
X91500000Y-43583333D01*
X91547619Y-43535714D01*
X91642857Y-43488095D01*
X91738095Y-43488095D01*
X91880952Y-43535714D01*
X92452380Y-44107142D01*
X92452380Y-43488095D01*
X78857142Y-41642857D02*
X78904761Y-41690476D01*
X78952380Y-41833333D01*
X78952380Y-41928571D01*
X78904761Y-42071428D01*
X78809523Y-42166666D01*
X78714285Y-42214285D01*
X78523809Y-42261904D01*
X78380952Y-42261904D01*
X78190476Y-42214285D01*
X78095238Y-42166666D01*
X78000000Y-42071428D01*
X77952380Y-41928571D01*
X77952380Y-41833333D01*
X78000000Y-41690476D01*
X78047619Y-41642857D01*
X78952380Y-40690476D02*
X78952380Y-41261904D01*
X78952380Y-40976190D02*
X77952380Y-40976190D01*
X78095238Y-41071428D01*
X78190476Y-41166666D01*
X78238095Y-41261904D01*
X78285714Y-39833333D02*
X78952380Y-39833333D01*
X77904761Y-40071428D02*
X78619047Y-40309523D01*
X78619047Y-39690476D01*
X77107142Y-41642857D02*
X77154761Y-41690476D01*
X77202380Y-41833333D01*
X77202380Y-41928571D01*
X77154761Y-42071428D01*
X77059523Y-42166666D01*
X76964285Y-42214285D01*
X76773809Y-42261904D01*
X76630952Y-42261904D01*
X76440476Y-42214285D01*
X76345238Y-42166666D01*
X76250000Y-42071428D01*
X76202380Y-41928571D01*
X76202380Y-41833333D01*
X76250000Y-41690476D01*
X76297619Y-41642857D01*
X77202380Y-40690476D02*
X77202380Y-41261904D01*
X77202380Y-40976190D02*
X76202380Y-40976190D01*
X76345238Y-41071428D01*
X76440476Y-41166666D01*
X76488095Y-41261904D01*
X76202380Y-39785714D02*
X76202380Y-40261904D01*
X76678571Y-40309523D01*
X76630952Y-40261904D01*
X76583333Y-40166666D01*
X76583333Y-39928571D01*
X76630952Y-39833333D01*
X76678571Y-39785714D01*
X76773809Y-39738095D01*
X77011904Y-39738095D01*
X77107142Y-39785714D01*
X77154761Y-39833333D01*
X77202380Y-39928571D01*
X77202380Y-40166666D01*
X77154761Y-40261904D01*
X77107142Y-40309523D01*
X86107142Y-40607142D02*
X86059523Y-40654761D01*
X85916666Y-40702380D01*
X85821428Y-40702380D01*
X85678571Y-40654761D01*
X85583333Y-40559523D01*
X85535714Y-40464285D01*
X85488095Y-40273809D01*
X85488095Y-40130952D01*
X85535714Y-39940476D01*
X85583333Y-39845238D01*
X85678571Y-39750000D01*
X85821428Y-39702380D01*
X85916666Y-39702380D01*
X86059523Y-39750000D01*
X86107142Y-39797619D01*
X87059523Y-40702380D02*
X86488095Y-40702380D01*
X86773809Y-40702380D02*
X86773809Y-39702380D01*
X86678571Y-39845238D01*
X86583333Y-39940476D01*
X86488095Y-39988095D01*
X87916666Y-39702380D02*
X87726190Y-39702380D01*
X87630952Y-39750000D01*
X87583333Y-39797619D01*
X87488095Y-39940476D01*
X87440476Y-40130952D01*
X87440476Y-40511904D01*
X87488095Y-40607142D01*
X87535714Y-40654761D01*
X87630952Y-40702380D01*
X87821428Y-40702380D01*
X87916666Y-40654761D01*
X87964285Y-40607142D01*
X88011904Y-40511904D01*
X88011904Y-40273809D01*
X87964285Y-40178571D01*
X87916666Y-40130952D01*
X87821428Y-40083333D01*
X87630952Y-40083333D01*
X87535714Y-40130952D01*
X87488095Y-40178571D01*
X87440476Y-40273809D01*
X82607142Y-44892857D02*
X82654761Y-44940476D01*
X82702380Y-45083333D01*
X82702380Y-45178571D01*
X82654761Y-45321428D01*
X82559523Y-45416666D01*
X82464285Y-45464285D01*
X82273809Y-45511904D01*
X82130952Y-45511904D01*
X81940476Y-45464285D01*
X81845238Y-45416666D01*
X81750000Y-45321428D01*
X81702380Y-45178571D01*
X81702380Y-45083333D01*
X81750000Y-44940476D01*
X81797619Y-44892857D01*
X82702380Y-43940476D02*
X82702380Y-44511904D01*
X82702380Y-44226190D02*
X81702380Y-44226190D01*
X81845238Y-44321428D01*
X81940476Y-44416666D01*
X81988095Y-44511904D01*
X81702380Y-43607142D02*
X81702380Y-42940476D01*
X82702380Y-43369047D01*
X79107142Y-36392857D02*
X79154761Y-36440476D01*
X79202380Y-36583333D01*
X79202380Y-36678571D01*
X79154761Y-36821428D01*
X79059523Y-36916666D01*
X78964285Y-36964285D01*
X78773809Y-37011904D01*
X78630952Y-37011904D01*
X78440476Y-36964285D01*
X78345238Y-36916666D01*
X78250000Y-36821428D01*
X78202380Y-36678571D01*
X78202380Y-36583333D01*
X78250000Y-36440476D01*
X78297619Y-36392857D01*
X79202380Y-35440476D02*
X79202380Y-36011904D01*
X79202380Y-35726190D02*
X78202380Y-35726190D01*
X78345238Y-35821428D01*
X78440476Y-35916666D01*
X78488095Y-36011904D01*
X78630952Y-34869047D02*
X78583333Y-34964285D01*
X78535714Y-35011904D01*
X78440476Y-35059523D01*
X78392857Y-35059523D01*
X78297619Y-35011904D01*
X78250000Y-34964285D01*
X78202380Y-34869047D01*
X78202380Y-34678571D01*
X78250000Y-34583333D01*
X78297619Y-34535714D01*
X78392857Y-34488095D01*
X78440476Y-34488095D01*
X78535714Y-34535714D01*
X78583333Y-34583333D01*
X78630952Y-34678571D01*
X78630952Y-34869047D01*
X78678571Y-34964285D01*
X78726190Y-35011904D01*
X78821428Y-35059523D01*
X79011904Y-35059523D01*
X79107142Y-35011904D01*
X79154761Y-34964285D01*
X79202380Y-34869047D01*
X79202380Y-34678571D01*
X79154761Y-34583333D01*
X79107142Y-34535714D01*
X79011904Y-34488095D01*
X78821428Y-34488095D01*
X78726190Y-34535714D01*
X78678571Y-34583333D01*
X78630952Y-34678571D01*
X62952380Y-48488095D02*
X61952380Y-48488095D01*
X61952380Y-48250000D01*
X62000000Y-48107142D01*
X62095238Y-48011904D01*
X62190476Y-47964285D01*
X62380952Y-47916666D01*
X62523809Y-47916666D01*
X62714285Y-47964285D01*
X62809523Y-48011904D01*
X62904761Y-48107142D01*
X62952380Y-48250000D01*
X62952380Y-48488095D01*
X61952380Y-47011904D02*
X61952380Y-47488095D01*
X62428571Y-47535714D01*
X62380952Y-47488095D01*
X62333333Y-47392857D01*
X62333333Y-47154761D01*
X62380952Y-47059523D01*
X62428571Y-47011904D01*
X62523809Y-46964285D01*
X62761904Y-46964285D01*
X62857142Y-47011904D01*
X62904761Y-47059523D01*
X62952380Y-47154761D01*
X62952380Y-47392857D01*
X62904761Y-47488095D01*
X62857142Y-47535714D01*
X100166666Y-50702380D02*
X100166666Y-51416666D01*
X100119047Y-51559523D01*
X100023809Y-51654761D01*
X99880952Y-51702380D01*
X99785714Y-51702380D01*
X101166666Y-51702380D02*
X100595238Y-51702380D01*
X100880952Y-51702380D02*
X100880952Y-50702380D01*
X100785714Y-50845238D01*
X100690476Y-50940476D01*
X100595238Y-50988095D01*
X100166666Y-65202380D02*
X100166666Y-65916666D01*
X100119047Y-66059523D01*
X100023809Y-66154761D01*
X99880952Y-66202380D01*
X99785714Y-66202380D01*
X100595238Y-65297619D02*
X100642857Y-65250000D01*
X100738095Y-65202380D01*
X100976190Y-65202380D01*
X101071428Y-65250000D01*
X101119047Y-65297619D01*
X101166666Y-65392857D01*
X101166666Y-65488095D01*
X101119047Y-65630952D01*
X100547619Y-66202380D01*
X101166666Y-66202380D01*
X82416666Y-67452380D02*
X82416666Y-68166666D01*
X82369047Y-68309523D01*
X82273809Y-68404761D01*
X82130952Y-68452380D01*
X82035714Y-68452380D01*
X83321428Y-67785714D02*
X83321428Y-68452380D01*
X83083333Y-67404761D02*
X82845238Y-68119047D01*
X83464285Y-68119047D01*
X106416666Y-146452380D02*
X106416666Y-147166666D01*
X106369047Y-147309523D01*
X106273809Y-147404761D01*
X106130952Y-147452380D01*
X106035714Y-147452380D01*
X107369047Y-146452380D02*
X106892857Y-146452380D01*
X106845238Y-146928571D01*
X106892857Y-146880952D01*
X106988095Y-146833333D01*
X107226190Y-146833333D01*
X107321428Y-146880952D01*
X107369047Y-146928571D01*
X107416666Y-147023809D01*
X107416666Y-147261904D01*
X107369047Y-147357142D01*
X107321428Y-147404761D01*
X107226190Y-147452380D01*
X106988095Y-147452380D01*
X106892857Y-147404761D01*
X106845238Y-147357142D01*
X80583333Y-35452380D02*
X80107142Y-35452380D01*
X80107142Y-34452380D01*
X81440476Y-35452380D02*
X80869047Y-35452380D01*
X81154761Y-35452380D02*
X81154761Y-34452380D01*
X81059523Y-34595238D01*
X80964285Y-34690476D01*
X80869047Y-34738095D01*
X91452380Y-55666666D02*
X90976190Y-56000000D01*
X91452380Y-56238095D02*
X90452380Y-56238095D01*
X90452380Y-55857142D01*
X90500000Y-55761904D01*
X90547619Y-55714285D01*
X90642857Y-55666666D01*
X90785714Y-55666666D01*
X90880952Y-55714285D01*
X90928571Y-55761904D01*
X90976190Y-55857142D01*
X90976190Y-56238095D01*
X91452380Y-54714285D02*
X91452380Y-55285714D01*
X91452380Y-55000000D02*
X90452380Y-55000000D01*
X90595238Y-55095238D01*
X90690476Y-55190476D01*
X90738095Y-55285714D01*
X91452380Y-71666666D02*
X90976190Y-72000000D01*
X91452380Y-72238095D02*
X90452380Y-72238095D01*
X90452380Y-71857142D01*
X90500000Y-71761904D01*
X90547619Y-71714285D01*
X90642857Y-71666666D01*
X90785714Y-71666666D01*
X90880952Y-71714285D01*
X90928571Y-71761904D01*
X90976190Y-71857142D01*
X90976190Y-72238095D01*
X90547619Y-71285714D02*
X90500000Y-71238095D01*
X90452380Y-71142857D01*
X90452380Y-70904761D01*
X90500000Y-70809523D01*
X90547619Y-70761904D01*
X90642857Y-70714285D01*
X90738095Y-70714285D01*
X90880952Y-70761904D01*
X91452380Y-71333333D01*
X91452380Y-70714285D01*
X107333333Y-55202380D02*
X107000000Y-54726190D01*
X106761904Y-55202380D02*
X106761904Y-54202380D01*
X107142857Y-54202380D01*
X107238095Y-54250000D01*
X107285714Y-54297619D01*
X107333333Y-54392857D01*
X107333333Y-54535714D01*
X107285714Y-54630952D01*
X107238095Y-54678571D01*
X107142857Y-54726190D01*
X106761904Y-54726190D01*
X107666666Y-54202380D02*
X108285714Y-54202380D01*
X107952380Y-54583333D01*
X108095238Y-54583333D01*
X108190476Y-54630952D01*
X108238095Y-54678571D01*
X108285714Y-54773809D01*
X108285714Y-55011904D01*
X108238095Y-55107142D01*
X108190476Y-55154761D01*
X108095238Y-55202380D01*
X107809523Y-55202380D01*
X107714285Y-55154761D01*
X107666666Y-55107142D01*
X107333333Y-69702380D02*
X107000000Y-69226190D01*
X106761904Y-69702380D02*
X106761904Y-68702380D01*
X107142857Y-68702380D01*
X107238095Y-68750000D01*
X107285714Y-68797619D01*
X107333333Y-68892857D01*
X107333333Y-69035714D01*
X107285714Y-69130952D01*
X107238095Y-69178571D01*
X107142857Y-69226190D01*
X106761904Y-69226190D01*
X108190476Y-69035714D02*
X108190476Y-69702380D01*
X107952380Y-68654761D02*
X107714285Y-69369047D01*
X108333333Y-69369047D01*
X112833333Y-113952380D02*
X112500000Y-113476190D01*
X112261904Y-113952380D02*
X112261904Y-112952380D01*
X112642857Y-112952380D01*
X112738095Y-113000000D01*
X112785714Y-113047619D01*
X112833333Y-113142857D01*
X112833333Y-113285714D01*
X112785714Y-113380952D01*
X112738095Y-113428571D01*
X112642857Y-113476190D01*
X112261904Y-113476190D01*
X113738095Y-112952380D02*
X113261904Y-112952380D01*
X113214285Y-113428571D01*
X113261904Y-113380952D01*
X113357142Y-113333333D01*
X113595238Y-113333333D01*
X113690476Y-113380952D01*
X113738095Y-113428571D01*
X113785714Y-113523809D01*
X113785714Y-113761904D01*
X113738095Y-113857142D01*
X113690476Y-113904761D01*
X113595238Y-113952380D01*
X113357142Y-113952380D01*
X113261904Y-113904761D01*
X113214285Y-113857142D01*
X87583333Y-84702380D02*
X87250000Y-84226190D01*
X87011904Y-84702380D02*
X87011904Y-83702380D01*
X87392857Y-83702380D01*
X87488095Y-83750000D01*
X87535714Y-83797619D01*
X87583333Y-83892857D01*
X87583333Y-84035714D01*
X87535714Y-84130952D01*
X87488095Y-84178571D01*
X87392857Y-84226190D01*
X87011904Y-84226190D01*
X88440476Y-83702380D02*
X88250000Y-83702380D01*
X88154761Y-83750000D01*
X88107142Y-83797619D01*
X88011904Y-83940476D01*
X87964285Y-84130952D01*
X87964285Y-84511904D01*
X88011904Y-84607142D01*
X88059523Y-84654761D01*
X88154761Y-84702380D01*
X88345238Y-84702380D01*
X88440476Y-84654761D01*
X88488095Y-84607142D01*
X88535714Y-84511904D01*
X88535714Y-84273809D01*
X88488095Y-84178571D01*
X88440476Y-84130952D01*
X88345238Y-84083333D01*
X88154761Y-84083333D01*
X88059523Y-84130952D01*
X88011904Y-84178571D01*
X87964285Y-84273809D01*
X112833333Y-84702380D02*
X112500000Y-84226190D01*
X112261904Y-84702380D02*
X112261904Y-83702380D01*
X112642857Y-83702380D01*
X112738095Y-83750000D01*
X112785714Y-83797619D01*
X112833333Y-83892857D01*
X112833333Y-84035714D01*
X112785714Y-84130952D01*
X112738095Y-84178571D01*
X112642857Y-84226190D01*
X112261904Y-84226190D01*
X113166666Y-83702380D02*
X113833333Y-83702380D01*
X113404761Y-84702380D01*
X88083333Y-113952380D02*
X87750000Y-113476190D01*
X87511904Y-113952380D02*
X87511904Y-112952380D01*
X87892857Y-112952380D01*
X87988095Y-113000000D01*
X88035714Y-113047619D01*
X88083333Y-113142857D01*
X88083333Y-113285714D01*
X88035714Y-113380952D01*
X87988095Y-113428571D01*
X87892857Y-113476190D01*
X87511904Y-113476190D01*
X88654761Y-113380952D02*
X88559523Y-113333333D01*
X88511904Y-113285714D01*
X88464285Y-113190476D01*
X88464285Y-113142857D01*
X88511904Y-113047619D01*
X88559523Y-113000000D01*
X88654761Y-112952380D01*
X88845238Y-112952380D01*
X88940476Y-113000000D01*
X88988095Y-113047619D01*
X89035714Y-113142857D01*
X89035714Y-113190476D01*
X88988095Y-113285714D01*
X88940476Y-113333333D01*
X88845238Y-113380952D01*
X88654761Y-113380952D01*
X88559523Y-113428571D01*
X88511904Y-113476190D01*
X88464285Y-113571428D01*
X88464285Y-113761904D01*
X88511904Y-113857142D01*
X88559523Y-113904761D01*
X88654761Y-113952380D01*
X88845238Y-113952380D01*
X88940476Y-113904761D01*
X88988095Y-113857142D01*
X89035714Y-113761904D01*
X89035714Y-113571428D01*
X88988095Y-113476190D01*
X88940476Y-113428571D01*
X88845238Y-113380952D01*
X62452380Y-52916666D02*
X61976190Y-53250000D01*
X62452380Y-53488095D02*
X61452380Y-53488095D01*
X61452380Y-53107142D01*
X61500000Y-53011904D01*
X61547619Y-52964285D01*
X61642857Y-52916666D01*
X61785714Y-52916666D01*
X61880952Y-52964285D01*
X61928571Y-53011904D01*
X61976190Y-53107142D01*
X61976190Y-53488095D01*
X62452380Y-52440476D02*
X62452380Y-52250000D01*
X62404761Y-52154761D01*
X62357142Y-52107142D01*
X62214285Y-52011904D01*
X62023809Y-51964285D01*
X61642857Y-51964285D01*
X61547619Y-52011904D01*
X61500000Y-52059523D01*
X61452380Y-52154761D01*
X61452380Y-52345238D01*
X61500000Y-52440476D01*
X61547619Y-52488095D01*
X61642857Y-52535714D01*
X61880952Y-52535714D01*
X61976190Y-52488095D01*
X62023809Y-52440476D01*
X62071428Y-52345238D01*
X62071428Y-52154761D01*
X62023809Y-52059523D01*
X61976190Y-52011904D01*
X61880952Y-51964285D01*
X77702380Y-36392857D02*
X77226190Y-36726190D01*
X77702380Y-36964285D02*
X76702380Y-36964285D01*
X76702380Y-36583333D01*
X76750000Y-36488095D01*
X76797619Y-36440476D01*
X76892857Y-36392857D01*
X77035714Y-36392857D01*
X77130952Y-36440476D01*
X77178571Y-36488095D01*
X77226190Y-36583333D01*
X77226190Y-36964285D01*
X77702380Y-35440476D02*
X77702380Y-36011904D01*
X77702380Y-35726190D02*
X76702380Y-35726190D01*
X76845238Y-35821428D01*
X76940476Y-35916666D01*
X76988095Y-36011904D01*
X76702380Y-34821428D02*
X76702380Y-34726190D01*
X76750000Y-34630952D01*
X76797619Y-34583333D01*
X76892857Y-34535714D01*
X77083333Y-34488095D01*
X77321428Y-34488095D01*
X77511904Y-34535714D01*
X77607142Y-34583333D01*
X77654761Y-34630952D01*
X77702380Y-34726190D01*
X77702380Y-34821428D01*
X77654761Y-34916666D01*
X77607142Y-34964285D01*
X77511904Y-35011904D01*
X77321428Y-35059523D01*
X77083333Y-35059523D01*
X76892857Y-35011904D01*
X76797619Y-34964285D01*
X76750000Y-34916666D01*
X76702380Y-34821428D01*
X68202380Y-58892857D02*
X67726190Y-59226190D01*
X68202380Y-59464285D02*
X67202380Y-59464285D01*
X67202380Y-59083333D01*
X67250000Y-58988095D01*
X67297619Y-58940476D01*
X67392857Y-58892857D01*
X67535714Y-58892857D01*
X67630952Y-58940476D01*
X67678571Y-58988095D01*
X67726190Y-59083333D01*
X67726190Y-59464285D01*
X68202380Y-57940476D02*
X68202380Y-58511904D01*
X68202380Y-58226190D02*
X67202380Y-58226190D01*
X67345238Y-58321428D01*
X67440476Y-58416666D01*
X67488095Y-58511904D01*
X68202380Y-56988095D02*
X68202380Y-57559523D01*
X68202380Y-57273809D02*
X67202380Y-57273809D01*
X67345238Y-57369047D01*
X67440476Y-57464285D01*
X67488095Y-57559523D01*
X66202380Y-58892857D02*
X65726190Y-59226190D01*
X66202380Y-59464285D02*
X65202380Y-59464285D01*
X65202380Y-59083333D01*
X65250000Y-58988095D01*
X65297619Y-58940476D01*
X65392857Y-58892857D01*
X65535714Y-58892857D01*
X65630952Y-58940476D01*
X65678571Y-58988095D01*
X65726190Y-59083333D01*
X65726190Y-59464285D01*
X66202380Y-57940476D02*
X66202380Y-58511904D01*
X66202380Y-58226190D02*
X65202380Y-58226190D01*
X65345238Y-58321428D01*
X65440476Y-58416666D01*
X65488095Y-58511904D01*
X65297619Y-57559523D02*
X65250000Y-57511904D01*
X65202380Y-57416666D01*
X65202380Y-57178571D01*
X65250000Y-57083333D01*
X65297619Y-57035714D01*
X65392857Y-56988095D01*
X65488095Y-56988095D01*
X65630952Y-57035714D01*
X66202380Y-57607142D01*
X66202380Y-56988095D01*
X70952380Y-82142857D02*
X70476190Y-82476190D01*
X70952380Y-82714285D02*
X69952380Y-82714285D01*
X69952380Y-82333333D01*
X70000000Y-82238095D01*
X70047619Y-82190476D01*
X70142857Y-82142857D01*
X70285714Y-82142857D01*
X70380952Y-82190476D01*
X70428571Y-82238095D01*
X70476190Y-82333333D01*
X70476190Y-82714285D01*
X70952380Y-81190476D02*
X70952380Y-81761904D01*
X70952380Y-81476190D02*
X69952380Y-81476190D01*
X70095238Y-81571428D01*
X70190476Y-81666666D01*
X70238095Y-81761904D01*
X69952380Y-80857142D02*
X69952380Y-80238095D01*
X70333333Y-80571428D01*
X70333333Y-80428571D01*
X70380952Y-80333333D01*
X70428571Y-80285714D01*
X70523809Y-80238095D01*
X70761904Y-80238095D01*
X70857142Y-80285714D01*
X70904761Y-80333333D01*
X70952380Y-80428571D01*
X70952380Y-80714285D01*
X70904761Y-80809523D01*
X70857142Y-80857142D01*
X74857142Y-60857142D02*
X74809523Y-60904761D01*
X74666666Y-60952380D01*
X74571428Y-60952380D01*
X74428571Y-60904761D01*
X74333333Y-60809523D01*
X74285714Y-60714285D01*
X74238095Y-60523809D01*
X74238095Y-60380952D01*
X74285714Y-60190476D01*
X74333333Y-60095238D01*
X74428571Y-60000000D01*
X74571428Y-59952380D01*
X74666666Y-59952380D01*
X74809523Y-60000000D01*
X74857142Y-60047619D01*
X75809523Y-60952380D02*
X75238095Y-60952380D01*
X75523809Y-60952380D02*
X75523809Y-59952380D01*
X75428571Y-60095238D01*
X75333333Y-60190476D01*
X75238095Y-60238095D01*
X76285714Y-60952380D02*
X76476190Y-60952380D01*
X76571428Y-60904761D01*
X76619047Y-60857142D01*
X76714285Y-60714285D01*
X76761904Y-60523809D01*
X76761904Y-60142857D01*
X76714285Y-60047619D01*
X76666666Y-60000000D01*
X76571428Y-59952380D01*
X76380952Y-59952380D01*
X76285714Y-60000000D01*
X76238095Y-60047619D01*
X76190476Y-60142857D01*
X76190476Y-60380952D01*
X76238095Y-60476190D01*
X76285714Y-60523809D01*
X76380952Y-60571428D01*
X76571428Y-60571428D01*
X76666666Y-60523809D01*
X76714285Y-60476190D01*
X76761904Y-60380952D01*
X86202380Y-50238095D02*
X85202380Y-50238095D01*
X85202380Y-50000000D01*
X85250000Y-49857142D01*
X85345238Y-49761904D01*
X85440476Y-49714285D01*
X85630952Y-49666666D01*
X85773809Y-49666666D01*
X85964285Y-49714285D01*
X86059523Y-49761904D01*
X86154761Y-49857142D01*
X86202380Y-50000000D01*
X86202380Y-50238095D01*
X85202380Y-48809523D02*
X85202380Y-49000000D01*
X85250000Y-49095238D01*
X85297619Y-49142857D01*
X85440476Y-49238095D01*
X85630952Y-49285714D01*
X86011904Y-49285714D01*
X86107142Y-49238095D01*
X86154761Y-49190476D01*
X86202380Y-49095238D01*
X86202380Y-48904761D01*
X86154761Y-48809523D01*
X86107142Y-48761904D01*
X86011904Y-48714285D01*
X85773809Y-48714285D01*
X85678571Y-48761904D01*
X85630952Y-48809523D01*
X85583333Y-48904761D01*
X85583333Y-49095238D01*
X85630952Y-49190476D01*
X85678571Y-49238095D01*
X85773809Y-49285714D01*
X85952380Y-54642857D02*
X85476190Y-54976190D01*
X85952380Y-55214285D02*
X84952380Y-55214285D01*
X84952380Y-54833333D01*
X85000000Y-54738095D01*
X85047619Y-54690476D01*
X85142857Y-54642857D01*
X85285714Y-54642857D01*
X85380952Y-54690476D01*
X85428571Y-54738095D01*
X85476190Y-54833333D01*
X85476190Y-55214285D01*
X85952380Y-53690476D02*
X85952380Y-54261904D01*
X85952380Y-53976190D02*
X84952380Y-53976190D01*
X85095238Y-54071428D01*
X85190476Y-54166666D01*
X85238095Y-54261904D01*
X85285714Y-52833333D02*
X85952380Y-52833333D01*
X84904761Y-53071428D02*
X85619047Y-53309523D01*
X85619047Y-52690476D01*
X84916666Y-35702380D02*
X84916666Y-36416666D01*
X84869047Y-36559523D01*
X84773809Y-36654761D01*
X84630952Y-36702380D01*
X84535714Y-36702380D01*
X85297619Y-35702380D02*
X85964285Y-35702380D01*
X85535714Y-36702380D01*
X108416666Y-44452380D02*
X108416666Y-45166666D01*
X108369047Y-45309523D01*
X108273809Y-45404761D01*
X108130952Y-45452380D01*
X108035714Y-45452380D01*
X108940476Y-45452380D02*
X109130952Y-45452380D01*
X109226190Y-45404761D01*
X109273809Y-45357142D01*
X109369047Y-45214285D01*
X109416666Y-45023809D01*
X109416666Y-44642857D01*
X109369047Y-44547619D01*
X109321428Y-44500000D01*
X109226190Y-44452380D01*
X109035714Y-44452380D01*
X108940476Y-44500000D01*
X108892857Y-44547619D01*
X108845238Y-44642857D01*
X108845238Y-44880952D01*
X108892857Y-44976190D01*
X108940476Y-45023809D01*
X109035714Y-45071428D01*
X109226190Y-45071428D01*
X109321428Y-45023809D01*
X109369047Y-44976190D01*
X109416666Y-44880952D01*
X124690476Y-44452380D02*
X124690476Y-45166666D01*
X124642857Y-45309523D01*
X124547619Y-45404761D01*
X124404761Y-45452380D01*
X124309523Y-45452380D01*
X125690476Y-45452380D02*
X125119047Y-45452380D01*
X125404761Y-45452380D02*
X125404761Y-44452380D01*
X125309523Y-44595238D01*
X125214285Y-44690476D01*
X125119047Y-44738095D01*
X126309523Y-44452380D02*
X126404761Y-44452380D01*
X126500000Y-44500000D01*
X126547619Y-44547619D01*
X126595238Y-44642857D01*
X126642857Y-44833333D01*
X126642857Y-45071428D01*
X126595238Y-45261904D01*
X126547619Y-45357142D01*
X126500000Y-45404761D01*
X126404761Y-45452380D01*
X126309523Y-45452380D01*
X126214285Y-45404761D01*
X126166666Y-45357142D01*
X126119047Y-45261904D01*
X126071428Y-45071428D01*
X126071428Y-44833333D01*
X126119047Y-44642857D01*
X126166666Y-44547619D01*
X126214285Y-44500000D01*
X126309523Y-44452380D01*
X110440476Y-146452380D02*
X110440476Y-147166666D01*
X110392857Y-147309523D01*
X110297619Y-147404761D01*
X110154761Y-147452380D01*
X110059523Y-147452380D01*
X111440476Y-147452380D02*
X110869047Y-147452380D01*
X111154761Y-147452380D02*
X111154761Y-146452380D01*
X111059523Y-146595238D01*
X110964285Y-146690476D01*
X110869047Y-146738095D01*
X112392857Y-147452380D02*
X111821428Y-147452380D01*
X112107142Y-147452380D02*
X112107142Y-146452380D01*
X112011904Y-146595238D01*
X111916666Y-146690476D01*
X111821428Y-146738095D01*
X72666666Y-146202380D02*
X72666666Y-146916666D01*
X72619047Y-147059523D01*
X72523809Y-147154761D01*
X72380952Y-147202380D01*
X72285714Y-147202380D01*
X73285714Y-146630952D02*
X73190476Y-146583333D01*
X73142857Y-146535714D01*
X73095238Y-146440476D01*
X73095238Y-146392857D01*
X73142857Y-146297619D01*
X73190476Y-146250000D01*
X73285714Y-146202380D01*
X73476190Y-146202380D01*
X73571428Y-146250000D01*
X73619047Y-146297619D01*
X73666666Y-146392857D01*
X73666666Y-146440476D01*
X73619047Y-146535714D01*
X73571428Y-146583333D01*
X73476190Y-146630952D01*
X73285714Y-146630952D01*
X73190476Y-146678571D01*
X73142857Y-146726190D01*
X73095238Y-146821428D01*
X73095238Y-147011904D01*
X73142857Y-147107142D01*
X73190476Y-147154761D01*
X73285714Y-147202380D01*
X73476190Y-147202380D01*
X73571428Y-147154761D01*
X73619047Y-147107142D01*
X73666666Y-147011904D01*
X73666666Y-146821428D01*
X73619047Y-146726190D01*
X73571428Y-146678571D01*
X73476190Y-146630952D01*
X99511904Y-110202380D02*
X99511904Y-109202380D01*
X99750000Y-109202380D01*
X99892857Y-109250000D01*
X99988095Y-109345238D01*
X100035714Y-109440476D01*
X100083333Y-109630952D01*
X100083333Y-109773809D01*
X100035714Y-109964285D01*
X99988095Y-110059523D01*
X99892857Y-110154761D01*
X99750000Y-110202380D01*
X99511904Y-110202380D01*
X100416666Y-109202380D02*
X101083333Y-109202380D01*
X100654761Y-110202380D01*
X76761904Y-79702380D02*
X76761904Y-78702380D01*
X77000000Y-78702380D01*
X77142857Y-78750000D01*
X77238095Y-78845238D01*
X77285714Y-78940476D01*
X77333333Y-79130952D01*
X77333333Y-79273809D01*
X77285714Y-79464285D01*
X77238095Y-79559523D01*
X77142857Y-79654761D01*
X77000000Y-79702380D01*
X76761904Y-79702380D01*
X77904761Y-79130952D02*
X77809523Y-79083333D01*
X77761904Y-79035714D01*
X77714285Y-78940476D01*
X77714285Y-78892857D01*
X77761904Y-78797619D01*
X77809523Y-78750000D01*
X77904761Y-78702380D01*
X78095238Y-78702380D01*
X78190476Y-78750000D01*
X78238095Y-78797619D01*
X78285714Y-78892857D01*
X78285714Y-78940476D01*
X78238095Y-79035714D01*
X78190476Y-79083333D01*
X78095238Y-79130952D01*
X77904761Y-79130952D01*
X77809523Y-79178571D01*
X77761904Y-79226190D01*
X77714285Y-79321428D01*
X77714285Y-79511904D01*
X77761904Y-79607142D01*
X77809523Y-79654761D01*
X77904761Y-79702380D01*
X78095238Y-79702380D01*
X78190476Y-79654761D01*
X78238095Y-79607142D01*
X78285714Y-79511904D01*
X78285714Y-79321428D01*
X78238095Y-79226190D01*
X78190476Y-79178571D01*
X78095238Y-79130952D01*
X101761904Y-79452380D02*
X101761904Y-78452380D01*
X102000000Y-78452380D01*
X102142857Y-78500000D01*
X102238095Y-78595238D01*
X102285714Y-78690476D01*
X102333333Y-78880952D01*
X102333333Y-79023809D01*
X102285714Y-79214285D01*
X102238095Y-79309523D01*
X102142857Y-79404761D01*
X102000000Y-79452380D01*
X101761904Y-79452380D01*
X102809523Y-79452380D02*
X103000000Y-79452380D01*
X103095238Y-79404761D01*
X103142857Y-79357142D01*
X103238095Y-79214285D01*
X103285714Y-79023809D01*
X103285714Y-78642857D01*
X103238095Y-78547619D01*
X103190476Y-78500000D01*
X103095238Y-78452380D01*
X102904761Y-78452380D01*
X102809523Y-78500000D01*
X102761904Y-78547619D01*
X102714285Y-78642857D01*
X102714285Y-78880952D01*
X102761904Y-78976190D01*
X102809523Y-79023809D01*
X102904761Y-79071428D01*
X103095238Y-79071428D01*
X103190476Y-79023809D01*
X103238095Y-78976190D01*
X103285714Y-78880952D01*
X73285714Y-110202380D02*
X73285714Y-109202380D01*
X73523809Y-109202380D01*
X73666666Y-109250000D01*
X73761904Y-109345238D01*
X73809523Y-109440476D01*
X73857142Y-109630952D01*
X73857142Y-109773809D01*
X73809523Y-109964285D01*
X73761904Y-110059523D01*
X73666666Y-110154761D01*
X73523809Y-110202380D01*
X73285714Y-110202380D01*
X74809523Y-110202380D02*
X74238095Y-110202380D01*
X74523809Y-110202380D02*
X74523809Y-109202380D01*
X74428571Y-109345238D01*
X74333333Y-109440476D01*
X74238095Y-109488095D01*
X75428571Y-109202380D02*
X75523809Y-109202380D01*
X75619047Y-109250000D01*
X75666666Y-109297619D01*
X75714285Y-109392857D01*
X75761904Y-109583333D01*
X75761904Y-109821428D01*
X75714285Y-110011904D01*
X75666666Y-110107142D01*
X75619047Y-110154761D01*
X75523809Y-110202380D01*
X75428571Y-110202380D01*
X75333333Y-110154761D01*
X75285714Y-110107142D01*
X75238095Y-110011904D01*
X75190476Y-109821428D01*
X75190476Y-109583333D01*
X75238095Y-109392857D01*
X75285714Y-109297619D01*
X75333333Y-109250000D01*
X75428571Y-109202380D01*
X108857142Y-110202380D02*
X108523809Y-109726190D01*
X108285714Y-110202380D02*
X108285714Y-109202380D01*
X108666666Y-109202380D01*
X108761904Y-109250000D01*
X108809523Y-109297619D01*
X108857142Y-109392857D01*
X108857142Y-109535714D01*
X108809523Y-109630952D01*
X108761904Y-109678571D01*
X108666666Y-109726190D01*
X108285714Y-109726190D01*
X109809523Y-110202380D02*
X109238095Y-110202380D01*
X109523809Y-110202380D02*
X109523809Y-109202380D01*
X109428571Y-109345238D01*
X109333333Y-109440476D01*
X109238095Y-109488095D01*
X110714285Y-109202380D02*
X110238095Y-109202380D01*
X110190476Y-109678571D01*
X110238095Y-109630952D01*
X110333333Y-109583333D01*
X110571428Y-109583333D01*
X110666666Y-109630952D01*
X110714285Y-109678571D01*
X110761904Y-109773809D01*
X110761904Y-110011904D01*
X110714285Y-110107142D01*
X110666666Y-110154761D01*
X110571428Y-110202380D01*
X110333333Y-110202380D01*
X110238095Y-110154761D01*
X110190476Y-110107142D01*
X80857142Y-79702380D02*
X80523809Y-79226190D01*
X80285714Y-79702380D02*
X80285714Y-78702380D01*
X80666666Y-78702380D01*
X80761904Y-78750000D01*
X80809523Y-78797619D01*
X80857142Y-78892857D01*
X80857142Y-79035714D01*
X80809523Y-79130952D01*
X80761904Y-79178571D01*
X80666666Y-79226190D01*
X80285714Y-79226190D01*
X81809523Y-79702380D02*
X81238095Y-79702380D01*
X81523809Y-79702380D02*
X81523809Y-78702380D01*
X81428571Y-78845238D01*
X81333333Y-78940476D01*
X81238095Y-78988095D01*
X82666666Y-78702380D02*
X82476190Y-78702380D01*
X82380952Y-78750000D01*
X82333333Y-78797619D01*
X82238095Y-78940476D01*
X82190476Y-79130952D01*
X82190476Y-79511904D01*
X82238095Y-79607142D01*
X82285714Y-79654761D01*
X82380952Y-79702380D01*
X82571428Y-79702380D01*
X82666666Y-79654761D01*
X82714285Y-79607142D01*
X82761904Y-79511904D01*
X82761904Y-79273809D01*
X82714285Y-79178571D01*
X82666666Y-79130952D01*
X82571428Y-79083333D01*
X82380952Y-79083333D01*
X82285714Y-79130952D01*
X82238095Y-79178571D01*
X82190476Y-79273809D01*
X106357142Y-79452380D02*
X106023809Y-78976190D01*
X105785714Y-79452380D02*
X105785714Y-78452380D01*
X106166666Y-78452380D01*
X106261904Y-78500000D01*
X106309523Y-78547619D01*
X106357142Y-78642857D01*
X106357142Y-78785714D01*
X106309523Y-78880952D01*
X106261904Y-78928571D01*
X106166666Y-78976190D01*
X105785714Y-78976190D01*
X107309523Y-79452380D02*
X106738095Y-79452380D01*
X107023809Y-79452380D02*
X107023809Y-78452380D01*
X106928571Y-78595238D01*
X106833333Y-78690476D01*
X106738095Y-78738095D01*
X107642857Y-78452380D02*
X108309523Y-78452380D01*
X107880952Y-79452380D01*
X85607142Y-110202380D02*
X85273809Y-109726190D01*
X85035714Y-110202380D02*
X85035714Y-109202380D01*
X85416666Y-109202380D01*
X85511904Y-109250000D01*
X85559523Y-109297619D01*
X85607142Y-109392857D01*
X85607142Y-109535714D01*
X85559523Y-109630952D01*
X85511904Y-109678571D01*
X85416666Y-109726190D01*
X85035714Y-109726190D01*
X86559523Y-110202380D02*
X85988095Y-110202380D01*
X86273809Y-110202380D02*
X86273809Y-109202380D01*
X86178571Y-109345238D01*
X86083333Y-109440476D01*
X85988095Y-109488095D01*
X87130952Y-109630952D02*
X87035714Y-109583333D01*
X86988095Y-109535714D01*
X86940476Y-109440476D01*
X86940476Y-109392857D01*
X86988095Y-109297619D01*
X87035714Y-109250000D01*
X87130952Y-109202380D01*
X87321428Y-109202380D01*
X87416666Y-109250000D01*
X87464285Y-109297619D01*
X87511904Y-109392857D01*
X87511904Y-109440476D01*
X87464285Y-109535714D01*
X87416666Y-109583333D01*
X87321428Y-109630952D01*
X87130952Y-109630952D01*
X87035714Y-109678571D01*
X86988095Y-109726190D01*
X86940476Y-109821428D01*
X86940476Y-110011904D01*
X86988095Y-110107142D01*
X87035714Y-110154761D01*
X87130952Y-110202380D01*
X87321428Y-110202380D01*
X87416666Y-110154761D01*
X87464285Y-110107142D01*
X87511904Y-110011904D01*
X87511904Y-109821428D01*
X87464285Y-109726190D01*
X87416666Y-109678571D01*
X87321428Y-109630952D01*
X80607142Y-41642857D02*
X80654761Y-41690476D01*
X80702380Y-41833333D01*
X80702380Y-41928571D01*
X80654761Y-42071428D01*
X80559523Y-42166666D01*
X80464285Y-42214285D01*
X80273809Y-42261904D01*
X80130952Y-42261904D01*
X79940476Y-42214285D01*
X79845238Y-42166666D01*
X79750000Y-42071428D01*
X79702380Y-41928571D01*
X79702380Y-41833333D01*
X79750000Y-41690476D01*
X79797619Y-41642857D01*
X80702380Y-40690476D02*
X80702380Y-41261904D01*
X80702380Y-40976190D02*
X79702380Y-40976190D01*
X79845238Y-41071428D01*
X79940476Y-41166666D01*
X79988095Y-41261904D01*
X79702380Y-40357142D02*
X79702380Y-39738095D01*
X80083333Y-40071428D01*
X80083333Y-39928571D01*
X80130952Y-39833333D01*
X80178571Y-39785714D01*
X80273809Y-39738095D01*
X80511904Y-39738095D01*
X80607142Y-39785714D01*
X80654761Y-39833333D01*
X80702380Y-39928571D01*
X80702380Y-40214285D01*
X80654761Y-40309523D01*
X80607142Y-40357142D01*
X102107142Y-55202380D02*
X101773809Y-54726190D01*
X101535714Y-55202380D02*
X101535714Y-54202380D01*
X101916666Y-54202380D01*
X102011904Y-54250000D01*
X102059523Y-54297619D01*
X102107142Y-54392857D01*
X102107142Y-54535714D01*
X102059523Y-54630952D01*
X102011904Y-54678571D01*
X101916666Y-54726190D01*
X101535714Y-54726190D01*
X103059523Y-55202380D02*
X102488095Y-55202380D01*
X102773809Y-55202380D02*
X102773809Y-54202380D01*
X102678571Y-54345238D01*
X102583333Y-54440476D01*
X102488095Y-54488095D01*
X103535714Y-55202380D02*
X103726190Y-55202380D01*
X103821428Y-55154761D01*
X103869047Y-55107142D01*
X103964285Y-54964285D01*
X104011904Y-54773809D01*
X104011904Y-54392857D01*
X103964285Y-54297619D01*
X103916666Y-54250000D01*
X103821428Y-54202380D01*
X103630952Y-54202380D01*
X103535714Y-54250000D01*
X103488095Y-54297619D01*
X103440476Y-54392857D01*
X103440476Y-54630952D01*
X103488095Y-54726190D01*
X103535714Y-54773809D01*
X103630952Y-54821428D01*
X103821428Y-54821428D01*
X103916666Y-54773809D01*
X103964285Y-54726190D01*
X104011904Y-54630952D01*
X93452380Y-52142857D02*
X92976190Y-52476190D01*
X93452380Y-52714285D02*
X92452380Y-52714285D01*
X92452380Y-52333333D01*
X92500000Y-52238095D01*
X92547619Y-52190476D01*
X92642857Y-52142857D01*
X92785714Y-52142857D01*
X92880952Y-52190476D01*
X92928571Y-52238095D01*
X92976190Y-52333333D01*
X92976190Y-52714285D01*
X92547619Y-51761904D02*
X92500000Y-51714285D01*
X92452380Y-51619047D01*
X92452380Y-51380952D01*
X92500000Y-51285714D01*
X92547619Y-51238095D01*
X92642857Y-51190476D01*
X92738095Y-51190476D01*
X92880952Y-51238095D01*
X93452380Y-51809523D01*
X93452380Y-51190476D01*
X92452380Y-50571428D02*
X92452380Y-50476190D01*
X92500000Y-50380952D01*
X92547619Y-50333333D01*
X92642857Y-50285714D01*
X92833333Y-50238095D01*
X93071428Y-50238095D01*
X93261904Y-50285714D01*
X93357142Y-50333333D01*
X93404761Y-50380952D01*
X93452380Y-50476190D01*
X93452380Y-50571428D01*
X93404761Y-50666666D01*
X93357142Y-50714285D01*
X93261904Y-50761904D01*
X93071428Y-50809523D01*
X92833333Y-50809523D01*
X92642857Y-50761904D01*
X92547619Y-50714285D01*
X92500000Y-50666666D01*
X92452380Y-50571428D01*
X93452380Y-66642857D02*
X92976190Y-66976190D01*
X93452380Y-67214285D02*
X92452380Y-67214285D01*
X92452380Y-66833333D01*
X92500000Y-66738095D01*
X92547619Y-66690476D01*
X92642857Y-66642857D01*
X92785714Y-66642857D01*
X92880952Y-66690476D01*
X92928571Y-66738095D01*
X92976190Y-66833333D01*
X92976190Y-67214285D01*
X92547619Y-66261904D02*
X92500000Y-66214285D01*
X92452380Y-66119047D01*
X92452380Y-65880952D01*
X92500000Y-65785714D01*
X92547619Y-65738095D01*
X92642857Y-65690476D01*
X92738095Y-65690476D01*
X92880952Y-65738095D01*
X93452380Y-66309523D01*
X93452380Y-65690476D01*
X93452380Y-64738095D02*
X93452380Y-65309523D01*
X93452380Y-65023809D02*
X92452380Y-65023809D01*
X92595238Y-65119047D01*
X92690476Y-65214285D01*
X92738095Y-65309523D01*
X101857142Y-69702380D02*
X101523809Y-69226190D01*
X101285714Y-69702380D02*
X101285714Y-68702380D01*
X101666666Y-68702380D01*
X101761904Y-68750000D01*
X101809523Y-68797619D01*
X101857142Y-68892857D01*
X101857142Y-69035714D01*
X101809523Y-69130952D01*
X101761904Y-69178571D01*
X101666666Y-69226190D01*
X101285714Y-69226190D01*
X102238095Y-68797619D02*
X102285714Y-68750000D01*
X102380952Y-68702380D01*
X102619047Y-68702380D01*
X102714285Y-68750000D01*
X102761904Y-68797619D01*
X102809523Y-68892857D01*
X102809523Y-68988095D01*
X102761904Y-69130952D01*
X102190476Y-69702380D01*
X102809523Y-69702380D01*
X103190476Y-68797619D02*
X103238095Y-68750000D01*
X103333333Y-68702380D01*
X103571428Y-68702380D01*
X103666666Y-68750000D01*
X103714285Y-68797619D01*
X103761904Y-68892857D01*
X103761904Y-68988095D01*
X103714285Y-69130952D01*
X103142857Y-69702380D01*
X103761904Y-69702380D01*
M02*
