G04 #@! TF.GenerationSoftware,KiCad,Pcbnew,5.0.0-rc2-dev-unknown-54f14b0~63~ubuntu16.04.1*
G04 #@! TF.CreationDate,2018-04-02T00:46:52+01:00*
G04 #@! TF.ProjectId,g5500-ethernet-controller,67353530302D65746865726E65742D63,rev?*
G04 #@! TF.SameCoordinates,Original*
G04 #@! TF.FileFunction,Copper,L2,Bot,Signal*
G04 #@! TF.FilePolarity,Positive*
%FSLAX46Y46*%
G04 Gerber Fmt 4.6, Leading zero omitted, Abs format (unit mm)*
G04 Created by KiCad (PCBNEW 5.0.0-rc2-dev-unknown-54f14b0~63~ubuntu16.04.1) date Mon Apr  2 00:46:52 2018*
%MOMM*%
%LPD*%
G01*
G04 APERTURE LIST*
%ADD10R,1.740000X2.200000*%
%ADD11O,1.740000X2.200000*%
%ADD12O,2.500000X2.500000*%
%ADD13R,2.500000X2.500000*%
%ADD14C,1.700000*%
%ADD15O,1.000000X1.250000*%
%ADD16O,1.000000X1.900000*%
%ADD17R,2.400000X5.000000*%
%ADD18R,2.200000X1.740000*%
%ADD19O,2.200000X1.740000*%
%ADD20C,1.600000*%
%ADD21C,0.800000*%
%ADD22C,0.400000*%
%ADD23C,0.800000*%
%ADD24C,1.600000*%
%ADD25C,1.200000*%
%ADD26C,0.254000*%
G04 APERTURE END LIST*
D10*
X81750000Y-144500000D03*
D11*
X84290000Y-144500000D03*
X86830000Y-144500000D03*
D12*
X85912963Y-119339017D03*
X85912963Y-131539017D03*
X73912963Y-131539017D03*
X73912963Y-119339017D03*
D13*
X79912963Y-117339017D03*
X80039300Y-88130960D03*
D12*
X74039300Y-90130960D03*
X74039300Y-102330960D03*
X86039300Y-102330960D03*
X86039300Y-90130960D03*
D13*
X105585681Y-88010085D03*
D12*
X99585681Y-90010085D03*
X99585681Y-102210085D03*
X111585681Y-102210085D03*
X111585681Y-90010085D03*
X111500000Y-119300000D03*
X111500000Y-131500000D03*
X99500000Y-131500000D03*
X99500000Y-119300000D03*
D13*
X105500000Y-117300000D03*
D14*
X60725001Y-60287500D03*
X63265001Y-60287500D03*
X60725001Y-62827500D03*
X63265001Y-62827500D03*
X60725001Y-65367500D03*
X63265001Y-65367500D03*
X60725001Y-67907500D03*
X63265001Y-67907500D03*
X60725001Y-70447500D03*
X63265001Y-70447500D03*
X60725001Y-72987500D03*
X63265001Y-72987500D03*
X60725001Y-75527500D03*
X63265001Y-75527500D03*
X60725001Y-78067500D03*
X63265001Y-78067500D03*
X60725001Y-80607500D03*
X63265001Y-80607500D03*
X60725001Y-83147500D03*
X63265001Y-83147500D03*
X60725001Y-85687500D03*
X63265001Y-85687500D03*
X60725001Y-88227500D03*
X63265001Y-88227500D03*
X60725001Y-90767500D03*
X63265001Y-90767500D03*
X60725001Y-93307500D03*
X63265001Y-93307500D03*
X60725001Y-95847500D03*
X63265001Y-95847500D03*
X60725001Y-98387500D03*
X63265001Y-98387500D03*
X60725001Y-100927500D03*
X63265001Y-100927500D03*
X60725001Y-103467500D03*
X63265001Y-103467500D03*
X60725001Y-106007500D03*
X63265001Y-106007500D03*
X60725001Y-108547500D03*
X63265001Y-108547500D03*
X60725001Y-111087500D03*
X63265001Y-111087500D03*
X60725001Y-113627500D03*
X63265001Y-113627500D03*
X60725001Y-116167500D03*
X63265001Y-116167500D03*
X60725001Y-118707500D03*
X63265001Y-118707500D03*
X60725001Y-121247500D03*
X63265001Y-121247500D03*
X60725001Y-123787500D03*
X63265001Y-123787500D03*
X60725001Y-126327500D03*
X63265001Y-126327500D03*
X60725001Y-128867500D03*
X63265001Y-128867500D03*
X60725001Y-131407500D03*
X63265001Y-131407500D03*
X60725001Y-133947500D03*
X63265001Y-133947500D03*
X60725001Y-136487500D03*
X63265001Y-136487500D03*
X60725001Y-139027500D03*
X63265001Y-139027500D03*
X60725001Y-141567500D03*
X63265001Y-141567500D03*
X60725001Y-144107500D03*
X63265001Y-144107500D03*
X60725001Y-146647500D03*
X63265001Y-146647500D03*
X60725001Y-149187500D03*
X63265001Y-149187500D03*
X121685001Y-60287500D03*
X124225001Y-60287500D03*
X121685001Y-62827500D03*
X124225001Y-62827500D03*
X121685001Y-65367500D03*
X124225001Y-65367500D03*
X121685001Y-67907500D03*
X124225001Y-67907500D03*
X121685001Y-70447500D03*
X124225001Y-70447500D03*
X121685001Y-72987500D03*
X124225001Y-72987500D03*
X121685001Y-75527500D03*
X124225001Y-75527500D03*
X121685001Y-78067500D03*
X124225001Y-78067500D03*
X121685001Y-80607500D03*
X124225001Y-80607500D03*
X121685001Y-83147500D03*
X124225001Y-83147500D03*
X121685001Y-85687500D03*
X124225001Y-85687500D03*
X121685001Y-88227500D03*
X124225001Y-88227500D03*
X121685001Y-90767500D03*
X124225001Y-90767500D03*
X121685001Y-93307500D03*
X124225001Y-93307500D03*
X121685001Y-95847500D03*
X124225001Y-95847500D03*
X121685001Y-98387500D03*
X124225001Y-98387500D03*
X121685001Y-100927500D03*
X124225001Y-100927500D03*
X121685001Y-103467500D03*
X124225001Y-103467500D03*
X121685001Y-106007500D03*
X124225001Y-106007500D03*
X121685001Y-108547500D03*
X124225001Y-108547500D03*
X121685001Y-111087500D03*
X124225001Y-111087500D03*
X121685001Y-113627500D03*
X124225001Y-113627500D03*
X121685001Y-116167500D03*
X124225001Y-116167500D03*
X121685001Y-118707500D03*
X124225001Y-118707500D03*
X121685001Y-121247500D03*
X124225001Y-121247500D03*
X121685001Y-123787500D03*
X124225001Y-123787500D03*
X121685001Y-126327500D03*
X124225001Y-126327500D03*
X121685001Y-128867500D03*
X124225001Y-128867500D03*
X121685001Y-131407500D03*
X124225001Y-131407500D03*
X121685001Y-133947500D03*
X124225001Y-133947500D03*
X121685001Y-136487500D03*
X124225001Y-136487500D03*
X121685001Y-139027500D03*
X124225001Y-139027500D03*
X121685001Y-141567500D03*
X124225001Y-141567500D03*
X121685001Y-144107500D03*
X124225001Y-144107500D03*
X121685001Y-146647500D03*
X124225001Y-146647500D03*
X121685001Y-149187500D03*
X124225001Y-149187500D03*
X60725001Y-32347500D03*
X60725001Y-34887500D03*
X124225001Y-32347500D03*
X124225001Y-34887500D03*
D15*
X104275000Y-32750000D03*
X108725000Y-32750000D03*
D16*
X102325000Y-29750000D03*
X110675000Y-29750000D03*
D17*
X77875000Y-31000000D03*
X69125000Y-31000000D03*
D18*
X97750000Y-53750000D03*
D19*
X97750000Y-56290000D03*
X97750000Y-58830000D03*
X97750000Y-73290000D03*
X97750000Y-70750000D03*
D18*
X97750000Y-68210000D03*
X80000000Y-70500000D03*
D19*
X80000000Y-73040000D03*
D11*
X103830000Y-144500000D03*
X101290000Y-144500000D03*
D10*
X98750000Y-144500000D03*
D20*
X70500000Y-54250000D03*
X80500000Y-54250000D03*
D10*
X86250000Y-32250000D03*
D11*
X88790000Y-32250000D03*
D10*
X100960000Y-42500000D03*
D11*
X103500000Y-42500000D03*
X106040000Y-42500000D03*
X122330000Y-42500000D03*
X119790000Y-42500000D03*
D10*
X117250000Y-42500000D03*
X114500000Y-144500000D03*
D11*
X117040000Y-144500000D03*
D10*
X67750000Y-144500000D03*
D11*
X70290000Y-144500000D03*
D21*
X92000000Y-42500000D03*
X96000000Y-45550000D03*
X92000000Y-45500000D03*
X102500000Y-72250000D03*
X107500000Y-72250000D03*
X102500000Y-52750000D03*
X85000000Y-46250000D03*
X65750000Y-39500000D03*
X67750000Y-39500000D03*
X70000000Y-39500000D03*
X64000000Y-49750000D03*
X64000000Y-52000000D03*
X80250000Y-40000000D03*
X80250000Y-38250000D03*
X80250000Y-36250000D03*
X64250000Y-43500000D03*
X64250000Y-41750000D03*
X64250000Y-39750000D03*
X64250000Y-37750000D03*
X64250000Y-35750000D03*
X79250000Y-46500000D03*
X64250000Y-34000000D03*
X64250000Y-32250000D03*
X64250000Y-30500000D03*
X64250000Y-28750000D03*
X102500000Y-57750000D03*
X107500000Y-57750000D03*
X102500000Y-59750000D03*
X110000000Y-54750000D03*
X110000000Y-69250000D03*
X94500000Y-67000000D03*
X94500000Y-74500000D03*
X94500000Y-69500000D03*
X94500000Y-72000000D03*
X102500000Y-74250000D03*
X105000000Y-74250000D03*
X107500000Y-74250000D03*
X110000000Y-74250000D03*
X110000000Y-67250000D03*
X107250000Y-67250000D03*
X105000000Y-67250000D03*
X102500000Y-67250000D03*
X94250000Y-57500000D03*
X94250000Y-55000000D03*
X94250000Y-52500000D03*
X105000000Y-52750000D03*
X107500000Y-52750000D03*
X110000000Y-52750000D03*
X110000000Y-59750000D03*
X107500000Y-59750000D03*
X105000000Y-59750000D03*
X94250000Y-60000000D03*
X69750000Y-52500000D03*
X69750000Y-50500000D03*
X112000000Y-57750000D03*
X111500000Y-72250000D03*
X75500000Y-39500000D03*
X73250000Y-39500000D03*
X68750000Y-34250000D03*
X68750000Y-35750000D03*
X67000000Y-34000000D03*
X67000000Y-32250000D03*
X67000000Y-30500000D03*
X67000000Y-28750000D03*
X66000000Y-49250000D03*
X64500000Y-47500000D03*
X64500000Y-46500000D03*
X65000000Y-45000000D03*
X66500000Y-45000000D03*
X86750000Y-46000000D03*
X88000000Y-46000000D03*
X90750000Y-42500000D03*
X88750000Y-41500000D03*
X84500000Y-41500000D03*
X83500000Y-41500000D03*
X80250000Y-34250000D03*
X80250000Y-32500000D03*
X80250000Y-30750000D03*
X80250000Y-29000000D03*
X75000000Y-43750000D03*
X80500000Y-41750000D03*
X79000000Y-41750000D03*
X77500000Y-41750000D03*
X76000000Y-41750000D03*
X72250000Y-54250000D03*
X80500000Y-46500000D03*
X77750000Y-46500000D03*
X76250000Y-46500000D03*
X75750000Y-48750000D03*
X74000000Y-48750000D03*
X72500000Y-48750000D03*
X78000000Y-54500000D03*
X80500000Y-52000000D03*
X71500000Y-28750000D03*
X71500000Y-30250000D03*
X71500000Y-31750000D03*
X71500000Y-33500000D03*
X75500000Y-30250000D03*
X75500000Y-31750000D03*
X75500000Y-33250000D03*
X75500000Y-28750000D03*
X72500000Y-35500000D03*
X74750000Y-34250000D03*
X74750000Y-35500000D03*
X76000000Y-38000000D03*
X76000000Y-37000000D03*
X74250000Y-39500000D03*
X72000000Y-39500000D03*
X99500000Y-80750000D03*
X75250000Y-80750000D03*
X74250000Y-109750000D03*
X100500000Y-109750000D03*
X68000000Y-69750000D03*
X68000000Y-71250000D03*
X91000000Y-65000000D03*
X70250000Y-78000000D03*
X86250000Y-86250000D03*
X87000000Y-107000008D03*
X111250000Y-81750000D03*
X111000000Y-109500018D03*
X63500000Y-53500000D03*
X69250000Y-49250000D03*
X98000000Y-98500000D03*
X88000000Y-98500000D03*
X67750000Y-59250000D03*
X67000000Y-61750000D03*
X118000000Y-78000000D03*
X118250000Y-73500000D03*
X97250000Y-43000000D03*
D22*
X92000000Y-42500000D02*
X92000000Y-45500000D01*
D23*
X92000000Y-45500000D02*
X95950000Y-45500000D01*
X95950000Y-45500000D02*
X96000000Y-45550000D01*
D24*
X117040000Y-144500000D02*
X117040000Y-141800000D01*
X117040000Y-141800000D02*
X119277500Y-139562500D01*
X119277500Y-139562500D02*
X119277500Y-139027500D01*
X68750000Y-136250000D02*
X70290000Y-137790000D01*
X70290000Y-137790000D02*
X70290000Y-144500000D01*
D23*
X118810000Y-46250000D02*
X118810000Y-67572499D01*
X118810000Y-67572499D02*
X121685001Y-70447500D01*
X120430420Y-70500000D02*
X113750000Y-70500000D01*
X113750000Y-70500000D02*
X113250000Y-70500000D01*
X113250000Y-70500000D02*
X111500000Y-72250000D01*
X109560000Y-46250000D02*
X118810000Y-46250000D01*
X118810000Y-46250000D02*
X122330000Y-42730000D01*
X122330000Y-42730000D02*
X122330000Y-42500000D01*
X106040000Y-42500000D02*
X106040000Y-42730000D01*
X106040000Y-42730000D02*
X109560000Y-46250000D01*
X100250000Y-34500000D02*
X106040000Y-40290000D01*
X106040000Y-40290000D02*
X106040000Y-42500000D01*
X90810000Y-34500000D02*
X100250000Y-34500000D01*
X88790000Y-32250000D02*
X88790000Y-32480000D01*
X88790000Y-32480000D02*
X90810000Y-34500000D01*
X113750000Y-59500000D02*
X112000000Y-57750000D01*
X113750000Y-70500000D02*
X113750000Y-59500000D01*
X121685001Y-70447500D02*
X120482920Y-70447500D01*
X120482920Y-70447500D02*
X120430420Y-70500000D01*
D24*
X66447500Y-133947500D02*
X68750000Y-136250000D01*
X63265001Y-133947500D02*
X66447500Y-133947500D01*
X68750000Y-136250000D02*
X116500000Y-136250000D01*
X116500000Y-136250000D02*
X119277500Y-139027500D01*
X119277500Y-139027500D02*
X121685001Y-139027500D01*
D25*
X82000000Y-80750000D02*
X99500000Y-80750000D01*
X69500000Y-80750000D02*
X75250000Y-80750000D01*
X75250000Y-80750000D02*
X82000000Y-80750000D01*
X74250000Y-109750000D02*
X81000000Y-109750000D01*
X81000000Y-109750000D02*
X100500000Y-109750000D01*
X72000000Y-109750000D02*
X74250000Y-109750000D01*
X69500000Y-107250000D02*
X72000000Y-109750000D01*
X69500000Y-80750000D02*
X69500000Y-107250000D01*
X68000000Y-79250000D02*
X69500000Y-80750000D01*
X68000000Y-77447070D02*
X68000000Y-79250000D01*
X68000000Y-71250000D02*
X68000000Y-77447070D01*
X68000000Y-69750000D02*
X68000000Y-71250000D01*
D22*
X121052500Y-70447500D02*
X121685001Y-70447500D01*
D23*
X76000000Y-65000000D02*
X91000000Y-65000000D01*
X73500000Y-67500000D02*
X76000000Y-65000000D01*
X70250000Y-78000000D02*
X73500000Y-78000000D01*
X73500000Y-78000000D02*
X73500000Y-67500000D01*
D22*
X88000000Y-86250000D02*
X86250000Y-86250000D01*
X98250000Y-96500000D02*
X88000000Y-86250000D01*
X113750000Y-96500000D02*
X98250000Y-96500000D01*
X119482500Y-90767500D02*
X113750000Y-96500000D01*
X121685001Y-90767500D02*
X119482500Y-90767500D01*
X116742501Y-98250000D02*
X111250000Y-98250000D01*
X111250000Y-98250000D02*
X102499992Y-107000008D01*
X87565685Y-107000008D02*
X87000000Y-107000008D01*
X102499992Y-107000008D02*
X87565685Y-107000008D01*
X121685001Y-93307500D02*
X116742501Y-98250000D01*
X116877501Y-87377501D02*
X111250000Y-81750000D01*
X121685001Y-88227500D02*
X120835002Y-87377501D01*
X120835002Y-87377501D02*
X116877501Y-87377501D01*
X111000000Y-106532501D02*
X111000000Y-109500018D01*
X121685001Y-95847500D02*
X111000000Y-106532501D01*
X65000000Y-53500000D02*
X63500000Y-53500000D01*
X69250000Y-49250000D02*
X65000000Y-53500000D01*
D23*
X88000000Y-98500000D02*
X98000000Y-98500000D01*
D22*
X65500000Y-61500000D02*
X67750000Y-59250000D01*
X65500000Y-64250000D02*
X65500000Y-61500000D01*
X62015000Y-109797501D02*
X63865002Y-109797501D01*
X60725001Y-111087500D02*
X62015000Y-109797501D01*
X63865002Y-109797501D02*
X65500000Y-108162503D01*
X65500000Y-108162503D02*
X65500000Y-64250000D01*
X66100010Y-62649990D02*
X67000000Y-61750000D01*
X66100010Y-64649990D02*
X66100010Y-62649990D01*
X63865002Y-112377499D02*
X61975002Y-112377499D01*
X66100010Y-110142491D02*
X63865002Y-112377499D01*
X66100010Y-64649990D02*
X66100010Y-110142491D01*
X61975002Y-112377499D02*
X61575000Y-112777501D01*
X61575000Y-112777501D02*
X60725001Y-113627500D01*
D23*
X118250000Y-77750000D02*
X118000000Y-78000000D01*
X118250000Y-73500000D02*
X118250000Y-77750000D01*
X95750000Y-43000000D02*
X97250000Y-43000000D01*
X86250000Y-33500000D02*
X95750000Y-43000000D01*
X86250000Y-32250000D02*
X86250000Y-33500000D01*
X86250000Y-32250000D02*
X86250000Y-32480000D01*
D26*
G36*
X80873000Y-28766721D02*
X80873000Y-52859188D01*
X80716777Y-52803035D01*
X80146546Y-52830222D01*
X79745995Y-52996136D01*
X79671861Y-53242255D01*
X80500000Y-54070395D01*
X80514143Y-54056253D01*
X80693748Y-54235858D01*
X80679605Y-54250000D01*
X80693748Y-54264143D01*
X80514143Y-54443748D01*
X80500000Y-54429605D01*
X80485858Y-54443748D01*
X80306252Y-54264142D01*
X80320395Y-54250000D01*
X79492255Y-53421861D01*
X79246136Y-53495995D01*
X79053035Y-54033223D01*
X79080222Y-54603454D01*
X79246136Y-55004005D01*
X79492253Y-55078139D01*
X79447392Y-55123000D01*
X71297186Y-55123000D01*
X71501203Y-54918983D01*
X71681000Y-54484915D01*
X71681000Y-54015085D01*
X71501203Y-53581017D01*
X71168983Y-53248797D01*
X70734915Y-53069000D01*
X70265085Y-53069000D01*
X69831017Y-53248797D01*
X69498797Y-53581017D01*
X69319000Y-54015085D01*
X69319000Y-54484915D01*
X69498797Y-54918983D01*
X69702814Y-55123000D01*
X64016721Y-55123000D01*
X63815741Y-55069148D01*
X63680852Y-54934259D01*
X63627000Y-54733279D01*
X63627000Y-54281000D01*
X63655351Y-54281000D01*
X63942401Y-54162100D01*
X64023501Y-54081000D01*
X64942782Y-54081000D01*
X65000000Y-54092381D01*
X65057218Y-54081000D01*
X65057222Y-54081000D01*
X65226695Y-54047290D01*
X65418877Y-53918877D01*
X65451292Y-53870365D01*
X69290658Y-50031000D01*
X69405351Y-50031000D01*
X69692401Y-49912100D01*
X69912100Y-49692401D01*
X70031000Y-49405351D01*
X70031000Y-49094649D01*
X69912100Y-48807599D01*
X69692401Y-48587900D01*
X69405351Y-48469000D01*
X69094649Y-48469000D01*
X68807599Y-48587900D01*
X68587900Y-48807599D01*
X68469000Y-49094649D01*
X68469000Y-49209342D01*
X64759343Y-52919000D01*
X64023501Y-52919000D01*
X63942401Y-52837900D01*
X63655351Y-52719000D01*
X63627000Y-52719000D01*
X63627000Y-28766721D01*
X63636571Y-28731000D01*
X80863429Y-28731000D01*
X80873000Y-28766721D01*
X80873000Y-28766721D01*
G37*
X80873000Y-28766721D02*
X80873000Y-52859188D01*
X80716777Y-52803035D01*
X80146546Y-52830222D01*
X79745995Y-52996136D01*
X79671861Y-53242255D01*
X80500000Y-54070395D01*
X80514143Y-54056253D01*
X80693748Y-54235858D01*
X80679605Y-54250000D01*
X80693748Y-54264143D01*
X80514143Y-54443748D01*
X80500000Y-54429605D01*
X80485858Y-54443748D01*
X80306252Y-54264142D01*
X80320395Y-54250000D01*
X79492255Y-53421861D01*
X79246136Y-53495995D01*
X79053035Y-54033223D01*
X79080222Y-54603454D01*
X79246136Y-55004005D01*
X79492253Y-55078139D01*
X79447392Y-55123000D01*
X71297186Y-55123000D01*
X71501203Y-54918983D01*
X71681000Y-54484915D01*
X71681000Y-54015085D01*
X71501203Y-53581017D01*
X71168983Y-53248797D01*
X70734915Y-53069000D01*
X70265085Y-53069000D01*
X69831017Y-53248797D01*
X69498797Y-53581017D01*
X69319000Y-54015085D01*
X69319000Y-54484915D01*
X69498797Y-54918983D01*
X69702814Y-55123000D01*
X64016721Y-55123000D01*
X63815741Y-55069148D01*
X63680852Y-54934259D01*
X63627000Y-54733279D01*
X63627000Y-54281000D01*
X63655351Y-54281000D01*
X63942401Y-54162100D01*
X64023501Y-54081000D01*
X64942782Y-54081000D01*
X65000000Y-54092381D01*
X65057218Y-54081000D01*
X65057222Y-54081000D01*
X65226695Y-54047290D01*
X65418877Y-53918877D01*
X65451292Y-53870365D01*
X69290658Y-50031000D01*
X69405351Y-50031000D01*
X69692401Y-49912100D01*
X69912100Y-49692401D01*
X70031000Y-49405351D01*
X70031000Y-49094649D01*
X69912100Y-48807599D01*
X69692401Y-48587900D01*
X69405351Y-48469000D01*
X69094649Y-48469000D01*
X68807599Y-48587900D01*
X68587900Y-48807599D01*
X68469000Y-49094649D01*
X68469000Y-49209342D01*
X64759343Y-52919000D01*
X64023501Y-52919000D01*
X63942401Y-52837900D01*
X63655351Y-52719000D01*
X63627000Y-52719000D01*
X63627000Y-28766721D01*
X63636571Y-28731000D01*
X80863429Y-28731000D01*
X80873000Y-28766721D01*
G36*
X90934259Y-41180852D02*
X91069148Y-41315741D01*
X91123000Y-41516721D01*
X91123000Y-46233279D01*
X91069148Y-46434259D01*
X90934259Y-46569148D01*
X90733279Y-46623000D01*
X83266721Y-46623000D01*
X83065741Y-46569148D01*
X82930852Y-46434259D01*
X82877000Y-46233279D01*
X82877000Y-41516721D01*
X82930852Y-41315741D01*
X83065741Y-41180852D01*
X83266721Y-41127000D01*
X90733279Y-41127000D01*
X90934259Y-41180852D01*
X90934259Y-41180852D01*
G37*
X90934259Y-41180852D02*
X91069148Y-41315741D01*
X91123000Y-41516721D01*
X91123000Y-46233279D01*
X91069148Y-46434259D01*
X90934259Y-46569148D01*
X90733279Y-46623000D01*
X83266721Y-46623000D01*
X83065741Y-46569148D01*
X82930852Y-46434259D01*
X82877000Y-46233279D01*
X82877000Y-41516721D01*
X82930852Y-41315741D01*
X83065741Y-41180852D01*
X83266721Y-41127000D01*
X90733279Y-41127000D01*
X90934259Y-41180852D01*
G36*
X125684259Y-58680852D02*
X125819148Y-58815741D01*
X125873000Y-59016721D01*
X125873000Y-150483279D01*
X125819148Y-150684259D01*
X125684259Y-150819148D01*
X125483279Y-150873000D01*
X120516721Y-150873000D01*
X120315741Y-150819148D01*
X120180852Y-150684259D01*
X120127000Y-150483279D01*
X120127000Y-150231458D01*
X120820648Y-150231458D01*
X120900921Y-150482759D01*
X121456280Y-150684218D01*
X122046459Y-150657815D01*
X122469081Y-150482759D01*
X122549354Y-150231458D01*
X123360648Y-150231458D01*
X123440921Y-150482759D01*
X123996280Y-150684218D01*
X124586459Y-150657815D01*
X125009081Y-150482759D01*
X125089354Y-150231458D01*
X124225001Y-149367105D01*
X123360648Y-150231458D01*
X122549354Y-150231458D01*
X121685001Y-149367105D01*
X120820648Y-150231458D01*
X120127000Y-150231458D01*
X120127000Y-148958779D01*
X120188283Y-148958779D01*
X120214686Y-149548958D01*
X120389742Y-149971580D01*
X120641043Y-150051853D01*
X121505396Y-149187500D01*
X121864606Y-149187500D01*
X122728959Y-150051853D01*
X122955001Y-149979648D01*
X123181043Y-150051853D01*
X124045396Y-149187500D01*
X124404606Y-149187500D01*
X125268959Y-150051853D01*
X125520260Y-149971580D01*
X125721719Y-149416221D01*
X125695316Y-148826042D01*
X125520260Y-148403420D01*
X125268959Y-148323147D01*
X124404606Y-149187500D01*
X124045396Y-149187500D01*
X123181043Y-148323147D01*
X122955001Y-148395352D01*
X122728959Y-148323147D01*
X121864606Y-149187500D01*
X121505396Y-149187500D01*
X120641043Y-148323147D01*
X120389742Y-148403420D01*
X120188283Y-148958779D01*
X120127000Y-148958779D01*
X120127000Y-146402639D01*
X120454001Y-146402639D01*
X120454001Y-146892361D01*
X120641409Y-147344806D01*
X120987695Y-147691092D01*
X121187117Y-147773695D01*
X120900921Y-147892241D01*
X120820648Y-148143542D01*
X121685001Y-149007895D01*
X122549354Y-148143542D01*
X122469081Y-147892241D01*
X122163930Y-147781546D01*
X122382307Y-147691092D01*
X122728593Y-147344806D01*
X122916001Y-146892361D01*
X122916001Y-146402639D01*
X122994001Y-146402639D01*
X122994001Y-146892361D01*
X123181409Y-147344806D01*
X123527695Y-147691092D01*
X123727117Y-147773695D01*
X123440921Y-147892241D01*
X123360648Y-148143542D01*
X124225001Y-149007895D01*
X125089354Y-148143542D01*
X125009081Y-147892241D01*
X124703930Y-147781546D01*
X124922307Y-147691092D01*
X125268593Y-147344806D01*
X125456001Y-146892361D01*
X125456001Y-146402639D01*
X125268593Y-145950194D01*
X124922307Y-145603908D01*
X124469862Y-145416500D01*
X123980140Y-145416500D01*
X123527695Y-145603908D01*
X123181409Y-145950194D01*
X122994001Y-146402639D01*
X122916001Y-146402639D01*
X122728593Y-145950194D01*
X122382307Y-145603908D01*
X121929862Y-145416500D01*
X121440140Y-145416500D01*
X120987695Y-145603908D01*
X120641409Y-145950194D01*
X120454001Y-146402639D01*
X120127000Y-146402639D01*
X120127000Y-143862639D01*
X120454001Y-143862639D01*
X120454001Y-144352361D01*
X120641409Y-144804806D01*
X120987695Y-145151092D01*
X121440140Y-145338500D01*
X121929862Y-145338500D01*
X122382307Y-145151092D01*
X122728593Y-144804806D01*
X122916001Y-144352361D01*
X122916001Y-143862639D01*
X122994001Y-143862639D01*
X122994001Y-144352361D01*
X123181409Y-144804806D01*
X123527695Y-145151092D01*
X123980140Y-145338500D01*
X124469862Y-145338500D01*
X124922307Y-145151092D01*
X125268593Y-144804806D01*
X125456001Y-144352361D01*
X125456001Y-143862639D01*
X125268593Y-143410194D01*
X124922307Y-143063908D01*
X124469862Y-142876500D01*
X123980140Y-142876500D01*
X123527695Y-143063908D01*
X123181409Y-143410194D01*
X122994001Y-143862639D01*
X122916001Y-143862639D01*
X122728593Y-143410194D01*
X122382307Y-143063908D01*
X121929862Y-142876500D01*
X121440140Y-142876500D01*
X120987695Y-143063908D01*
X120641409Y-143410194D01*
X120454001Y-143862639D01*
X120127000Y-143862639D01*
X120127000Y-141322639D01*
X120454001Y-141322639D01*
X120454001Y-141812361D01*
X120641409Y-142264806D01*
X120987695Y-142611092D01*
X121440140Y-142798500D01*
X121929862Y-142798500D01*
X122382307Y-142611092D01*
X122728593Y-142264806D01*
X122916001Y-141812361D01*
X122916001Y-141322639D01*
X122994001Y-141322639D01*
X122994001Y-141812361D01*
X123181409Y-142264806D01*
X123527695Y-142611092D01*
X123980140Y-142798500D01*
X124469862Y-142798500D01*
X124922307Y-142611092D01*
X125268593Y-142264806D01*
X125456001Y-141812361D01*
X125456001Y-141322639D01*
X125268593Y-140870194D01*
X124922307Y-140523908D01*
X124469862Y-140336500D01*
X123980140Y-140336500D01*
X123527695Y-140523908D01*
X123181409Y-140870194D01*
X122994001Y-141322639D01*
X122916001Y-141322639D01*
X122728593Y-140870194D01*
X122382307Y-140523908D01*
X122182885Y-140441305D01*
X122469081Y-140322759D01*
X122549354Y-140071458D01*
X121685001Y-139207105D01*
X120820648Y-140071458D01*
X120900921Y-140322759D01*
X121206072Y-140433454D01*
X120987695Y-140523908D01*
X120641409Y-140870194D01*
X120454001Y-141322639D01*
X120127000Y-141322639D01*
X120127000Y-138798779D01*
X120188283Y-138798779D01*
X120214686Y-139388958D01*
X120389742Y-139811580D01*
X120641043Y-139891853D01*
X121505396Y-139027500D01*
X121864606Y-139027500D01*
X122728959Y-139891853D01*
X122980260Y-139811580D01*
X123090955Y-139506429D01*
X123181409Y-139724806D01*
X123527695Y-140071092D01*
X123980140Y-140258500D01*
X124469862Y-140258500D01*
X124922307Y-140071092D01*
X125268593Y-139724806D01*
X125456001Y-139272361D01*
X125456001Y-138782639D01*
X125268593Y-138330194D01*
X124922307Y-137983908D01*
X124469862Y-137796500D01*
X123980140Y-137796500D01*
X123527695Y-137983908D01*
X123181409Y-138330194D01*
X123098806Y-138529616D01*
X122980260Y-138243420D01*
X122728959Y-138163147D01*
X121864606Y-139027500D01*
X121505396Y-139027500D01*
X120641043Y-138163147D01*
X120389742Y-138243420D01*
X120188283Y-138798779D01*
X120127000Y-138798779D01*
X120127000Y-136242639D01*
X120454001Y-136242639D01*
X120454001Y-136732361D01*
X120641409Y-137184806D01*
X120987695Y-137531092D01*
X121187117Y-137613695D01*
X120900921Y-137732241D01*
X120820648Y-137983542D01*
X121685001Y-138847895D01*
X122549354Y-137983542D01*
X122469081Y-137732241D01*
X122163930Y-137621546D01*
X122382307Y-137531092D01*
X122728593Y-137184806D01*
X122916001Y-136732361D01*
X122916001Y-136242639D01*
X122994001Y-136242639D01*
X122994001Y-136732361D01*
X123181409Y-137184806D01*
X123527695Y-137531092D01*
X123980140Y-137718500D01*
X124469862Y-137718500D01*
X124922307Y-137531092D01*
X125268593Y-137184806D01*
X125456001Y-136732361D01*
X125456001Y-136242639D01*
X125268593Y-135790194D01*
X124922307Y-135443908D01*
X124469862Y-135256500D01*
X123980140Y-135256500D01*
X123527695Y-135443908D01*
X123181409Y-135790194D01*
X122994001Y-136242639D01*
X122916001Y-136242639D01*
X122728593Y-135790194D01*
X122382307Y-135443908D01*
X121929862Y-135256500D01*
X121440140Y-135256500D01*
X120987695Y-135443908D01*
X120641409Y-135790194D01*
X120454001Y-136242639D01*
X120127000Y-136242639D01*
X120127000Y-133702639D01*
X120454001Y-133702639D01*
X120454001Y-134192361D01*
X120641409Y-134644806D01*
X120987695Y-134991092D01*
X121440140Y-135178500D01*
X121929862Y-135178500D01*
X122382307Y-134991092D01*
X122728593Y-134644806D01*
X122916001Y-134192361D01*
X122916001Y-133702639D01*
X122994001Y-133702639D01*
X122994001Y-134192361D01*
X123181409Y-134644806D01*
X123527695Y-134991092D01*
X123980140Y-135178500D01*
X124469862Y-135178500D01*
X124922307Y-134991092D01*
X125268593Y-134644806D01*
X125456001Y-134192361D01*
X125456001Y-133702639D01*
X125268593Y-133250194D01*
X124922307Y-132903908D01*
X124469862Y-132716500D01*
X123980140Y-132716500D01*
X123527695Y-132903908D01*
X123181409Y-133250194D01*
X122994001Y-133702639D01*
X122916001Y-133702639D01*
X122728593Y-133250194D01*
X122382307Y-132903908D01*
X121929862Y-132716500D01*
X121440140Y-132716500D01*
X120987695Y-132903908D01*
X120641409Y-133250194D01*
X120454001Y-133702639D01*
X120127000Y-133702639D01*
X120127000Y-131162639D01*
X120454001Y-131162639D01*
X120454001Y-131652361D01*
X120641409Y-132104806D01*
X120987695Y-132451092D01*
X121440140Y-132638500D01*
X121929862Y-132638500D01*
X122382307Y-132451092D01*
X122728593Y-132104806D01*
X122916001Y-131652361D01*
X122916001Y-131162639D01*
X122994001Y-131162639D01*
X122994001Y-131652361D01*
X123181409Y-132104806D01*
X123527695Y-132451092D01*
X123980140Y-132638500D01*
X124469862Y-132638500D01*
X124922307Y-132451092D01*
X125268593Y-132104806D01*
X125456001Y-131652361D01*
X125456001Y-131162639D01*
X125268593Y-130710194D01*
X124922307Y-130363908D01*
X124469862Y-130176500D01*
X123980140Y-130176500D01*
X123527695Y-130363908D01*
X123181409Y-130710194D01*
X122994001Y-131162639D01*
X122916001Y-131162639D01*
X122728593Y-130710194D01*
X122382307Y-130363908D01*
X121929862Y-130176500D01*
X121440140Y-130176500D01*
X120987695Y-130363908D01*
X120641409Y-130710194D01*
X120454001Y-131162639D01*
X120127000Y-131162639D01*
X120127000Y-128622639D01*
X120454001Y-128622639D01*
X120454001Y-129112361D01*
X120641409Y-129564806D01*
X120987695Y-129911092D01*
X121440140Y-130098500D01*
X121929862Y-130098500D01*
X122382307Y-129911092D01*
X122728593Y-129564806D01*
X122916001Y-129112361D01*
X122916001Y-128622639D01*
X122994001Y-128622639D01*
X122994001Y-129112361D01*
X123181409Y-129564806D01*
X123527695Y-129911092D01*
X123980140Y-130098500D01*
X124469862Y-130098500D01*
X124922307Y-129911092D01*
X125268593Y-129564806D01*
X125456001Y-129112361D01*
X125456001Y-128622639D01*
X125268593Y-128170194D01*
X124922307Y-127823908D01*
X124722885Y-127741305D01*
X125009081Y-127622759D01*
X125089354Y-127371458D01*
X124225001Y-126507105D01*
X123360648Y-127371458D01*
X123440921Y-127622759D01*
X123746072Y-127733454D01*
X123527695Y-127823908D01*
X123181409Y-128170194D01*
X122994001Y-128622639D01*
X122916001Y-128622639D01*
X122728593Y-128170194D01*
X122382307Y-127823908D01*
X121929862Y-127636500D01*
X121440140Y-127636500D01*
X120987695Y-127823908D01*
X120641409Y-128170194D01*
X120454001Y-128622639D01*
X120127000Y-128622639D01*
X120127000Y-126082639D01*
X120454001Y-126082639D01*
X120454001Y-126572361D01*
X120641409Y-127024806D01*
X120987695Y-127371092D01*
X121440140Y-127558500D01*
X121929862Y-127558500D01*
X122382307Y-127371092D01*
X122728593Y-127024806D01*
X122811196Y-126825384D01*
X122929742Y-127111580D01*
X123181043Y-127191853D01*
X124045396Y-126327500D01*
X124404606Y-126327500D01*
X125268959Y-127191853D01*
X125520260Y-127111580D01*
X125721719Y-126556221D01*
X125695316Y-125966042D01*
X125520260Y-125543420D01*
X125268959Y-125463147D01*
X124404606Y-126327500D01*
X124045396Y-126327500D01*
X123181043Y-125463147D01*
X122929742Y-125543420D01*
X122819047Y-125848571D01*
X122728593Y-125630194D01*
X122382307Y-125283908D01*
X121929862Y-125096500D01*
X121440140Y-125096500D01*
X120987695Y-125283908D01*
X120641409Y-125630194D01*
X120454001Y-126082639D01*
X120127000Y-126082639D01*
X120127000Y-123542639D01*
X120454001Y-123542639D01*
X120454001Y-124032361D01*
X120641409Y-124484806D01*
X120987695Y-124831092D01*
X121440140Y-125018500D01*
X121929862Y-125018500D01*
X122382307Y-124831092D01*
X122728593Y-124484806D01*
X122916001Y-124032361D01*
X122916001Y-123542639D01*
X122994001Y-123542639D01*
X122994001Y-124032361D01*
X123181409Y-124484806D01*
X123527695Y-124831092D01*
X123727117Y-124913695D01*
X123440921Y-125032241D01*
X123360648Y-125283542D01*
X124225001Y-126147895D01*
X125089354Y-125283542D01*
X125009081Y-125032241D01*
X124703930Y-124921546D01*
X124922307Y-124831092D01*
X125268593Y-124484806D01*
X125456001Y-124032361D01*
X125456001Y-123542639D01*
X125268593Y-123090194D01*
X124922307Y-122743908D01*
X124469862Y-122556500D01*
X123980140Y-122556500D01*
X123527695Y-122743908D01*
X123181409Y-123090194D01*
X122994001Y-123542639D01*
X122916001Y-123542639D01*
X122728593Y-123090194D01*
X122382307Y-122743908D01*
X121929862Y-122556500D01*
X121440140Y-122556500D01*
X120987695Y-122743908D01*
X120641409Y-123090194D01*
X120454001Y-123542639D01*
X120127000Y-123542639D01*
X120127000Y-121002639D01*
X120454001Y-121002639D01*
X120454001Y-121492361D01*
X120641409Y-121944806D01*
X120987695Y-122291092D01*
X121440140Y-122478500D01*
X121929862Y-122478500D01*
X122382307Y-122291092D01*
X122728593Y-121944806D01*
X122916001Y-121492361D01*
X122916001Y-121002639D01*
X122994001Y-121002639D01*
X122994001Y-121492361D01*
X123181409Y-121944806D01*
X123527695Y-122291092D01*
X123980140Y-122478500D01*
X124469862Y-122478500D01*
X124922307Y-122291092D01*
X125268593Y-121944806D01*
X125456001Y-121492361D01*
X125456001Y-121002639D01*
X125268593Y-120550194D01*
X124922307Y-120203908D01*
X124469862Y-120016500D01*
X123980140Y-120016500D01*
X123527695Y-120203908D01*
X123181409Y-120550194D01*
X122994001Y-121002639D01*
X122916001Y-121002639D01*
X122728593Y-120550194D01*
X122382307Y-120203908D01*
X121929862Y-120016500D01*
X121440140Y-120016500D01*
X120987695Y-120203908D01*
X120641409Y-120550194D01*
X120454001Y-121002639D01*
X120127000Y-121002639D01*
X120127000Y-118462639D01*
X120454001Y-118462639D01*
X120454001Y-118952361D01*
X120641409Y-119404806D01*
X120987695Y-119751092D01*
X121440140Y-119938500D01*
X121929862Y-119938500D01*
X122382307Y-119751092D01*
X122728593Y-119404806D01*
X122916001Y-118952361D01*
X122916001Y-118462639D01*
X122994001Y-118462639D01*
X122994001Y-118952361D01*
X123181409Y-119404806D01*
X123527695Y-119751092D01*
X123980140Y-119938500D01*
X124469862Y-119938500D01*
X124922307Y-119751092D01*
X125268593Y-119404806D01*
X125456001Y-118952361D01*
X125456001Y-118462639D01*
X125268593Y-118010194D01*
X124922307Y-117663908D01*
X124469862Y-117476500D01*
X123980140Y-117476500D01*
X123527695Y-117663908D01*
X123181409Y-118010194D01*
X122994001Y-118462639D01*
X122916001Y-118462639D01*
X122728593Y-118010194D01*
X122382307Y-117663908D01*
X121929862Y-117476500D01*
X121440140Y-117476500D01*
X120987695Y-117663908D01*
X120641409Y-118010194D01*
X120454001Y-118462639D01*
X120127000Y-118462639D01*
X120127000Y-115922639D01*
X120454001Y-115922639D01*
X120454001Y-116412361D01*
X120641409Y-116864806D01*
X120987695Y-117211092D01*
X121440140Y-117398500D01*
X121929862Y-117398500D01*
X122382307Y-117211092D01*
X122728593Y-116864806D01*
X122916001Y-116412361D01*
X122916001Y-115922639D01*
X122994001Y-115922639D01*
X122994001Y-116412361D01*
X123181409Y-116864806D01*
X123527695Y-117211092D01*
X123980140Y-117398500D01*
X124469862Y-117398500D01*
X124922307Y-117211092D01*
X125268593Y-116864806D01*
X125456001Y-116412361D01*
X125456001Y-115922639D01*
X125268593Y-115470194D01*
X124922307Y-115123908D01*
X124469862Y-114936500D01*
X123980140Y-114936500D01*
X123527695Y-115123908D01*
X123181409Y-115470194D01*
X122994001Y-115922639D01*
X122916001Y-115922639D01*
X122728593Y-115470194D01*
X122382307Y-115123908D01*
X121929862Y-114936500D01*
X121440140Y-114936500D01*
X120987695Y-115123908D01*
X120641409Y-115470194D01*
X120454001Y-115922639D01*
X120127000Y-115922639D01*
X120127000Y-113382639D01*
X120454001Y-113382639D01*
X120454001Y-113872361D01*
X120641409Y-114324806D01*
X120987695Y-114671092D01*
X121440140Y-114858500D01*
X121929862Y-114858500D01*
X122382307Y-114671092D01*
X122728593Y-114324806D01*
X122916001Y-113872361D01*
X122916001Y-113382639D01*
X122994001Y-113382639D01*
X122994001Y-113872361D01*
X123181409Y-114324806D01*
X123527695Y-114671092D01*
X123980140Y-114858500D01*
X124469862Y-114858500D01*
X124922307Y-114671092D01*
X125268593Y-114324806D01*
X125456001Y-113872361D01*
X125456001Y-113382639D01*
X125268593Y-112930194D01*
X124922307Y-112583908D01*
X124469862Y-112396500D01*
X123980140Y-112396500D01*
X123527695Y-112583908D01*
X123181409Y-112930194D01*
X122994001Y-113382639D01*
X122916001Y-113382639D01*
X122728593Y-112930194D01*
X122382307Y-112583908D01*
X121929862Y-112396500D01*
X121440140Y-112396500D01*
X120987695Y-112583908D01*
X120641409Y-112930194D01*
X120454001Y-113382639D01*
X120127000Y-113382639D01*
X120127000Y-110842639D01*
X120454001Y-110842639D01*
X120454001Y-111332361D01*
X120641409Y-111784806D01*
X120987695Y-112131092D01*
X121440140Y-112318500D01*
X121929862Y-112318500D01*
X122382307Y-112131092D01*
X122728593Y-111784806D01*
X122916001Y-111332361D01*
X122916001Y-110842639D01*
X122994001Y-110842639D01*
X122994001Y-111332361D01*
X123181409Y-111784806D01*
X123527695Y-112131092D01*
X123980140Y-112318500D01*
X124469862Y-112318500D01*
X124922307Y-112131092D01*
X125268593Y-111784806D01*
X125456001Y-111332361D01*
X125456001Y-110842639D01*
X125268593Y-110390194D01*
X124922307Y-110043908D01*
X124469862Y-109856500D01*
X123980140Y-109856500D01*
X123527695Y-110043908D01*
X123181409Y-110390194D01*
X122994001Y-110842639D01*
X122916001Y-110842639D01*
X122728593Y-110390194D01*
X122382307Y-110043908D01*
X122182885Y-109961305D01*
X122469081Y-109842759D01*
X122549354Y-109591458D01*
X121685001Y-108727105D01*
X120820648Y-109591458D01*
X120900921Y-109842759D01*
X121206072Y-109953454D01*
X120987695Y-110043908D01*
X120641409Y-110390194D01*
X120454001Y-110842639D01*
X120127000Y-110842639D01*
X120127000Y-108318779D01*
X120188283Y-108318779D01*
X120214686Y-108908958D01*
X120389742Y-109331580D01*
X120641043Y-109411853D01*
X121505396Y-108547500D01*
X121864606Y-108547500D01*
X122728959Y-109411853D01*
X122980260Y-109331580D01*
X123090955Y-109026429D01*
X123181409Y-109244806D01*
X123527695Y-109591092D01*
X123980140Y-109778500D01*
X124469862Y-109778500D01*
X124922307Y-109591092D01*
X125268593Y-109244806D01*
X125456001Y-108792361D01*
X125456001Y-108302639D01*
X125268593Y-107850194D01*
X124922307Y-107503908D01*
X124469862Y-107316500D01*
X123980140Y-107316500D01*
X123527695Y-107503908D01*
X123181409Y-107850194D01*
X123098806Y-108049616D01*
X122980260Y-107763420D01*
X122728959Y-107683147D01*
X121864606Y-108547500D01*
X121505396Y-108547500D01*
X120641043Y-107683147D01*
X120389742Y-107763420D01*
X120188283Y-108318779D01*
X120127000Y-108318779D01*
X120127000Y-105762639D01*
X120454001Y-105762639D01*
X120454001Y-106252361D01*
X120641409Y-106704806D01*
X120987695Y-107051092D01*
X121187117Y-107133695D01*
X120900921Y-107252241D01*
X120820648Y-107503542D01*
X121685001Y-108367895D01*
X122549354Y-107503542D01*
X122469081Y-107252241D01*
X122163930Y-107141546D01*
X122382307Y-107051092D01*
X122728593Y-106704806D01*
X122916001Y-106252361D01*
X122916001Y-105762639D01*
X122994001Y-105762639D01*
X122994001Y-106252361D01*
X123181409Y-106704806D01*
X123527695Y-107051092D01*
X123980140Y-107238500D01*
X124469862Y-107238500D01*
X124922307Y-107051092D01*
X125268593Y-106704806D01*
X125456001Y-106252361D01*
X125456001Y-105762639D01*
X125268593Y-105310194D01*
X124922307Y-104963908D01*
X124469862Y-104776500D01*
X123980140Y-104776500D01*
X123527695Y-104963908D01*
X123181409Y-105310194D01*
X122994001Y-105762639D01*
X122916001Y-105762639D01*
X122728593Y-105310194D01*
X122382307Y-104963908D01*
X121929862Y-104776500D01*
X121440140Y-104776500D01*
X120987695Y-104963908D01*
X120641409Y-105310194D01*
X120454001Y-105762639D01*
X120127000Y-105762639D01*
X120127000Y-103222639D01*
X120454001Y-103222639D01*
X120454001Y-103712361D01*
X120641409Y-104164806D01*
X120987695Y-104511092D01*
X121440140Y-104698500D01*
X121929862Y-104698500D01*
X122382307Y-104511092D01*
X122728593Y-104164806D01*
X122916001Y-103712361D01*
X122916001Y-103222639D01*
X122994001Y-103222639D01*
X122994001Y-103712361D01*
X123181409Y-104164806D01*
X123527695Y-104511092D01*
X123980140Y-104698500D01*
X124469862Y-104698500D01*
X124922307Y-104511092D01*
X125268593Y-104164806D01*
X125456001Y-103712361D01*
X125456001Y-103222639D01*
X125268593Y-102770194D01*
X124922307Y-102423908D01*
X124469862Y-102236500D01*
X123980140Y-102236500D01*
X123527695Y-102423908D01*
X123181409Y-102770194D01*
X122994001Y-103222639D01*
X122916001Y-103222639D01*
X122728593Y-102770194D01*
X122382307Y-102423908D01*
X121929862Y-102236500D01*
X121440140Y-102236500D01*
X120987695Y-102423908D01*
X120641409Y-102770194D01*
X120454001Y-103222639D01*
X120127000Y-103222639D01*
X120127000Y-100682639D01*
X120454001Y-100682639D01*
X120454001Y-101172361D01*
X120641409Y-101624806D01*
X120987695Y-101971092D01*
X121440140Y-102158500D01*
X121929862Y-102158500D01*
X122382307Y-101971092D01*
X122728593Y-101624806D01*
X122916001Y-101172361D01*
X122916001Y-100682639D01*
X122994001Y-100682639D01*
X122994001Y-101172361D01*
X123181409Y-101624806D01*
X123527695Y-101971092D01*
X123980140Y-102158500D01*
X124469862Y-102158500D01*
X124922307Y-101971092D01*
X125268593Y-101624806D01*
X125456001Y-101172361D01*
X125456001Y-100682639D01*
X125268593Y-100230194D01*
X124922307Y-99883908D01*
X124722885Y-99801305D01*
X125009081Y-99682759D01*
X125089354Y-99431458D01*
X124225001Y-98567105D01*
X123360648Y-99431458D01*
X123440921Y-99682759D01*
X123746072Y-99793454D01*
X123527695Y-99883908D01*
X123181409Y-100230194D01*
X122994001Y-100682639D01*
X122916001Y-100682639D01*
X122728593Y-100230194D01*
X122382307Y-99883908D01*
X121929862Y-99696500D01*
X121440140Y-99696500D01*
X120987695Y-99883908D01*
X120641409Y-100230194D01*
X120454001Y-100682639D01*
X120127000Y-100682639D01*
X120127000Y-98227159D01*
X120625460Y-97728699D01*
X120454001Y-98142639D01*
X120454001Y-98632361D01*
X120641409Y-99084806D01*
X120987695Y-99431092D01*
X121440140Y-99618500D01*
X121929862Y-99618500D01*
X122382307Y-99431092D01*
X122728593Y-99084806D01*
X122811196Y-98885384D01*
X122929742Y-99171580D01*
X123181043Y-99251853D01*
X124045396Y-98387500D01*
X124404606Y-98387500D01*
X125268959Y-99251853D01*
X125520260Y-99171580D01*
X125721719Y-98616221D01*
X125695316Y-98026042D01*
X125520260Y-97603420D01*
X125268959Y-97523147D01*
X124404606Y-98387500D01*
X124045396Y-98387500D01*
X123181043Y-97523147D01*
X122929742Y-97603420D01*
X122819047Y-97908571D01*
X122728593Y-97690194D01*
X122382307Y-97343908D01*
X121929862Y-97156500D01*
X121440140Y-97156500D01*
X121026200Y-97327959D01*
X121323834Y-97030325D01*
X121440140Y-97078500D01*
X121929862Y-97078500D01*
X122382307Y-96891092D01*
X122728593Y-96544806D01*
X122916001Y-96092361D01*
X122916001Y-95602639D01*
X122994001Y-95602639D01*
X122994001Y-96092361D01*
X123181409Y-96544806D01*
X123527695Y-96891092D01*
X123727117Y-96973695D01*
X123440921Y-97092241D01*
X123360648Y-97343542D01*
X124225001Y-98207895D01*
X125089354Y-97343542D01*
X125009081Y-97092241D01*
X124703930Y-96981546D01*
X124922307Y-96891092D01*
X125268593Y-96544806D01*
X125456001Y-96092361D01*
X125456001Y-95602639D01*
X125268593Y-95150194D01*
X124922307Y-94803908D01*
X124469862Y-94616500D01*
X123980140Y-94616500D01*
X123527695Y-94803908D01*
X123181409Y-95150194D01*
X122994001Y-95602639D01*
X122916001Y-95602639D01*
X122728593Y-95150194D01*
X122382307Y-94803908D01*
X121929862Y-94616500D01*
X121440140Y-94616500D01*
X121026200Y-94787959D01*
X121323834Y-94490325D01*
X121440140Y-94538500D01*
X121929862Y-94538500D01*
X122382307Y-94351092D01*
X122728593Y-94004806D01*
X122916001Y-93552361D01*
X122916001Y-93062639D01*
X122994001Y-93062639D01*
X122994001Y-93552361D01*
X123181409Y-94004806D01*
X123527695Y-94351092D01*
X123980140Y-94538500D01*
X124469862Y-94538500D01*
X124922307Y-94351092D01*
X125268593Y-94004806D01*
X125456001Y-93552361D01*
X125456001Y-93062639D01*
X125268593Y-92610194D01*
X124922307Y-92263908D01*
X124469862Y-92076500D01*
X123980140Y-92076500D01*
X123527695Y-92263908D01*
X123181409Y-92610194D01*
X122994001Y-93062639D01*
X122916001Y-93062639D01*
X122728593Y-92610194D01*
X122382307Y-92263908D01*
X121929862Y-92076500D01*
X121440140Y-92076500D01*
X120987695Y-92263908D01*
X120641409Y-92610194D01*
X120454001Y-93062639D01*
X120454001Y-93552361D01*
X120502176Y-93668667D01*
X120127000Y-94043843D01*
X120127000Y-91348500D01*
X120593234Y-91348500D01*
X120641409Y-91464806D01*
X120987695Y-91811092D01*
X121440140Y-91998500D01*
X121929862Y-91998500D01*
X122382307Y-91811092D01*
X122728593Y-91464806D01*
X122916001Y-91012361D01*
X122916001Y-90522639D01*
X122994001Y-90522639D01*
X122994001Y-91012361D01*
X123181409Y-91464806D01*
X123527695Y-91811092D01*
X123980140Y-91998500D01*
X124469862Y-91998500D01*
X124922307Y-91811092D01*
X125268593Y-91464806D01*
X125456001Y-91012361D01*
X125456001Y-90522639D01*
X125268593Y-90070194D01*
X124922307Y-89723908D01*
X124469862Y-89536500D01*
X123980140Y-89536500D01*
X123527695Y-89723908D01*
X123181409Y-90070194D01*
X122994001Y-90522639D01*
X122916001Y-90522639D01*
X122728593Y-90070194D01*
X122382307Y-89723908D01*
X121929862Y-89536500D01*
X121440140Y-89536500D01*
X120987695Y-89723908D01*
X120641409Y-90070194D01*
X120593234Y-90186500D01*
X120127000Y-90186500D01*
X120127000Y-87958501D01*
X120463999Y-87958501D01*
X120454001Y-87982639D01*
X120454001Y-88472361D01*
X120641409Y-88924806D01*
X120987695Y-89271092D01*
X121440140Y-89458500D01*
X121929862Y-89458500D01*
X122382307Y-89271092D01*
X122728593Y-88924806D01*
X122916001Y-88472361D01*
X122916001Y-87982639D01*
X122994001Y-87982639D01*
X122994001Y-88472361D01*
X123181409Y-88924806D01*
X123527695Y-89271092D01*
X123980140Y-89458500D01*
X124469862Y-89458500D01*
X124922307Y-89271092D01*
X125268593Y-88924806D01*
X125456001Y-88472361D01*
X125456001Y-87982639D01*
X125268593Y-87530194D01*
X124922307Y-87183908D01*
X124469862Y-86996500D01*
X123980140Y-86996500D01*
X123527695Y-87183908D01*
X123181409Y-87530194D01*
X122994001Y-87982639D01*
X122916001Y-87982639D01*
X122728593Y-87530194D01*
X122382307Y-87183908D01*
X121929862Y-86996500D01*
X121440140Y-86996500D01*
X121323834Y-87044675D01*
X121286294Y-87007135D01*
X121253879Y-86958624D01*
X121061697Y-86830211D01*
X120892224Y-86796501D01*
X120892220Y-86796501D01*
X120835002Y-86785120D01*
X120777784Y-86796501D01*
X120127000Y-86796501D01*
X120127000Y-85442639D01*
X120454001Y-85442639D01*
X120454001Y-85932361D01*
X120641409Y-86384806D01*
X120987695Y-86731092D01*
X121440140Y-86918500D01*
X121929862Y-86918500D01*
X122382307Y-86731092D01*
X122728593Y-86384806D01*
X122916001Y-85932361D01*
X122916001Y-85442639D01*
X122994001Y-85442639D01*
X122994001Y-85932361D01*
X123181409Y-86384806D01*
X123527695Y-86731092D01*
X123980140Y-86918500D01*
X124469862Y-86918500D01*
X124922307Y-86731092D01*
X125268593Y-86384806D01*
X125456001Y-85932361D01*
X125456001Y-85442639D01*
X125268593Y-84990194D01*
X124922307Y-84643908D01*
X124722885Y-84561305D01*
X125009081Y-84442759D01*
X125089354Y-84191458D01*
X124225001Y-83327105D01*
X123360648Y-84191458D01*
X123440921Y-84442759D01*
X123746072Y-84553454D01*
X123527695Y-84643908D01*
X123181409Y-84990194D01*
X122994001Y-85442639D01*
X122916001Y-85442639D01*
X122728593Y-84990194D01*
X122382307Y-84643908D01*
X121929862Y-84456500D01*
X121440140Y-84456500D01*
X120987695Y-84643908D01*
X120641409Y-84990194D01*
X120454001Y-85442639D01*
X120127000Y-85442639D01*
X120127000Y-82902639D01*
X120454001Y-82902639D01*
X120454001Y-83392361D01*
X120641409Y-83844806D01*
X120987695Y-84191092D01*
X121440140Y-84378500D01*
X121929862Y-84378500D01*
X122382307Y-84191092D01*
X122728593Y-83844806D01*
X122811196Y-83645384D01*
X122929742Y-83931580D01*
X123181043Y-84011853D01*
X124045396Y-83147500D01*
X124404606Y-83147500D01*
X125268959Y-84011853D01*
X125520260Y-83931580D01*
X125721719Y-83376221D01*
X125695316Y-82786042D01*
X125520260Y-82363420D01*
X125268959Y-82283147D01*
X124404606Y-83147500D01*
X124045396Y-83147500D01*
X123181043Y-82283147D01*
X122929742Y-82363420D01*
X122819047Y-82668571D01*
X122728593Y-82450194D01*
X122382307Y-82103908D01*
X121929862Y-81916500D01*
X121440140Y-81916500D01*
X120987695Y-82103908D01*
X120641409Y-82450194D01*
X120454001Y-82902639D01*
X120127000Y-82902639D01*
X120127000Y-80362639D01*
X120454001Y-80362639D01*
X120454001Y-80852361D01*
X120641409Y-81304806D01*
X120987695Y-81651092D01*
X121440140Y-81838500D01*
X121929862Y-81838500D01*
X122382307Y-81651092D01*
X122728593Y-81304806D01*
X122916001Y-80852361D01*
X122916001Y-80362639D01*
X122994001Y-80362639D01*
X122994001Y-80852361D01*
X123181409Y-81304806D01*
X123527695Y-81651092D01*
X123727117Y-81733695D01*
X123440921Y-81852241D01*
X123360648Y-82103542D01*
X124225001Y-82967895D01*
X125089354Y-82103542D01*
X125009081Y-81852241D01*
X124703930Y-81741546D01*
X124922307Y-81651092D01*
X125268593Y-81304806D01*
X125456001Y-80852361D01*
X125456001Y-80362639D01*
X125268593Y-79910194D01*
X124922307Y-79563908D01*
X124469862Y-79376500D01*
X123980140Y-79376500D01*
X123527695Y-79563908D01*
X123181409Y-79910194D01*
X122994001Y-80362639D01*
X122916001Y-80362639D01*
X122728593Y-79910194D01*
X122382307Y-79563908D01*
X121929862Y-79376500D01*
X121440140Y-79376500D01*
X120987695Y-79563908D01*
X120641409Y-79910194D01*
X120454001Y-80362639D01*
X120127000Y-80362639D01*
X120127000Y-77822639D01*
X120454001Y-77822639D01*
X120454001Y-78312361D01*
X120641409Y-78764806D01*
X120987695Y-79111092D01*
X121440140Y-79298500D01*
X121929862Y-79298500D01*
X122382307Y-79111092D01*
X122728593Y-78764806D01*
X122916001Y-78312361D01*
X122916001Y-77822639D01*
X122994001Y-77822639D01*
X122994001Y-78312361D01*
X123181409Y-78764806D01*
X123527695Y-79111092D01*
X123980140Y-79298500D01*
X124469862Y-79298500D01*
X124922307Y-79111092D01*
X125268593Y-78764806D01*
X125456001Y-78312361D01*
X125456001Y-77822639D01*
X125268593Y-77370194D01*
X124922307Y-77023908D01*
X124469862Y-76836500D01*
X123980140Y-76836500D01*
X123527695Y-77023908D01*
X123181409Y-77370194D01*
X122994001Y-77822639D01*
X122916001Y-77822639D01*
X122728593Y-77370194D01*
X122382307Y-77023908D01*
X121929862Y-76836500D01*
X121440140Y-76836500D01*
X120987695Y-77023908D01*
X120641409Y-77370194D01*
X120454001Y-77822639D01*
X120127000Y-77822639D01*
X120127000Y-75282639D01*
X120454001Y-75282639D01*
X120454001Y-75772361D01*
X120641409Y-76224806D01*
X120987695Y-76571092D01*
X121440140Y-76758500D01*
X121929862Y-76758500D01*
X122382307Y-76571092D01*
X122728593Y-76224806D01*
X122916001Y-75772361D01*
X122916001Y-75282639D01*
X122994001Y-75282639D01*
X122994001Y-75772361D01*
X123181409Y-76224806D01*
X123527695Y-76571092D01*
X123980140Y-76758500D01*
X124469862Y-76758500D01*
X124922307Y-76571092D01*
X125268593Y-76224806D01*
X125456001Y-75772361D01*
X125456001Y-75282639D01*
X125268593Y-74830194D01*
X124922307Y-74483908D01*
X124469862Y-74296500D01*
X123980140Y-74296500D01*
X123527695Y-74483908D01*
X123181409Y-74830194D01*
X122994001Y-75282639D01*
X122916001Y-75282639D01*
X122728593Y-74830194D01*
X122382307Y-74483908D01*
X121929862Y-74296500D01*
X121440140Y-74296500D01*
X120987695Y-74483908D01*
X120641409Y-74830194D01*
X120454001Y-75282639D01*
X120127000Y-75282639D01*
X120127000Y-72742639D01*
X120454001Y-72742639D01*
X120454001Y-73232361D01*
X120641409Y-73684806D01*
X120987695Y-74031092D01*
X121440140Y-74218500D01*
X121929862Y-74218500D01*
X122382307Y-74031092D01*
X122728593Y-73684806D01*
X122916001Y-73232361D01*
X122916001Y-72742639D01*
X122994001Y-72742639D01*
X122994001Y-73232361D01*
X123181409Y-73684806D01*
X123527695Y-74031092D01*
X123980140Y-74218500D01*
X124469862Y-74218500D01*
X124922307Y-74031092D01*
X125268593Y-73684806D01*
X125456001Y-73232361D01*
X125456001Y-72742639D01*
X125268593Y-72290194D01*
X124922307Y-71943908D01*
X124469862Y-71756500D01*
X123980140Y-71756500D01*
X123527695Y-71943908D01*
X123181409Y-72290194D01*
X122994001Y-72742639D01*
X122916001Y-72742639D01*
X122728593Y-72290194D01*
X122382307Y-71943908D01*
X122182885Y-71861305D01*
X122469081Y-71742759D01*
X122549354Y-71491458D01*
X121685001Y-70627105D01*
X120820648Y-71491458D01*
X120900921Y-71742759D01*
X121206072Y-71853454D01*
X120987695Y-71943908D01*
X120641409Y-72290194D01*
X120454001Y-72742639D01*
X120127000Y-72742639D01*
X120127000Y-70218779D01*
X120188283Y-70218779D01*
X120214686Y-70808958D01*
X120389742Y-71231580D01*
X120641043Y-71311853D01*
X121505396Y-70447500D01*
X121864606Y-70447500D01*
X122728959Y-71311853D01*
X122980260Y-71231580D01*
X123090955Y-70926429D01*
X123181409Y-71144806D01*
X123527695Y-71491092D01*
X123980140Y-71678500D01*
X124469862Y-71678500D01*
X124922307Y-71491092D01*
X125268593Y-71144806D01*
X125456001Y-70692361D01*
X125456001Y-70202639D01*
X125268593Y-69750194D01*
X124922307Y-69403908D01*
X124469862Y-69216500D01*
X123980140Y-69216500D01*
X123527695Y-69403908D01*
X123181409Y-69750194D01*
X123098806Y-69949616D01*
X122980260Y-69663420D01*
X122728959Y-69583147D01*
X121864606Y-70447500D01*
X121505396Y-70447500D01*
X120641043Y-69583147D01*
X120389742Y-69663420D01*
X120188283Y-70218779D01*
X120127000Y-70218779D01*
X120127000Y-67662639D01*
X120454001Y-67662639D01*
X120454001Y-68152361D01*
X120641409Y-68604806D01*
X120987695Y-68951092D01*
X121187117Y-69033695D01*
X120900921Y-69152241D01*
X120820648Y-69403542D01*
X121685001Y-70267895D01*
X122549354Y-69403542D01*
X122469081Y-69152241D01*
X122163930Y-69041546D01*
X122382307Y-68951092D01*
X122728593Y-68604806D01*
X122916001Y-68152361D01*
X122916001Y-67662639D01*
X122994001Y-67662639D01*
X122994001Y-68152361D01*
X123181409Y-68604806D01*
X123527695Y-68951092D01*
X123980140Y-69138500D01*
X124469862Y-69138500D01*
X124922307Y-68951092D01*
X125268593Y-68604806D01*
X125456001Y-68152361D01*
X125456001Y-67662639D01*
X125268593Y-67210194D01*
X124922307Y-66863908D01*
X124469862Y-66676500D01*
X123980140Y-66676500D01*
X123527695Y-66863908D01*
X123181409Y-67210194D01*
X122994001Y-67662639D01*
X122916001Y-67662639D01*
X122728593Y-67210194D01*
X122382307Y-66863908D01*
X121929862Y-66676500D01*
X121440140Y-66676500D01*
X120987695Y-66863908D01*
X120641409Y-67210194D01*
X120454001Y-67662639D01*
X120127000Y-67662639D01*
X120127000Y-65122639D01*
X120454001Y-65122639D01*
X120454001Y-65612361D01*
X120641409Y-66064806D01*
X120987695Y-66411092D01*
X121440140Y-66598500D01*
X121929862Y-66598500D01*
X122382307Y-66411092D01*
X122728593Y-66064806D01*
X122916001Y-65612361D01*
X122916001Y-65122639D01*
X122994001Y-65122639D01*
X122994001Y-65612361D01*
X123181409Y-66064806D01*
X123527695Y-66411092D01*
X123980140Y-66598500D01*
X124469862Y-66598500D01*
X124922307Y-66411092D01*
X125268593Y-66064806D01*
X125456001Y-65612361D01*
X125456001Y-65122639D01*
X125268593Y-64670194D01*
X124922307Y-64323908D01*
X124469862Y-64136500D01*
X123980140Y-64136500D01*
X123527695Y-64323908D01*
X123181409Y-64670194D01*
X122994001Y-65122639D01*
X122916001Y-65122639D01*
X122728593Y-64670194D01*
X122382307Y-64323908D01*
X121929862Y-64136500D01*
X121440140Y-64136500D01*
X120987695Y-64323908D01*
X120641409Y-64670194D01*
X120454001Y-65122639D01*
X120127000Y-65122639D01*
X120127000Y-62582639D01*
X120454001Y-62582639D01*
X120454001Y-63072361D01*
X120641409Y-63524806D01*
X120987695Y-63871092D01*
X121440140Y-64058500D01*
X121929862Y-64058500D01*
X122382307Y-63871092D01*
X122728593Y-63524806D01*
X122916001Y-63072361D01*
X122916001Y-62582639D01*
X122994001Y-62582639D01*
X122994001Y-63072361D01*
X123181409Y-63524806D01*
X123527695Y-63871092D01*
X123980140Y-64058500D01*
X124469862Y-64058500D01*
X124922307Y-63871092D01*
X125268593Y-63524806D01*
X125456001Y-63072361D01*
X125456001Y-62582639D01*
X125268593Y-62130194D01*
X124922307Y-61783908D01*
X124469862Y-61596500D01*
X123980140Y-61596500D01*
X123527695Y-61783908D01*
X123181409Y-62130194D01*
X122994001Y-62582639D01*
X122916001Y-62582639D01*
X122728593Y-62130194D01*
X122382307Y-61783908D01*
X121929862Y-61596500D01*
X121440140Y-61596500D01*
X120987695Y-61783908D01*
X120641409Y-62130194D01*
X120454001Y-62582639D01*
X120127000Y-62582639D01*
X120127000Y-60042639D01*
X120454001Y-60042639D01*
X120454001Y-60532361D01*
X120641409Y-60984806D01*
X120987695Y-61331092D01*
X121440140Y-61518500D01*
X121929862Y-61518500D01*
X122382307Y-61331092D01*
X122728593Y-60984806D01*
X122916001Y-60532361D01*
X122916001Y-60042639D01*
X122994001Y-60042639D01*
X122994001Y-60532361D01*
X123181409Y-60984806D01*
X123527695Y-61331092D01*
X123980140Y-61518500D01*
X124469862Y-61518500D01*
X124922307Y-61331092D01*
X125268593Y-60984806D01*
X125456001Y-60532361D01*
X125456001Y-60042639D01*
X125268593Y-59590194D01*
X124922307Y-59243908D01*
X124469862Y-59056500D01*
X123980140Y-59056500D01*
X123527695Y-59243908D01*
X123181409Y-59590194D01*
X122994001Y-60042639D01*
X122916001Y-60042639D01*
X122728593Y-59590194D01*
X122382307Y-59243908D01*
X121929862Y-59056500D01*
X121440140Y-59056500D01*
X120987695Y-59243908D01*
X120641409Y-59590194D01*
X120454001Y-60042639D01*
X120127000Y-60042639D01*
X120127000Y-59016721D01*
X120180852Y-58815741D01*
X120315741Y-58680852D01*
X120516721Y-58627000D01*
X125483279Y-58627000D01*
X125684259Y-58680852D01*
X125684259Y-58680852D01*
G37*
X125684259Y-58680852D02*
X125819148Y-58815741D01*
X125873000Y-59016721D01*
X125873000Y-150483279D01*
X125819148Y-150684259D01*
X125684259Y-150819148D01*
X125483279Y-150873000D01*
X120516721Y-150873000D01*
X120315741Y-150819148D01*
X120180852Y-150684259D01*
X120127000Y-150483279D01*
X120127000Y-150231458D01*
X120820648Y-150231458D01*
X120900921Y-150482759D01*
X121456280Y-150684218D01*
X122046459Y-150657815D01*
X122469081Y-150482759D01*
X122549354Y-150231458D01*
X123360648Y-150231458D01*
X123440921Y-150482759D01*
X123996280Y-150684218D01*
X124586459Y-150657815D01*
X125009081Y-150482759D01*
X125089354Y-150231458D01*
X124225001Y-149367105D01*
X123360648Y-150231458D01*
X122549354Y-150231458D01*
X121685001Y-149367105D01*
X120820648Y-150231458D01*
X120127000Y-150231458D01*
X120127000Y-148958779D01*
X120188283Y-148958779D01*
X120214686Y-149548958D01*
X120389742Y-149971580D01*
X120641043Y-150051853D01*
X121505396Y-149187500D01*
X121864606Y-149187500D01*
X122728959Y-150051853D01*
X122955001Y-149979648D01*
X123181043Y-150051853D01*
X124045396Y-149187500D01*
X124404606Y-149187500D01*
X125268959Y-150051853D01*
X125520260Y-149971580D01*
X125721719Y-149416221D01*
X125695316Y-148826042D01*
X125520260Y-148403420D01*
X125268959Y-148323147D01*
X124404606Y-149187500D01*
X124045396Y-149187500D01*
X123181043Y-148323147D01*
X122955001Y-148395352D01*
X122728959Y-148323147D01*
X121864606Y-149187500D01*
X121505396Y-149187500D01*
X120641043Y-148323147D01*
X120389742Y-148403420D01*
X120188283Y-148958779D01*
X120127000Y-148958779D01*
X120127000Y-146402639D01*
X120454001Y-146402639D01*
X120454001Y-146892361D01*
X120641409Y-147344806D01*
X120987695Y-147691092D01*
X121187117Y-147773695D01*
X120900921Y-147892241D01*
X120820648Y-148143542D01*
X121685001Y-149007895D01*
X122549354Y-148143542D01*
X122469081Y-147892241D01*
X122163930Y-147781546D01*
X122382307Y-147691092D01*
X122728593Y-147344806D01*
X122916001Y-146892361D01*
X122916001Y-146402639D01*
X122994001Y-146402639D01*
X122994001Y-146892361D01*
X123181409Y-147344806D01*
X123527695Y-147691092D01*
X123727117Y-147773695D01*
X123440921Y-147892241D01*
X123360648Y-148143542D01*
X124225001Y-149007895D01*
X125089354Y-148143542D01*
X125009081Y-147892241D01*
X124703930Y-147781546D01*
X124922307Y-147691092D01*
X125268593Y-147344806D01*
X125456001Y-146892361D01*
X125456001Y-146402639D01*
X125268593Y-145950194D01*
X124922307Y-145603908D01*
X124469862Y-145416500D01*
X123980140Y-145416500D01*
X123527695Y-145603908D01*
X123181409Y-145950194D01*
X122994001Y-146402639D01*
X122916001Y-146402639D01*
X122728593Y-145950194D01*
X122382307Y-145603908D01*
X121929862Y-145416500D01*
X121440140Y-145416500D01*
X120987695Y-145603908D01*
X120641409Y-145950194D01*
X120454001Y-146402639D01*
X120127000Y-146402639D01*
X120127000Y-143862639D01*
X120454001Y-143862639D01*
X120454001Y-144352361D01*
X120641409Y-144804806D01*
X120987695Y-145151092D01*
X121440140Y-145338500D01*
X121929862Y-145338500D01*
X122382307Y-145151092D01*
X122728593Y-144804806D01*
X122916001Y-144352361D01*
X122916001Y-143862639D01*
X122994001Y-143862639D01*
X122994001Y-144352361D01*
X123181409Y-144804806D01*
X123527695Y-145151092D01*
X123980140Y-145338500D01*
X124469862Y-145338500D01*
X124922307Y-145151092D01*
X125268593Y-144804806D01*
X125456001Y-144352361D01*
X125456001Y-143862639D01*
X125268593Y-143410194D01*
X124922307Y-143063908D01*
X124469862Y-142876500D01*
X123980140Y-142876500D01*
X123527695Y-143063908D01*
X123181409Y-143410194D01*
X122994001Y-143862639D01*
X122916001Y-143862639D01*
X122728593Y-143410194D01*
X122382307Y-143063908D01*
X121929862Y-142876500D01*
X121440140Y-142876500D01*
X120987695Y-143063908D01*
X120641409Y-143410194D01*
X120454001Y-143862639D01*
X120127000Y-143862639D01*
X120127000Y-141322639D01*
X120454001Y-141322639D01*
X120454001Y-141812361D01*
X120641409Y-142264806D01*
X120987695Y-142611092D01*
X121440140Y-142798500D01*
X121929862Y-142798500D01*
X122382307Y-142611092D01*
X122728593Y-142264806D01*
X122916001Y-141812361D01*
X122916001Y-141322639D01*
X122994001Y-141322639D01*
X122994001Y-141812361D01*
X123181409Y-142264806D01*
X123527695Y-142611092D01*
X123980140Y-142798500D01*
X124469862Y-142798500D01*
X124922307Y-142611092D01*
X125268593Y-142264806D01*
X125456001Y-141812361D01*
X125456001Y-141322639D01*
X125268593Y-140870194D01*
X124922307Y-140523908D01*
X124469862Y-140336500D01*
X123980140Y-140336500D01*
X123527695Y-140523908D01*
X123181409Y-140870194D01*
X122994001Y-141322639D01*
X122916001Y-141322639D01*
X122728593Y-140870194D01*
X122382307Y-140523908D01*
X122182885Y-140441305D01*
X122469081Y-140322759D01*
X122549354Y-140071458D01*
X121685001Y-139207105D01*
X120820648Y-140071458D01*
X120900921Y-140322759D01*
X121206072Y-140433454D01*
X120987695Y-140523908D01*
X120641409Y-140870194D01*
X120454001Y-141322639D01*
X120127000Y-141322639D01*
X120127000Y-138798779D01*
X120188283Y-138798779D01*
X120214686Y-139388958D01*
X120389742Y-139811580D01*
X120641043Y-139891853D01*
X121505396Y-139027500D01*
X121864606Y-139027500D01*
X122728959Y-139891853D01*
X122980260Y-139811580D01*
X123090955Y-139506429D01*
X123181409Y-139724806D01*
X123527695Y-140071092D01*
X123980140Y-140258500D01*
X124469862Y-140258500D01*
X124922307Y-140071092D01*
X125268593Y-139724806D01*
X125456001Y-139272361D01*
X125456001Y-138782639D01*
X125268593Y-138330194D01*
X124922307Y-137983908D01*
X124469862Y-137796500D01*
X123980140Y-137796500D01*
X123527695Y-137983908D01*
X123181409Y-138330194D01*
X123098806Y-138529616D01*
X122980260Y-138243420D01*
X122728959Y-138163147D01*
X121864606Y-139027500D01*
X121505396Y-139027500D01*
X120641043Y-138163147D01*
X120389742Y-138243420D01*
X120188283Y-138798779D01*
X120127000Y-138798779D01*
X120127000Y-136242639D01*
X120454001Y-136242639D01*
X120454001Y-136732361D01*
X120641409Y-137184806D01*
X120987695Y-137531092D01*
X121187117Y-137613695D01*
X120900921Y-137732241D01*
X120820648Y-137983542D01*
X121685001Y-138847895D01*
X122549354Y-137983542D01*
X122469081Y-137732241D01*
X122163930Y-137621546D01*
X122382307Y-137531092D01*
X122728593Y-137184806D01*
X122916001Y-136732361D01*
X122916001Y-136242639D01*
X122994001Y-136242639D01*
X122994001Y-136732361D01*
X123181409Y-137184806D01*
X123527695Y-137531092D01*
X123980140Y-137718500D01*
X124469862Y-137718500D01*
X124922307Y-137531092D01*
X125268593Y-137184806D01*
X125456001Y-136732361D01*
X125456001Y-136242639D01*
X125268593Y-135790194D01*
X124922307Y-135443908D01*
X124469862Y-135256500D01*
X123980140Y-135256500D01*
X123527695Y-135443908D01*
X123181409Y-135790194D01*
X122994001Y-136242639D01*
X122916001Y-136242639D01*
X122728593Y-135790194D01*
X122382307Y-135443908D01*
X121929862Y-135256500D01*
X121440140Y-135256500D01*
X120987695Y-135443908D01*
X120641409Y-135790194D01*
X120454001Y-136242639D01*
X120127000Y-136242639D01*
X120127000Y-133702639D01*
X120454001Y-133702639D01*
X120454001Y-134192361D01*
X120641409Y-134644806D01*
X120987695Y-134991092D01*
X121440140Y-135178500D01*
X121929862Y-135178500D01*
X122382307Y-134991092D01*
X122728593Y-134644806D01*
X122916001Y-134192361D01*
X122916001Y-133702639D01*
X122994001Y-133702639D01*
X122994001Y-134192361D01*
X123181409Y-134644806D01*
X123527695Y-134991092D01*
X123980140Y-135178500D01*
X124469862Y-135178500D01*
X124922307Y-134991092D01*
X125268593Y-134644806D01*
X125456001Y-134192361D01*
X125456001Y-133702639D01*
X125268593Y-133250194D01*
X124922307Y-132903908D01*
X124469862Y-132716500D01*
X123980140Y-132716500D01*
X123527695Y-132903908D01*
X123181409Y-133250194D01*
X122994001Y-133702639D01*
X122916001Y-133702639D01*
X122728593Y-133250194D01*
X122382307Y-132903908D01*
X121929862Y-132716500D01*
X121440140Y-132716500D01*
X120987695Y-132903908D01*
X120641409Y-133250194D01*
X120454001Y-133702639D01*
X120127000Y-133702639D01*
X120127000Y-131162639D01*
X120454001Y-131162639D01*
X120454001Y-131652361D01*
X120641409Y-132104806D01*
X120987695Y-132451092D01*
X121440140Y-132638500D01*
X121929862Y-132638500D01*
X122382307Y-132451092D01*
X122728593Y-132104806D01*
X122916001Y-131652361D01*
X122916001Y-131162639D01*
X122994001Y-131162639D01*
X122994001Y-131652361D01*
X123181409Y-132104806D01*
X123527695Y-132451092D01*
X123980140Y-132638500D01*
X124469862Y-132638500D01*
X124922307Y-132451092D01*
X125268593Y-132104806D01*
X125456001Y-131652361D01*
X125456001Y-131162639D01*
X125268593Y-130710194D01*
X124922307Y-130363908D01*
X124469862Y-130176500D01*
X123980140Y-130176500D01*
X123527695Y-130363908D01*
X123181409Y-130710194D01*
X122994001Y-131162639D01*
X122916001Y-131162639D01*
X122728593Y-130710194D01*
X122382307Y-130363908D01*
X121929862Y-130176500D01*
X121440140Y-130176500D01*
X120987695Y-130363908D01*
X120641409Y-130710194D01*
X120454001Y-131162639D01*
X120127000Y-131162639D01*
X120127000Y-128622639D01*
X120454001Y-128622639D01*
X120454001Y-129112361D01*
X120641409Y-129564806D01*
X120987695Y-129911092D01*
X121440140Y-130098500D01*
X121929862Y-130098500D01*
X122382307Y-129911092D01*
X122728593Y-129564806D01*
X122916001Y-129112361D01*
X122916001Y-128622639D01*
X122994001Y-128622639D01*
X122994001Y-129112361D01*
X123181409Y-129564806D01*
X123527695Y-129911092D01*
X123980140Y-130098500D01*
X124469862Y-130098500D01*
X124922307Y-129911092D01*
X125268593Y-129564806D01*
X125456001Y-129112361D01*
X125456001Y-128622639D01*
X125268593Y-128170194D01*
X124922307Y-127823908D01*
X124722885Y-127741305D01*
X125009081Y-127622759D01*
X125089354Y-127371458D01*
X124225001Y-126507105D01*
X123360648Y-127371458D01*
X123440921Y-127622759D01*
X123746072Y-127733454D01*
X123527695Y-127823908D01*
X123181409Y-128170194D01*
X122994001Y-128622639D01*
X122916001Y-128622639D01*
X122728593Y-128170194D01*
X122382307Y-127823908D01*
X121929862Y-127636500D01*
X121440140Y-127636500D01*
X120987695Y-127823908D01*
X120641409Y-128170194D01*
X120454001Y-128622639D01*
X120127000Y-128622639D01*
X120127000Y-126082639D01*
X120454001Y-126082639D01*
X120454001Y-126572361D01*
X120641409Y-127024806D01*
X120987695Y-127371092D01*
X121440140Y-127558500D01*
X121929862Y-127558500D01*
X122382307Y-127371092D01*
X122728593Y-127024806D01*
X122811196Y-126825384D01*
X122929742Y-127111580D01*
X123181043Y-127191853D01*
X124045396Y-126327500D01*
X124404606Y-126327500D01*
X125268959Y-127191853D01*
X125520260Y-127111580D01*
X125721719Y-126556221D01*
X125695316Y-125966042D01*
X125520260Y-125543420D01*
X125268959Y-125463147D01*
X124404606Y-126327500D01*
X124045396Y-126327500D01*
X123181043Y-125463147D01*
X122929742Y-125543420D01*
X122819047Y-125848571D01*
X122728593Y-125630194D01*
X122382307Y-125283908D01*
X121929862Y-125096500D01*
X121440140Y-125096500D01*
X120987695Y-125283908D01*
X120641409Y-125630194D01*
X120454001Y-126082639D01*
X120127000Y-126082639D01*
X120127000Y-123542639D01*
X120454001Y-123542639D01*
X120454001Y-124032361D01*
X120641409Y-124484806D01*
X120987695Y-124831092D01*
X121440140Y-125018500D01*
X121929862Y-125018500D01*
X122382307Y-124831092D01*
X122728593Y-124484806D01*
X122916001Y-124032361D01*
X122916001Y-123542639D01*
X122994001Y-123542639D01*
X122994001Y-124032361D01*
X123181409Y-124484806D01*
X123527695Y-124831092D01*
X123727117Y-124913695D01*
X123440921Y-125032241D01*
X123360648Y-125283542D01*
X124225001Y-126147895D01*
X125089354Y-125283542D01*
X125009081Y-125032241D01*
X124703930Y-124921546D01*
X124922307Y-124831092D01*
X125268593Y-124484806D01*
X125456001Y-124032361D01*
X125456001Y-123542639D01*
X125268593Y-123090194D01*
X124922307Y-122743908D01*
X124469862Y-122556500D01*
X123980140Y-122556500D01*
X123527695Y-122743908D01*
X123181409Y-123090194D01*
X122994001Y-123542639D01*
X122916001Y-123542639D01*
X122728593Y-123090194D01*
X122382307Y-122743908D01*
X121929862Y-122556500D01*
X121440140Y-122556500D01*
X120987695Y-122743908D01*
X120641409Y-123090194D01*
X120454001Y-123542639D01*
X120127000Y-123542639D01*
X120127000Y-121002639D01*
X120454001Y-121002639D01*
X120454001Y-121492361D01*
X120641409Y-121944806D01*
X120987695Y-122291092D01*
X121440140Y-122478500D01*
X121929862Y-122478500D01*
X122382307Y-122291092D01*
X122728593Y-121944806D01*
X122916001Y-121492361D01*
X122916001Y-121002639D01*
X122994001Y-121002639D01*
X122994001Y-121492361D01*
X123181409Y-121944806D01*
X123527695Y-122291092D01*
X123980140Y-122478500D01*
X124469862Y-122478500D01*
X124922307Y-122291092D01*
X125268593Y-121944806D01*
X125456001Y-121492361D01*
X125456001Y-121002639D01*
X125268593Y-120550194D01*
X124922307Y-120203908D01*
X124469862Y-120016500D01*
X123980140Y-120016500D01*
X123527695Y-120203908D01*
X123181409Y-120550194D01*
X122994001Y-121002639D01*
X122916001Y-121002639D01*
X122728593Y-120550194D01*
X122382307Y-120203908D01*
X121929862Y-120016500D01*
X121440140Y-120016500D01*
X120987695Y-120203908D01*
X120641409Y-120550194D01*
X120454001Y-121002639D01*
X120127000Y-121002639D01*
X120127000Y-118462639D01*
X120454001Y-118462639D01*
X120454001Y-118952361D01*
X120641409Y-119404806D01*
X120987695Y-119751092D01*
X121440140Y-119938500D01*
X121929862Y-119938500D01*
X122382307Y-119751092D01*
X122728593Y-119404806D01*
X122916001Y-118952361D01*
X122916001Y-118462639D01*
X122994001Y-118462639D01*
X122994001Y-118952361D01*
X123181409Y-119404806D01*
X123527695Y-119751092D01*
X123980140Y-119938500D01*
X124469862Y-119938500D01*
X124922307Y-119751092D01*
X125268593Y-119404806D01*
X125456001Y-118952361D01*
X125456001Y-118462639D01*
X125268593Y-118010194D01*
X124922307Y-117663908D01*
X124469862Y-117476500D01*
X123980140Y-117476500D01*
X123527695Y-117663908D01*
X123181409Y-118010194D01*
X122994001Y-118462639D01*
X122916001Y-118462639D01*
X122728593Y-118010194D01*
X122382307Y-117663908D01*
X121929862Y-117476500D01*
X121440140Y-117476500D01*
X120987695Y-117663908D01*
X120641409Y-118010194D01*
X120454001Y-118462639D01*
X120127000Y-118462639D01*
X120127000Y-115922639D01*
X120454001Y-115922639D01*
X120454001Y-116412361D01*
X120641409Y-116864806D01*
X120987695Y-117211092D01*
X121440140Y-117398500D01*
X121929862Y-117398500D01*
X122382307Y-117211092D01*
X122728593Y-116864806D01*
X122916001Y-116412361D01*
X122916001Y-115922639D01*
X122994001Y-115922639D01*
X122994001Y-116412361D01*
X123181409Y-116864806D01*
X123527695Y-117211092D01*
X123980140Y-117398500D01*
X124469862Y-117398500D01*
X124922307Y-117211092D01*
X125268593Y-116864806D01*
X125456001Y-116412361D01*
X125456001Y-115922639D01*
X125268593Y-115470194D01*
X124922307Y-115123908D01*
X124469862Y-114936500D01*
X123980140Y-114936500D01*
X123527695Y-115123908D01*
X123181409Y-115470194D01*
X122994001Y-115922639D01*
X122916001Y-115922639D01*
X122728593Y-115470194D01*
X122382307Y-115123908D01*
X121929862Y-114936500D01*
X121440140Y-114936500D01*
X120987695Y-115123908D01*
X120641409Y-115470194D01*
X120454001Y-115922639D01*
X120127000Y-115922639D01*
X120127000Y-113382639D01*
X120454001Y-113382639D01*
X120454001Y-113872361D01*
X120641409Y-114324806D01*
X120987695Y-114671092D01*
X121440140Y-114858500D01*
X121929862Y-114858500D01*
X122382307Y-114671092D01*
X122728593Y-114324806D01*
X122916001Y-113872361D01*
X122916001Y-113382639D01*
X122994001Y-113382639D01*
X122994001Y-113872361D01*
X123181409Y-114324806D01*
X123527695Y-114671092D01*
X123980140Y-114858500D01*
X124469862Y-114858500D01*
X124922307Y-114671092D01*
X125268593Y-114324806D01*
X125456001Y-113872361D01*
X125456001Y-113382639D01*
X125268593Y-112930194D01*
X124922307Y-112583908D01*
X124469862Y-112396500D01*
X123980140Y-112396500D01*
X123527695Y-112583908D01*
X123181409Y-112930194D01*
X122994001Y-113382639D01*
X122916001Y-113382639D01*
X122728593Y-112930194D01*
X122382307Y-112583908D01*
X121929862Y-112396500D01*
X121440140Y-112396500D01*
X120987695Y-112583908D01*
X120641409Y-112930194D01*
X120454001Y-113382639D01*
X120127000Y-113382639D01*
X120127000Y-110842639D01*
X120454001Y-110842639D01*
X120454001Y-111332361D01*
X120641409Y-111784806D01*
X120987695Y-112131092D01*
X121440140Y-112318500D01*
X121929862Y-112318500D01*
X122382307Y-112131092D01*
X122728593Y-111784806D01*
X122916001Y-111332361D01*
X122916001Y-110842639D01*
X122994001Y-110842639D01*
X122994001Y-111332361D01*
X123181409Y-111784806D01*
X123527695Y-112131092D01*
X123980140Y-112318500D01*
X124469862Y-112318500D01*
X124922307Y-112131092D01*
X125268593Y-111784806D01*
X125456001Y-111332361D01*
X125456001Y-110842639D01*
X125268593Y-110390194D01*
X124922307Y-110043908D01*
X124469862Y-109856500D01*
X123980140Y-109856500D01*
X123527695Y-110043908D01*
X123181409Y-110390194D01*
X122994001Y-110842639D01*
X122916001Y-110842639D01*
X122728593Y-110390194D01*
X122382307Y-110043908D01*
X122182885Y-109961305D01*
X122469081Y-109842759D01*
X122549354Y-109591458D01*
X121685001Y-108727105D01*
X120820648Y-109591458D01*
X120900921Y-109842759D01*
X121206072Y-109953454D01*
X120987695Y-110043908D01*
X120641409Y-110390194D01*
X120454001Y-110842639D01*
X120127000Y-110842639D01*
X120127000Y-108318779D01*
X120188283Y-108318779D01*
X120214686Y-108908958D01*
X120389742Y-109331580D01*
X120641043Y-109411853D01*
X121505396Y-108547500D01*
X121864606Y-108547500D01*
X122728959Y-109411853D01*
X122980260Y-109331580D01*
X123090955Y-109026429D01*
X123181409Y-109244806D01*
X123527695Y-109591092D01*
X123980140Y-109778500D01*
X124469862Y-109778500D01*
X124922307Y-109591092D01*
X125268593Y-109244806D01*
X125456001Y-108792361D01*
X125456001Y-108302639D01*
X125268593Y-107850194D01*
X124922307Y-107503908D01*
X124469862Y-107316500D01*
X123980140Y-107316500D01*
X123527695Y-107503908D01*
X123181409Y-107850194D01*
X123098806Y-108049616D01*
X122980260Y-107763420D01*
X122728959Y-107683147D01*
X121864606Y-108547500D01*
X121505396Y-108547500D01*
X120641043Y-107683147D01*
X120389742Y-107763420D01*
X120188283Y-108318779D01*
X120127000Y-108318779D01*
X120127000Y-105762639D01*
X120454001Y-105762639D01*
X120454001Y-106252361D01*
X120641409Y-106704806D01*
X120987695Y-107051092D01*
X121187117Y-107133695D01*
X120900921Y-107252241D01*
X120820648Y-107503542D01*
X121685001Y-108367895D01*
X122549354Y-107503542D01*
X122469081Y-107252241D01*
X122163930Y-107141546D01*
X122382307Y-107051092D01*
X122728593Y-106704806D01*
X122916001Y-106252361D01*
X122916001Y-105762639D01*
X122994001Y-105762639D01*
X122994001Y-106252361D01*
X123181409Y-106704806D01*
X123527695Y-107051092D01*
X123980140Y-107238500D01*
X124469862Y-107238500D01*
X124922307Y-107051092D01*
X125268593Y-106704806D01*
X125456001Y-106252361D01*
X125456001Y-105762639D01*
X125268593Y-105310194D01*
X124922307Y-104963908D01*
X124469862Y-104776500D01*
X123980140Y-104776500D01*
X123527695Y-104963908D01*
X123181409Y-105310194D01*
X122994001Y-105762639D01*
X122916001Y-105762639D01*
X122728593Y-105310194D01*
X122382307Y-104963908D01*
X121929862Y-104776500D01*
X121440140Y-104776500D01*
X120987695Y-104963908D01*
X120641409Y-105310194D01*
X120454001Y-105762639D01*
X120127000Y-105762639D01*
X120127000Y-103222639D01*
X120454001Y-103222639D01*
X120454001Y-103712361D01*
X120641409Y-104164806D01*
X120987695Y-104511092D01*
X121440140Y-104698500D01*
X121929862Y-104698500D01*
X122382307Y-104511092D01*
X122728593Y-104164806D01*
X122916001Y-103712361D01*
X122916001Y-103222639D01*
X122994001Y-103222639D01*
X122994001Y-103712361D01*
X123181409Y-104164806D01*
X123527695Y-104511092D01*
X123980140Y-104698500D01*
X124469862Y-104698500D01*
X124922307Y-104511092D01*
X125268593Y-104164806D01*
X125456001Y-103712361D01*
X125456001Y-103222639D01*
X125268593Y-102770194D01*
X124922307Y-102423908D01*
X124469862Y-102236500D01*
X123980140Y-102236500D01*
X123527695Y-102423908D01*
X123181409Y-102770194D01*
X122994001Y-103222639D01*
X122916001Y-103222639D01*
X122728593Y-102770194D01*
X122382307Y-102423908D01*
X121929862Y-102236500D01*
X121440140Y-102236500D01*
X120987695Y-102423908D01*
X120641409Y-102770194D01*
X120454001Y-103222639D01*
X120127000Y-103222639D01*
X120127000Y-100682639D01*
X120454001Y-100682639D01*
X120454001Y-101172361D01*
X120641409Y-101624806D01*
X120987695Y-101971092D01*
X121440140Y-102158500D01*
X121929862Y-102158500D01*
X122382307Y-101971092D01*
X122728593Y-101624806D01*
X122916001Y-101172361D01*
X122916001Y-100682639D01*
X122994001Y-100682639D01*
X122994001Y-101172361D01*
X123181409Y-101624806D01*
X123527695Y-101971092D01*
X123980140Y-102158500D01*
X124469862Y-102158500D01*
X124922307Y-101971092D01*
X125268593Y-101624806D01*
X125456001Y-101172361D01*
X125456001Y-100682639D01*
X125268593Y-100230194D01*
X124922307Y-99883908D01*
X124722885Y-99801305D01*
X125009081Y-99682759D01*
X125089354Y-99431458D01*
X124225001Y-98567105D01*
X123360648Y-99431458D01*
X123440921Y-99682759D01*
X123746072Y-99793454D01*
X123527695Y-99883908D01*
X123181409Y-100230194D01*
X122994001Y-100682639D01*
X122916001Y-100682639D01*
X122728593Y-100230194D01*
X122382307Y-99883908D01*
X121929862Y-99696500D01*
X121440140Y-99696500D01*
X120987695Y-99883908D01*
X120641409Y-100230194D01*
X120454001Y-100682639D01*
X120127000Y-100682639D01*
X120127000Y-98227159D01*
X120625460Y-97728699D01*
X120454001Y-98142639D01*
X120454001Y-98632361D01*
X120641409Y-99084806D01*
X120987695Y-99431092D01*
X121440140Y-99618500D01*
X121929862Y-99618500D01*
X122382307Y-99431092D01*
X122728593Y-99084806D01*
X122811196Y-98885384D01*
X122929742Y-99171580D01*
X123181043Y-99251853D01*
X124045396Y-98387500D01*
X124404606Y-98387500D01*
X125268959Y-99251853D01*
X125520260Y-99171580D01*
X125721719Y-98616221D01*
X125695316Y-98026042D01*
X125520260Y-97603420D01*
X125268959Y-97523147D01*
X124404606Y-98387500D01*
X124045396Y-98387500D01*
X123181043Y-97523147D01*
X122929742Y-97603420D01*
X122819047Y-97908571D01*
X122728593Y-97690194D01*
X122382307Y-97343908D01*
X121929862Y-97156500D01*
X121440140Y-97156500D01*
X121026200Y-97327959D01*
X121323834Y-97030325D01*
X121440140Y-97078500D01*
X121929862Y-97078500D01*
X122382307Y-96891092D01*
X122728593Y-96544806D01*
X122916001Y-96092361D01*
X122916001Y-95602639D01*
X122994001Y-95602639D01*
X122994001Y-96092361D01*
X123181409Y-96544806D01*
X123527695Y-96891092D01*
X123727117Y-96973695D01*
X123440921Y-97092241D01*
X123360648Y-97343542D01*
X124225001Y-98207895D01*
X125089354Y-97343542D01*
X125009081Y-97092241D01*
X124703930Y-96981546D01*
X124922307Y-96891092D01*
X125268593Y-96544806D01*
X125456001Y-96092361D01*
X125456001Y-95602639D01*
X125268593Y-95150194D01*
X124922307Y-94803908D01*
X124469862Y-94616500D01*
X123980140Y-94616500D01*
X123527695Y-94803908D01*
X123181409Y-95150194D01*
X122994001Y-95602639D01*
X122916001Y-95602639D01*
X122728593Y-95150194D01*
X122382307Y-94803908D01*
X121929862Y-94616500D01*
X121440140Y-94616500D01*
X121026200Y-94787959D01*
X121323834Y-94490325D01*
X121440140Y-94538500D01*
X121929862Y-94538500D01*
X122382307Y-94351092D01*
X122728593Y-94004806D01*
X122916001Y-93552361D01*
X122916001Y-93062639D01*
X122994001Y-93062639D01*
X122994001Y-93552361D01*
X123181409Y-94004806D01*
X123527695Y-94351092D01*
X123980140Y-94538500D01*
X124469862Y-94538500D01*
X124922307Y-94351092D01*
X125268593Y-94004806D01*
X125456001Y-93552361D01*
X125456001Y-93062639D01*
X125268593Y-92610194D01*
X124922307Y-92263908D01*
X124469862Y-92076500D01*
X123980140Y-92076500D01*
X123527695Y-92263908D01*
X123181409Y-92610194D01*
X122994001Y-93062639D01*
X122916001Y-93062639D01*
X122728593Y-92610194D01*
X122382307Y-92263908D01*
X121929862Y-92076500D01*
X121440140Y-92076500D01*
X120987695Y-92263908D01*
X120641409Y-92610194D01*
X120454001Y-93062639D01*
X120454001Y-93552361D01*
X120502176Y-93668667D01*
X120127000Y-94043843D01*
X120127000Y-91348500D01*
X120593234Y-91348500D01*
X120641409Y-91464806D01*
X120987695Y-91811092D01*
X121440140Y-91998500D01*
X121929862Y-91998500D01*
X122382307Y-91811092D01*
X122728593Y-91464806D01*
X122916001Y-91012361D01*
X122916001Y-90522639D01*
X122994001Y-90522639D01*
X122994001Y-91012361D01*
X123181409Y-91464806D01*
X123527695Y-91811092D01*
X123980140Y-91998500D01*
X124469862Y-91998500D01*
X124922307Y-91811092D01*
X125268593Y-91464806D01*
X125456001Y-91012361D01*
X125456001Y-90522639D01*
X125268593Y-90070194D01*
X124922307Y-89723908D01*
X124469862Y-89536500D01*
X123980140Y-89536500D01*
X123527695Y-89723908D01*
X123181409Y-90070194D01*
X122994001Y-90522639D01*
X122916001Y-90522639D01*
X122728593Y-90070194D01*
X122382307Y-89723908D01*
X121929862Y-89536500D01*
X121440140Y-89536500D01*
X120987695Y-89723908D01*
X120641409Y-90070194D01*
X120593234Y-90186500D01*
X120127000Y-90186500D01*
X120127000Y-87958501D01*
X120463999Y-87958501D01*
X120454001Y-87982639D01*
X120454001Y-88472361D01*
X120641409Y-88924806D01*
X120987695Y-89271092D01*
X121440140Y-89458500D01*
X121929862Y-89458500D01*
X122382307Y-89271092D01*
X122728593Y-88924806D01*
X122916001Y-88472361D01*
X122916001Y-87982639D01*
X122994001Y-87982639D01*
X122994001Y-88472361D01*
X123181409Y-88924806D01*
X123527695Y-89271092D01*
X123980140Y-89458500D01*
X124469862Y-89458500D01*
X124922307Y-89271092D01*
X125268593Y-88924806D01*
X125456001Y-88472361D01*
X125456001Y-87982639D01*
X125268593Y-87530194D01*
X124922307Y-87183908D01*
X124469862Y-86996500D01*
X123980140Y-86996500D01*
X123527695Y-87183908D01*
X123181409Y-87530194D01*
X122994001Y-87982639D01*
X122916001Y-87982639D01*
X122728593Y-87530194D01*
X122382307Y-87183908D01*
X121929862Y-86996500D01*
X121440140Y-86996500D01*
X121323834Y-87044675D01*
X121286294Y-87007135D01*
X121253879Y-86958624D01*
X121061697Y-86830211D01*
X120892224Y-86796501D01*
X120892220Y-86796501D01*
X120835002Y-86785120D01*
X120777784Y-86796501D01*
X120127000Y-86796501D01*
X120127000Y-85442639D01*
X120454001Y-85442639D01*
X120454001Y-85932361D01*
X120641409Y-86384806D01*
X120987695Y-86731092D01*
X121440140Y-86918500D01*
X121929862Y-86918500D01*
X122382307Y-86731092D01*
X122728593Y-86384806D01*
X122916001Y-85932361D01*
X122916001Y-85442639D01*
X122994001Y-85442639D01*
X122994001Y-85932361D01*
X123181409Y-86384806D01*
X123527695Y-86731092D01*
X123980140Y-86918500D01*
X124469862Y-86918500D01*
X124922307Y-86731092D01*
X125268593Y-86384806D01*
X125456001Y-85932361D01*
X125456001Y-85442639D01*
X125268593Y-84990194D01*
X124922307Y-84643908D01*
X124722885Y-84561305D01*
X125009081Y-84442759D01*
X125089354Y-84191458D01*
X124225001Y-83327105D01*
X123360648Y-84191458D01*
X123440921Y-84442759D01*
X123746072Y-84553454D01*
X123527695Y-84643908D01*
X123181409Y-84990194D01*
X122994001Y-85442639D01*
X122916001Y-85442639D01*
X122728593Y-84990194D01*
X122382307Y-84643908D01*
X121929862Y-84456500D01*
X121440140Y-84456500D01*
X120987695Y-84643908D01*
X120641409Y-84990194D01*
X120454001Y-85442639D01*
X120127000Y-85442639D01*
X120127000Y-82902639D01*
X120454001Y-82902639D01*
X120454001Y-83392361D01*
X120641409Y-83844806D01*
X120987695Y-84191092D01*
X121440140Y-84378500D01*
X121929862Y-84378500D01*
X122382307Y-84191092D01*
X122728593Y-83844806D01*
X122811196Y-83645384D01*
X122929742Y-83931580D01*
X123181043Y-84011853D01*
X124045396Y-83147500D01*
X124404606Y-83147500D01*
X125268959Y-84011853D01*
X125520260Y-83931580D01*
X125721719Y-83376221D01*
X125695316Y-82786042D01*
X125520260Y-82363420D01*
X125268959Y-82283147D01*
X124404606Y-83147500D01*
X124045396Y-83147500D01*
X123181043Y-82283147D01*
X122929742Y-82363420D01*
X122819047Y-82668571D01*
X122728593Y-82450194D01*
X122382307Y-82103908D01*
X121929862Y-81916500D01*
X121440140Y-81916500D01*
X120987695Y-82103908D01*
X120641409Y-82450194D01*
X120454001Y-82902639D01*
X120127000Y-82902639D01*
X120127000Y-80362639D01*
X120454001Y-80362639D01*
X120454001Y-80852361D01*
X120641409Y-81304806D01*
X120987695Y-81651092D01*
X121440140Y-81838500D01*
X121929862Y-81838500D01*
X122382307Y-81651092D01*
X122728593Y-81304806D01*
X122916001Y-80852361D01*
X122916001Y-80362639D01*
X122994001Y-80362639D01*
X122994001Y-80852361D01*
X123181409Y-81304806D01*
X123527695Y-81651092D01*
X123727117Y-81733695D01*
X123440921Y-81852241D01*
X123360648Y-82103542D01*
X124225001Y-82967895D01*
X125089354Y-82103542D01*
X125009081Y-81852241D01*
X124703930Y-81741546D01*
X124922307Y-81651092D01*
X125268593Y-81304806D01*
X125456001Y-80852361D01*
X125456001Y-80362639D01*
X125268593Y-79910194D01*
X124922307Y-79563908D01*
X124469862Y-79376500D01*
X123980140Y-79376500D01*
X123527695Y-79563908D01*
X123181409Y-79910194D01*
X122994001Y-80362639D01*
X122916001Y-80362639D01*
X122728593Y-79910194D01*
X122382307Y-79563908D01*
X121929862Y-79376500D01*
X121440140Y-79376500D01*
X120987695Y-79563908D01*
X120641409Y-79910194D01*
X120454001Y-80362639D01*
X120127000Y-80362639D01*
X120127000Y-77822639D01*
X120454001Y-77822639D01*
X120454001Y-78312361D01*
X120641409Y-78764806D01*
X120987695Y-79111092D01*
X121440140Y-79298500D01*
X121929862Y-79298500D01*
X122382307Y-79111092D01*
X122728593Y-78764806D01*
X122916001Y-78312361D01*
X122916001Y-77822639D01*
X122994001Y-77822639D01*
X122994001Y-78312361D01*
X123181409Y-78764806D01*
X123527695Y-79111092D01*
X123980140Y-79298500D01*
X124469862Y-79298500D01*
X124922307Y-79111092D01*
X125268593Y-78764806D01*
X125456001Y-78312361D01*
X125456001Y-77822639D01*
X125268593Y-77370194D01*
X124922307Y-77023908D01*
X124469862Y-76836500D01*
X123980140Y-76836500D01*
X123527695Y-77023908D01*
X123181409Y-77370194D01*
X122994001Y-77822639D01*
X122916001Y-77822639D01*
X122728593Y-77370194D01*
X122382307Y-77023908D01*
X121929862Y-76836500D01*
X121440140Y-76836500D01*
X120987695Y-77023908D01*
X120641409Y-77370194D01*
X120454001Y-77822639D01*
X120127000Y-77822639D01*
X120127000Y-75282639D01*
X120454001Y-75282639D01*
X120454001Y-75772361D01*
X120641409Y-76224806D01*
X120987695Y-76571092D01*
X121440140Y-76758500D01*
X121929862Y-76758500D01*
X122382307Y-76571092D01*
X122728593Y-76224806D01*
X122916001Y-75772361D01*
X122916001Y-75282639D01*
X122994001Y-75282639D01*
X122994001Y-75772361D01*
X123181409Y-76224806D01*
X123527695Y-76571092D01*
X123980140Y-76758500D01*
X124469862Y-76758500D01*
X124922307Y-76571092D01*
X125268593Y-76224806D01*
X125456001Y-75772361D01*
X125456001Y-75282639D01*
X125268593Y-74830194D01*
X124922307Y-74483908D01*
X124469862Y-74296500D01*
X123980140Y-74296500D01*
X123527695Y-74483908D01*
X123181409Y-74830194D01*
X122994001Y-75282639D01*
X122916001Y-75282639D01*
X122728593Y-74830194D01*
X122382307Y-74483908D01*
X121929862Y-74296500D01*
X121440140Y-74296500D01*
X120987695Y-74483908D01*
X120641409Y-74830194D01*
X120454001Y-75282639D01*
X120127000Y-75282639D01*
X120127000Y-72742639D01*
X120454001Y-72742639D01*
X120454001Y-73232361D01*
X120641409Y-73684806D01*
X120987695Y-74031092D01*
X121440140Y-74218500D01*
X121929862Y-74218500D01*
X122382307Y-74031092D01*
X122728593Y-73684806D01*
X122916001Y-73232361D01*
X122916001Y-72742639D01*
X122994001Y-72742639D01*
X122994001Y-73232361D01*
X123181409Y-73684806D01*
X123527695Y-74031092D01*
X123980140Y-74218500D01*
X124469862Y-74218500D01*
X124922307Y-74031092D01*
X125268593Y-73684806D01*
X125456001Y-73232361D01*
X125456001Y-72742639D01*
X125268593Y-72290194D01*
X124922307Y-71943908D01*
X124469862Y-71756500D01*
X123980140Y-71756500D01*
X123527695Y-71943908D01*
X123181409Y-72290194D01*
X122994001Y-72742639D01*
X122916001Y-72742639D01*
X122728593Y-72290194D01*
X122382307Y-71943908D01*
X122182885Y-71861305D01*
X122469081Y-71742759D01*
X122549354Y-71491458D01*
X121685001Y-70627105D01*
X120820648Y-71491458D01*
X120900921Y-71742759D01*
X121206072Y-71853454D01*
X120987695Y-71943908D01*
X120641409Y-72290194D01*
X120454001Y-72742639D01*
X120127000Y-72742639D01*
X120127000Y-70218779D01*
X120188283Y-70218779D01*
X120214686Y-70808958D01*
X120389742Y-71231580D01*
X120641043Y-71311853D01*
X121505396Y-70447500D01*
X121864606Y-70447500D01*
X122728959Y-71311853D01*
X122980260Y-71231580D01*
X123090955Y-70926429D01*
X123181409Y-71144806D01*
X123527695Y-71491092D01*
X123980140Y-71678500D01*
X124469862Y-71678500D01*
X124922307Y-71491092D01*
X125268593Y-71144806D01*
X125456001Y-70692361D01*
X125456001Y-70202639D01*
X125268593Y-69750194D01*
X124922307Y-69403908D01*
X124469862Y-69216500D01*
X123980140Y-69216500D01*
X123527695Y-69403908D01*
X123181409Y-69750194D01*
X123098806Y-69949616D01*
X122980260Y-69663420D01*
X122728959Y-69583147D01*
X121864606Y-70447500D01*
X121505396Y-70447500D01*
X120641043Y-69583147D01*
X120389742Y-69663420D01*
X120188283Y-70218779D01*
X120127000Y-70218779D01*
X120127000Y-67662639D01*
X120454001Y-67662639D01*
X120454001Y-68152361D01*
X120641409Y-68604806D01*
X120987695Y-68951092D01*
X121187117Y-69033695D01*
X120900921Y-69152241D01*
X120820648Y-69403542D01*
X121685001Y-70267895D01*
X122549354Y-69403542D01*
X122469081Y-69152241D01*
X122163930Y-69041546D01*
X122382307Y-68951092D01*
X122728593Y-68604806D01*
X122916001Y-68152361D01*
X122916001Y-67662639D01*
X122994001Y-67662639D01*
X122994001Y-68152361D01*
X123181409Y-68604806D01*
X123527695Y-68951092D01*
X123980140Y-69138500D01*
X124469862Y-69138500D01*
X124922307Y-68951092D01*
X125268593Y-68604806D01*
X125456001Y-68152361D01*
X125456001Y-67662639D01*
X125268593Y-67210194D01*
X124922307Y-66863908D01*
X124469862Y-66676500D01*
X123980140Y-66676500D01*
X123527695Y-66863908D01*
X123181409Y-67210194D01*
X122994001Y-67662639D01*
X122916001Y-67662639D01*
X122728593Y-67210194D01*
X122382307Y-66863908D01*
X121929862Y-66676500D01*
X121440140Y-66676500D01*
X120987695Y-66863908D01*
X120641409Y-67210194D01*
X120454001Y-67662639D01*
X120127000Y-67662639D01*
X120127000Y-65122639D01*
X120454001Y-65122639D01*
X120454001Y-65612361D01*
X120641409Y-66064806D01*
X120987695Y-66411092D01*
X121440140Y-66598500D01*
X121929862Y-66598500D01*
X122382307Y-66411092D01*
X122728593Y-66064806D01*
X122916001Y-65612361D01*
X122916001Y-65122639D01*
X122994001Y-65122639D01*
X122994001Y-65612361D01*
X123181409Y-66064806D01*
X123527695Y-66411092D01*
X123980140Y-66598500D01*
X124469862Y-66598500D01*
X124922307Y-66411092D01*
X125268593Y-66064806D01*
X125456001Y-65612361D01*
X125456001Y-65122639D01*
X125268593Y-64670194D01*
X124922307Y-64323908D01*
X124469862Y-64136500D01*
X123980140Y-64136500D01*
X123527695Y-64323908D01*
X123181409Y-64670194D01*
X122994001Y-65122639D01*
X122916001Y-65122639D01*
X122728593Y-64670194D01*
X122382307Y-64323908D01*
X121929862Y-64136500D01*
X121440140Y-64136500D01*
X120987695Y-64323908D01*
X120641409Y-64670194D01*
X120454001Y-65122639D01*
X120127000Y-65122639D01*
X120127000Y-62582639D01*
X120454001Y-62582639D01*
X120454001Y-63072361D01*
X120641409Y-63524806D01*
X120987695Y-63871092D01*
X121440140Y-64058500D01*
X121929862Y-64058500D01*
X122382307Y-63871092D01*
X122728593Y-63524806D01*
X122916001Y-63072361D01*
X122916001Y-62582639D01*
X122994001Y-62582639D01*
X122994001Y-63072361D01*
X123181409Y-63524806D01*
X123527695Y-63871092D01*
X123980140Y-64058500D01*
X124469862Y-64058500D01*
X124922307Y-63871092D01*
X125268593Y-63524806D01*
X125456001Y-63072361D01*
X125456001Y-62582639D01*
X125268593Y-62130194D01*
X124922307Y-61783908D01*
X124469862Y-61596500D01*
X123980140Y-61596500D01*
X123527695Y-61783908D01*
X123181409Y-62130194D01*
X122994001Y-62582639D01*
X122916001Y-62582639D01*
X122728593Y-62130194D01*
X122382307Y-61783908D01*
X121929862Y-61596500D01*
X121440140Y-61596500D01*
X120987695Y-61783908D01*
X120641409Y-62130194D01*
X120454001Y-62582639D01*
X120127000Y-62582639D01*
X120127000Y-60042639D01*
X120454001Y-60042639D01*
X120454001Y-60532361D01*
X120641409Y-60984806D01*
X120987695Y-61331092D01*
X121440140Y-61518500D01*
X121929862Y-61518500D01*
X122382307Y-61331092D01*
X122728593Y-60984806D01*
X122916001Y-60532361D01*
X122916001Y-60042639D01*
X122994001Y-60042639D01*
X122994001Y-60532361D01*
X123181409Y-60984806D01*
X123527695Y-61331092D01*
X123980140Y-61518500D01*
X124469862Y-61518500D01*
X124922307Y-61331092D01*
X125268593Y-60984806D01*
X125456001Y-60532361D01*
X125456001Y-60042639D01*
X125268593Y-59590194D01*
X124922307Y-59243908D01*
X124469862Y-59056500D01*
X123980140Y-59056500D01*
X123527695Y-59243908D01*
X123181409Y-59590194D01*
X122994001Y-60042639D01*
X122916001Y-60042639D01*
X122728593Y-59590194D01*
X122382307Y-59243908D01*
X121929862Y-59056500D01*
X121440140Y-59056500D01*
X120987695Y-59243908D01*
X120641409Y-59590194D01*
X120454001Y-60042639D01*
X120127000Y-60042639D01*
X120127000Y-59016721D01*
X120180852Y-58815741D01*
X120315741Y-58680852D01*
X120516721Y-58627000D01*
X125483279Y-58627000D01*
X125684259Y-58680852D01*
G36*
X64684259Y-58680852D02*
X64819148Y-58815741D01*
X64873000Y-59016721D01*
X64873000Y-107967845D01*
X64496001Y-108344844D01*
X64496001Y-108302639D01*
X64308593Y-107850194D01*
X63962307Y-107503908D01*
X63509862Y-107316500D01*
X63020140Y-107316500D01*
X62567695Y-107503908D01*
X62221409Y-107850194D01*
X62034001Y-108302639D01*
X62034001Y-108792361D01*
X62209685Y-109216501D01*
X62072216Y-109216501D01*
X62014999Y-109205120D01*
X61957783Y-109216501D01*
X61957778Y-109216501D01*
X61788305Y-109250211D01*
X61718103Y-109297119D01*
X61712610Y-109300789D01*
X61768593Y-109244806D01*
X61956001Y-108792361D01*
X61956001Y-108302639D01*
X61768593Y-107850194D01*
X61422307Y-107503908D01*
X60969862Y-107316500D01*
X60480140Y-107316500D01*
X60027695Y-107503908D01*
X59681409Y-107850194D01*
X59494001Y-108302639D01*
X59494001Y-108792361D01*
X59681409Y-109244806D01*
X60027695Y-109591092D01*
X60480140Y-109778500D01*
X60969862Y-109778500D01*
X61383801Y-109607042D01*
X61086168Y-109904675D01*
X60969862Y-109856500D01*
X60480140Y-109856500D01*
X60027695Y-110043908D01*
X59681409Y-110390194D01*
X59494001Y-110842639D01*
X59494001Y-111332361D01*
X59681409Y-111784806D01*
X60027695Y-112131092D01*
X60480140Y-112318500D01*
X60969862Y-112318500D01*
X61383802Y-112147041D01*
X61204638Y-112326206D01*
X61204632Y-112326210D01*
X61086167Y-112444675D01*
X60969862Y-112396500D01*
X60480140Y-112396500D01*
X60027695Y-112583908D01*
X59681409Y-112930194D01*
X59494001Y-113382639D01*
X59494001Y-113872361D01*
X59681409Y-114324806D01*
X60027695Y-114671092D01*
X60480140Y-114858500D01*
X60969862Y-114858500D01*
X61422307Y-114671092D01*
X61768593Y-114324806D01*
X61956001Y-113872361D01*
X61956001Y-113382639D01*
X61907826Y-113266334D01*
X62026291Y-113147869D01*
X62026295Y-113147863D01*
X62205460Y-112968699D01*
X62034001Y-113382639D01*
X62034001Y-113872361D01*
X62221409Y-114324806D01*
X62567695Y-114671092D01*
X63020140Y-114858500D01*
X63509862Y-114858500D01*
X63962307Y-114671092D01*
X64308593Y-114324806D01*
X64496001Y-113872361D01*
X64496001Y-113382639D01*
X64308593Y-112930194D01*
X64218476Y-112840077D01*
X64283879Y-112796376D01*
X64316294Y-112747864D01*
X64873000Y-112191158D01*
X64873000Y-150483279D01*
X64819148Y-150684259D01*
X64684259Y-150819148D01*
X64483279Y-150873000D01*
X59516721Y-150873000D01*
X59315741Y-150819148D01*
X59180852Y-150684259D01*
X59127000Y-150483279D01*
X59127000Y-150231458D01*
X59860648Y-150231458D01*
X59940921Y-150482759D01*
X60496280Y-150684218D01*
X61086459Y-150657815D01*
X61509081Y-150482759D01*
X61589354Y-150231458D01*
X62400648Y-150231458D01*
X62480921Y-150482759D01*
X63036280Y-150684218D01*
X63626459Y-150657815D01*
X64049081Y-150482759D01*
X64129354Y-150231458D01*
X63265001Y-149367105D01*
X62400648Y-150231458D01*
X61589354Y-150231458D01*
X60725001Y-149367105D01*
X59860648Y-150231458D01*
X59127000Y-150231458D01*
X59127000Y-148958779D01*
X59228283Y-148958779D01*
X59254686Y-149548958D01*
X59429742Y-149971580D01*
X59681043Y-150051853D01*
X60545396Y-149187500D01*
X60904606Y-149187500D01*
X61768959Y-150051853D01*
X61995001Y-149979648D01*
X62221043Y-150051853D01*
X63085396Y-149187500D01*
X63444606Y-149187500D01*
X64308959Y-150051853D01*
X64560260Y-149971580D01*
X64761719Y-149416221D01*
X64735316Y-148826042D01*
X64560260Y-148403420D01*
X64308959Y-148323147D01*
X63444606Y-149187500D01*
X63085396Y-149187500D01*
X62221043Y-148323147D01*
X61995001Y-148395352D01*
X61768959Y-148323147D01*
X60904606Y-149187500D01*
X60545396Y-149187500D01*
X59681043Y-148323147D01*
X59429742Y-148403420D01*
X59228283Y-148958779D01*
X59127000Y-148958779D01*
X59127000Y-146402639D01*
X59494001Y-146402639D01*
X59494001Y-146892361D01*
X59681409Y-147344806D01*
X60027695Y-147691092D01*
X60227117Y-147773695D01*
X59940921Y-147892241D01*
X59860648Y-148143542D01*
X60725001Y-149007895D01*
X61589354Y-148143542D01*
X61509081Y-147892241D01*
X61203930Y-147781546D01*
X61422307Y-147691092D01*
X61768593Y-147344806D01*
X61956001Y-146892361D01*
X61956001Y-146402639D01*
X62034001Y-146402639D01*
X62034001Y-146892361D01*
X62221409Y-147344806D01*
X62567695Y-147691092D01*
X62767117Y-147773695D01*
X62480921Y-147892241D01*
X62400648Y-148143542D01*
X63265001Y-149007895D01*
X64129354Y-148143542D01*
X64049081Y-147892241D01*
X63743930Y-147781546D01*
X63962307Y-147691092D01*
X64308593Y-147344806D01*
X64496001Y-146892361D01*
X64496001Y-146402639D01*
X64308593Y-145950194D01*
X63962307Y-145603908D01*
X63509862Y-145416500D01*
X63020140Y-145416500D01*
X62567695Y-145603908D01*
X62221409Y-145950194D01*
X62034001Y-146402639D01*
X61956001Y-146402639D01*
X61768593Y-145950194D01*
X61422307Y-145603908D01*
X60969862Y-145416500D01*
X60480140Y-145416500D01*
X60027695Y-145603908D01*
X59681409Y-145950194D01*
X59494001Y-146402639D01*
X59127000Y-146402639D01*
X59127000Y-143862639D01*
X59494001Y-143862639D01*
X59494001Y-144352361D01*
X59681409Y-144804806D01*
X60027695Y-145151092D01*
X60480140Y-145338500D01*
X60969862Y-145338500D01*
X61422307Y-145151092D01*
X61768593Y-144804806D01*
X61956001Y-144352361D01*
X61956001Y-143862639D01*
X62034001Y-143862639D01*
X62034001Y-144352361D01*
X62221409Y-144804806D01*
X62567695Y-145151092D01*
X63020140Y-145338500D01*
X63509862Y-145338500D01*
X63962307Y-145151092D01*
X64308593Y-144804806D01*
X64496001Y-144352361D01*
X64496001Y-143862639D01*
X64308593Y-143410194D01*
X63962307Y-143063908D01*
X63509862Y-142876500D01*
X63020140Y-142876500D01*
X62567695Y-143063908D01*
X62221409Y-143410194D01*
X62034001Y-143862639D01*
X61956001Y-143862639D01*
X61768593Y-143410194D01*
X61422307Y-143063908D01*
X60969862Y-142876500D01*
X60480140Y-142876500D01*
X60027695Y-143063908D01*
X59681409Y-143410194D01*
X59494001Y-143862639D01*
X59127000Y-143862639D01*
X59127000Y-141322639D01*
X59494001Y-141322639D01*
X59494001Y-141812361D01*
X59681409Y-142264806D01*
X60027695Y-142611092D01*
X60480140Y-142798500D01*
X60969862Y-142798500D01*
X61422307Y-142611092D01*
X61768593Y-142264806D01*
X61956001Y-141812361D01*
X61956001Y-141322639D01*
X62034001Y-141322639D01*
X62034001Y-141812361D01*
X62221409Y-142264806D01*
X62567695Y-142611092D01*
X63020140Y-142798500D01*
X63509862Y-142798500D01*
X63962307Y-142611092D01*
X64308593Y-142264806D01*
X64496001Y-141812361D01*
X64496001Y-141322639D01*
X64308593Y-140870194D01*
X63962307Y-140523908D01*
X63509862Y-140336500D01*
X63020140Y-140336500D01*
X62567695Y-140523908D01*
X62221409Y-140870194D01*
X62034001Y-141322639D01*
X61956001Y-141322639D01*
X61768593Y-140870194D01*
X61422307Y-140523908D01*
X60969862Y-140336500D01*
X60480140Y-140336500D01*
X60027695Y-140523908D01*
X59681409Y-140870194D01*
X59494001Y-141322639D01*
X59127000Y-141322639D01*
X59127000Y-138782639D01*
X59494001Y-138782639D01*
X59494001Y-139272361D01*
X59681409Y-139724806D01*
X60027695Y-140071092D01*
X60480140Y-140258500D01*
X60969862Y-140258500D01*
X61422307Y-140071092D01*
X61768593Y-139724806D01*
X61956001Y-139272361D01*
X61956001Y-138782639D01*
X62034001Y-138782639D01*
X62034001Y-139272361D01*
X62221409Y-139724806D01*
X62567695Y-140071092D01*
X63020140Y-140258500D01*
X63509862Y-140258500D01*
X63962307Y-140071092D01*
X64308593Y-139724806D01*
X64496001Y-139272361D01*
X64496001Y-138782639D01*
X64308593Y-138330194D01*
X63962307Y-137983908D01*
X63509862Y-137796500D01*
X63020140Y-137796500D01*
X62567695Y-137983908D01*
X62221409Y-138330194D01*
X62034001Y-138782639D01*
X61956001Y-138782639D01*
X61768593Y-138330194D01*
X61422307Y-137983908D01*
X60969862Y-137796500D01*
X60480140Y-137796500D01*
X60027695Y-137983908D01*
X59681409Y-138330194D01*
X59494001Y-138782639D01*
X59127000Y-138782639D01*
X59127000Y-136242639D01*
X59494001Y-136242639D01*
X59494001Y-136732361D01*
X59681409Y-137184806D01*
X60027695Y-137531092D01*
X60480140Y-137718500D01*
X60969862Y-137718500D01*
X61422307Y-137531092D01*
X61768593Y-137184806D01*
X61956001Y-136732361D01*
X61956001Y-136242639D01*
X62034001Y-136242639D01*
X62034001Y-136732361D01*
X62221409Y-137184806D01*
X62567695Y-137531092D01*
X63020140Y-137718500D01*
X63509862Y-137718500D01*
X63962307Y-137531092D01*
X64308593Y-137184806D01*
X64496001Y-136732361D01*
X64496001Y-136242639D01*
X64308593Y-135790194D01*
X63962307Y-135443908D01*
X63762885Y-135361305D01*
X64049081Y-135242759D01*
X64129354Y-134991458D01*
X63265001Y-134127105D01*
X62400648Y-134991458D01*
X62480921Y-135242759D01*
X62786072Y-135353454D01*
X62567695Y-135443908D01*
X62221409Y-135790194D01*
X62034001Y-136242639D01*
X61956001Y-136242639D01*
X61768593Y-135790194D01*
X61422307Y-135443908D01*
X60969862Y-135256500D01*
X60480140Y-135256500D01*
X60027695Y-135443908D01*
X59681409Y-135790194D01*
X59494001Y-136242639D01*
X59127000Y-136242639D01*
X59127000Y-133702639D01*
X59494001Y-133702639D01*
X59494001Y-134192361D01*
X59681409Y-134644806D01*
X60027695Y-134991092D01*
X60480140Y-135178500D01*
X60969862Y-135178500D01*
X61422307Y-134991092D01*
X61768593Y-134644806D01*
X61851196Y-134445384D01*
X61969742Y-134731580D01*
X62221043Y-134811853D01*
X63085396Y-133947500D01*
X63444606Y-133947500D01*
X64308959Y-134811853D01*
X64560260Y-134731580D01*
X64761719Y-134176221D01*
X64735316Y-133586042D01*
X64560260Y-133163420D01*
X64308959Y-133083147D01*
X63444606Y-133947500D01*
X63085396Y-133947500D01*
X62221043Y-133083147D01*
X61969742Y-133163420D01*
X61859047Y-133468571D01*
X61768593Y-133250194D01*
X61422307Y-132903908D01*
X60969862Y-132716500D01*
X60480140Y-132716500D01*
X60027695Y-132903908D01*
X59681409Y-133250194D01*
X59494001Y-133702639D01*
X59127000Y-133702639D01*
X59127000Y-131162639D01*
X59494001Y-131162639D01*
X59494001Y-131652361D01*
X59681409Y-132104806D01*
X60027695Y-132451092D01*
X60480140Y-132638500D01*
X60969862Y-132638500D01*
X61422307Y-132451092D01*
X61768593Y-132104806D01*
X61956001Y-131652361D01*
X61956001Y-131162639D01*
X62034001Y-131162639D01*
X62034001Y-131652361D01*
X62221409Y-132104806D01*
X62567695Y-132451092D01*
X62767117Y-132533695D01*
X62480921Y-132652241D01*
X62400648Y-132903542D01*
X63265001Y-133767895D01*
X64129354Y-132903542D01*
X64049081Y-132652241D01*
X63743930Y-132541546D01*
X63962307Y-132451092D01*
X64308593Y-132104806D01*
X64496001Y-131652361D01*
X64496001Y-131162639D01*
X64308593Y-130710194D01*
X63962307Y-130363908D01*
X63509862Y-130176500D01*
X63020140Y-130176500D01*
X62567695Y-130363908D01*
X62221409Y-130710194D01*
X62034001Y-131162639D01*
X61956001Y-131162639D01*
X61768593Y-130710194D01*
X61422307Y-130363908D01*
X60969862Y-130176500D01*
X60480140Y-130176500D01*
X60027695Y-130363908D01*
X59681409Y-130710194D01*
X59494001Y-131162639D01*
X59127000Y-131162639D01*
X59127000Y-128622639D01*
X59494001Y-128622639D01*
X59494001Y-129112361D01*
X59681409Y-129564806D01*
X60027695Y-129911092D01*
X60480140Y-130098500D01*
X60969862Y-130098500D01*
X61422307Y-129911092D01*
X61768593Y-129564806D01*
X61956001Y-129112361D01*
X61956001Y-128622639D01*
X62034001Y-128622639D01*
X62034001Y-129112361D01*
X62221409Y-129564806D01*
X62567695Y-129911092D01*
X63020140Y-130098500D01*
X63509862Y-130098500D01*
X63962307Y-129911092D01*
X64308593Y-129564806D01*
X64496001Y-129112361D01*
X64496001Y-128622639D01*
X64308593Y-128170194D01*
X63962307Y-127823908D01*
X63509862Y-127636500D01*
X63020140Y-127636500D01*
X62567695Y-127823908D01*
X62221409Y-128170194D01*
X62034001Y-128622639D01*
X61956001Y-128622639D01*
X61768593Y-128170194D01*
X61422307Y-127823908D01*
X60969862Y-127636500D01*
X60480140Y-127636500D01*
X60027695Y-127823908D01*
X59681409Y-128170194D01*
X59494001Y-128622639D01*
X59127000Y-128622639D01*
X59127000Y-126082639D01*
X59494001Y-126082639D01*
X59494001Y-126572361D01*
X59681409Y-127024806D01*
X60027695Y-127371092D01*
X60480140Y-127558500D01*
X60969862Y-127558500D01*
X61422307Y-127371092D01*
X61768593Y-127024806D01*
X61956001Y-126572361D01*
X61956001Y-126082639D01*
X62034001Y-126082639D01*
X62034001Y-126572361D01*
X62221409Y-127024806D01*
X62567695Y-127371092D01*
X63020140Y-127558500D01*
X63509862Y-127558500D01*
X63962307Y-127371092D01*
X64308593Y-127024806D01*
X64496001Y-126572361D01*
X64496001Y-126082639D01*
X64308593Y-125630194D01*
X63962307Y-125283908D01*
X63509862Y-125096500D01*
X63020140Y-125096500D01*
X62567695Y-125283908D01*
X62221409Y-125630194D01*
X62034001Y-126082639D01*
X61956001Y-126082639D01*
X61768593Y-125630194D01*
X61422307Y-125283908D01*
X60969862Y-125096500D01*
X60480140Y-125096500D01*
X60027695Y-125283908D01*
X59681409Y-125630194D01*
X59494001Y-126082639D01*
X59127000Y-126082639D01*
X59127000Y-123542639D01*
X59494001Y-123542639D01*
X59494001Y-124032361D01*
X59681409Y-124484806D01*
X60027695Y-124831092D01*
X60480140Y-125018500D01*
X60969862Y-125018500D01*
X61422307Y-124831092D01*
X61768593Y-124484806D01*
X61956001Y-124032361D01*
X61956001Y-123542639D01*
X62034001Y-123542639D01*
X62034001Y-124032361D01*
X62221409Y-124484806D01*
X62567695Y-124831092D01*
X63020140Y-125018500D01*
X63509862Y-125018500D01*
X63962307Y-124831092D01*
X64308593Y-124484806D01*
X64496001Y-124032361D01*
X64496001Y-123542639D01*
X64308593Y-123090194D01*
X63962307Y-122743908D01*
X63509862Y-122556500D01*
X63020140Y-122556500D01*
X62567695Y-122743908D01*
X62221409Y-123090194D01*
X62034001Y-123542639D01*
X61956001Y-123542639D01*
X61768593Y-123090194D01*
X61422307Y-122743908D01*
X61222885Y-122661305D01*
X61509081Y-122542759D01*
X61589354Y-122291458D01*
X60725001Y-121427105D01*
X59860648Y-122291458D01*
X59940921Y-122542759D01*
X60246072Y-122653454D01*
X60027695Y-122743908D01*
X59681409Y-123090194D01*
X59494001Y-123542639D01*
X59127000Y-123542639D01*
X59127000Y-121018779D01*
X59228283Y-121018779D01*
X59254686Y-121608958D01*
X59429742Y-122031580D01*
X59681043Y-122111853D01*
X60545396Y-121247500D01*
X60904606Y-121247500D01*
X61768959Y-122111853D01*
X62020260Y-122031580D01*
X62130955Y-121726429D01*
X62221409Y-121944806D01*
X62567695Y-122291092D01*
X63020140Y-122478500D01*
X63509862Y-122478500D01*
X63962307Y-122291092D01*
X64308593Y-121944806D01*
X64496001Y-121492361D01*
X64496001Y-121002639D01*
X64308593Y-120550194D01*
X63962307Y-120203908D01*
X63509862Y-120016500D01*
X63020140Y-120016500D01*
X62567695Y-120203908D01*
X62221409Y-120550194D01*
X62138806Y-120749616D01*
X62020260Y-120463420D01*
X61768959Y-120383147D01*
X60904606Y-121247500D01*
X60545396Y-121247500D01*
X59681043Y-120383147D01*
X59429742Y-120463420D01*
X59228283Y-121018779D01*
X59127000Y-121018779D01*
X59127000Y-118462639D01*
X59494001Y-118462639D01*
X59494001Y-118952361D01*
X59681409Y-119404806D01*
X60027695Y-119751092D01*
X60227117Y-119833695D01*
X59940921Y-119952241D01*
X59860648Y-120203542D01*
X60725001Y-121067895D01*
X61589354Y-120203542D01*
X61509081Y-119952241D01*
X61203930Y-119841546D01*
X61422307Y-119751092D01*
X61768593Y-119404806D01*
X61956001Y-118952361D01*
X61956001Y-118462639D01*
X62034001Y-118462639D01*
X62034001Y-118952361D01*
X62221409Y-119404806D01*
X62567695Y-119751092D01*
X63020140Y-119938500D01*
X63509862Y-119938500D01*
X63962307Y-119751092D01*
X64308593Y-119404806D01*
X64496001Y-118952361D01*
X64496001Y-118462639D01*
X64308593Y-118010194D01*
X63962307Y-117663908D01*
X63509862Y-117476500D01*
X63020140Y-117476500D01*
X62567695Y-117663908D01*
X62221409Y-118010194D01*
X62034001Y-118462639D01*
X61956001Y-118462639D01*
X61768593Y-118010194D01*
X61422307Y-117663908D01*
X60969862Y-117476500D01*
X60480140Y-117476500D01*
X60027695Y-117663908D01*
X59681409Y-118010194D01*
X59494001Y-118462639D01*
X59127000Y-118462639D01*
X59127000Y-115922639D01*
X59494001Y-115922639D01*
X59494001Y-116412361D01*
X59681409Y-116864806D01*
X60027695Y-117211092D01*
X60480140Y-117398500D01*
X60969862Y-117398500D01*
X61422307Y-117211092D01*
X61768593Y-116864806D01*
X61956001Y-116412361D01*
X61956001Y-115922639D01*
X62034001Y-115922639D01*
X62034001Y-116412361D01*
X62221409Y-116864806D01*
X62567695Y-117211092D01*
X63020140Y-117398500D01*
X63509862Y-117398500D01*
X63962307Y-117211092D01*
X64308593Y-116864806D01*
X64496001Y-116412361D01*
X64496001Y-115922639D01*
X64308593Y-115470194D01*
X63962307Y-115123908D01*
X63509862Y-114936500D01*
X63020140Y-114936500D01*
X62567695Y-115123908D01*
X62221409Y-115470194D01*
X62034001Y-115922639D01*
X61956001Y-115922639D01*
X61768593Y-115470194D01*
X61422307Y-115123908D01*
X60969862Y-114936500D01*
X60480140Y-114936500D01*
X60027695Y-115123908D01*
X59681409Y-115470194D01*
X59494001Y-115922639D01*
X59127000Y-115922639D01*
X59127000Y-105762639D01*
X59494001Y-105762639D01*
X59494001Y-106252361D01*
X59681409Y-106704806D01*
X60027695Y-107051092D01*
X60480140Y-107238500D01*
X60969862Y-107238500D01*
X61422307Y-107051092D01*
X61768593Y-106704806D01*
X61956001Y-106252361D01*
X61956001Y-105762639D01*
X62034001Y-105762639D01*
X62034001Y-106252361D01*
X62221409Y-106704806D01*
X62567695Y-107051092D01*
X63020140Y-107238500D01*
X63509862Y-107238500D01*
X63962307Y-107051092D01*
X64308593Y-106704806D01*
X64496001Y-106252361D01*
X64496001Y-105762639D01*
X64308593Y-105310194D01*
X63962307Y-104963908D01*
X63509862Y-104776500D01*
X63020140Y-104776500D01*
X62567695Y-104963908D01*
X62221409Y-105310194D01*
X62034001Y-105762639D01*
X61956001Y-105762639D01*
X61768593Y-105310194D01*
X61422307Y-104963908D01*
X60969862Y-104776500D01*
X60480140Y-104776500D01*
X60027695Y-104963908D01*
X59681409Y-105310194D01*
X59494001Y-105762639D01*
X59127000Y-105762639D01*
X59127000Y-103222639D01*
X59494001Y-103222639D01*
X59494001Y-103712361D01*
X59681409Y-104164806D01*
X60027695Y-104511092D01*
X60480140Y-104698500D01*
X60969862Y-104698500D01*
X61422307Y-104511092D01*
X61768593Y-104164806D01*
X61956001Y-103712361D01*
X61956001Y-103222639D01*
X62034001Y-103222639D01*
X62034001Y-103712361D01*
X62221409Y-104164806D01*
X62567695Y-104511092D01*
X63020140Y-104698500D01*
X63509862Y-104698500D01*
X63962307Y-104511092D01*
X64308593Y-104164806D01*
X64496001Y-103712361D01*
X64496001Y-103222639D01*
X64308593Y-102770194D01*
X63962307Y-102423908D01*
X63509862Y-102236500D01*
X63020140Y-102236500D01*
X62567695Y-102423908D01*
X62221409Y-102770194D01*
X62034001Y-103222639D01*
X61956001Y-103222639D01*
X61768593Y-102770194D01*
X61422307Y-102423908D01*
X60969862Y-102236500D01*
X60480140Y-102236500D01*
X60027695Y-102423908D01*
X59681409Y-102770194D01*
X59494001Y-103222639D01*
X59127000Y-103222639D01*
X59127000Y-100682639D01*
X59494001Y-100682639D01*
X59494001Y-101172361D01*
X59681409Y-101624806D01*
X60027695Y-101971092D01*
X60480140Y-102158500D01*
X60969862Y-102158500D01*
X61422307Y-101971092D01*
X61768593Y-101624806D01*
X61956001Y-101172361D01*
X61956001Y-100682639D01*
X62034001Y-100682639D01*
X62034001Y-101172361D01*
X62221409Y-101624806D01*
X62567695Y-101971092D01*
X63020140Y-102158500D01*
X63509862Y-102158500D01*
X63962307Y-101971092D01*
X64308593Y-101624806D01*
X64496001Y-101172361D01*
X64496001Y-100682639D01*
X64308593Y-100230194D01*
X63962307Y-99883908D01*
X63509862Y-99696500D01*
X63020140Y-99696500D01*
X62567695Y-99883908D01*
X62221409Y-100230194D01*
X62034001Y-100682639D01*
X61956001Y-100682639D01*
X61768593Y-100230194D01*
X61422307Y-99883908D01*
X60969862Y-99696500D01*
X60480140Y-99696500D01*
X60027695Y-99883908D01*
X59681409Y-100230194D01*
X59494001Y-100682639D01*
X59127000Y-100682639D01*
X59127000Y-98142639D01*
X59494001Y-98142639D01*
X59494001Y-98632361D01*
X59681409Y-99084806D01*
X60027695Y-99431092D01*
X60480140Y-99618500D01*
X60969862Y-99618500D01*
X61422307Y-99431092D01*
X61768593Y-99084806D01*
X61956001Y-98632361D01*
X61956001Y-98142639D01*
X62034001Y-98142639D01*
X62034001Y-98632361D01*
X62221409Y-99084806D01*
X62567695Y-99431092D01*
X63020140Y-99618500D01*
X63509862Y-99618500D01*
X63962307Y-99431092D01*
X64308593Y-99084806D01*
X64496001Y-98632361D01*
X64496001Y-98142639D01*
X64308593Y-97690194D01*
X63962307Y-97343908D01*
X63509862Y-97156500D01*
X63020140Y-97156500D01*
X62567695Y-97343908D01*
X62221409Y-97690194D01*
X62034001Y-98142639D01*
X61956001Y-98142639D01*
X61768593Y-97690194D01*
X61422307Y-97343908D01*
X60969862Y-97156500D01*
X60480140Y-97156500D01*
X60027695Y-97343908D01*
X59681409Y-97690194D01*
X59494001Y-98142639D01*
X59127000Y-98142639D01*
X59127000Y-95602639D01*
X59494001Y-95602639D01*
X59494001Y-96092361D01*
X59681409Y-96544806D01*
X60027695Y-96891092D01*
X60480140Y-97078500D01*
X60969862Y-97078500D01*
X61422307Y-96891092D01*
X61768593Y-96544806D01*
X61956001Y-96092361D01*
X61956001Y-95602639D01*
X62034001Y-95602639D01*
X62034001Y-96092361D01*
X62221409Y-96544806D01*
X62567695Y-96891092D01*
X63020140Y-97078500D01*
X63509862Y-97078500D01*
X63962307Y-96891092D01*
X64308593Y-96544806D01*
X64496001Y-96092361D01*
X64496001Y-95602639D01*
X64308593Y-95150194D01*
X63962307Y-94803908D01*
X63509862Y-94616500D01*
X63020140Y-94616500D01*
X62567695Y-94803908D01*
X62221409Y-95150194D01*
X62034001Y-95602639D01*
X61956001Y-95602639D01*
X61768593Y-95150194D01*
X61422307Y-94803908D01*
X60969862Y-94616500D01*
X60480140Y-94616500D01*
X60027695Y-94803908D01*
X59681409Y-95150194D01*
X59494001Y-95602639D01*
X59127000Y-95602639D01*
X59127000Y-93062639D01*
X59494001Y-93062639D01*
X59494001Y-93552361D01*
X59681409Y-94004806D01*
X60027695Y-94351092D01*
X60480140Y-94538500D01*
X60969862Y-94538500D01*
X61422307Y-94351092D01*
X61768593Y-94004806D01*
X61956001Y-93552361D01*
X61956001Y-93062639D01*
X62034001Y-93062639D01*
X62034001Y-93552361D01*
X62221409Y-94004806D01*
X62567695Y-94351092D01*
X63020140Y-94538500D01*
X63509862Y-94538500D01*
X63962307Y-94351092D01*
X64308593Y-94004806D01*
X64496001Y-93552361D01*
X64496001Y-93062639D01*
X64308593Y-92610194D01*
X63962307Y-92263908D01*
X63509862Y-92076500D01*
X63020140Y-92076500D01*
X62567695Y-92263908D01*
X62221409Y-92610194D01*
X62034001Y-93062639D01*
X61956001Y-93062639D01*
X61768593Y-92610194D01*
X61422307Y-92263908D01*
X60969862Y-92076500D01*
X60480140Y-92076500D01*
X60027695Y-92263908D01*
X59681409Y-92610194D01*
X59494001Y-93062639D01*
X59127000Y-93062639D01*
X59127000Y-90522639D01*
X59494001Y-90522639D01*
X59494001Y-91012361D01*
X59681409Y-91464806D01*
X60027695Y-91811092D01*
X60480140Y-91998500D01*
X60969862Y-91998500D01*
X61422307Y-91811092D01*
X61768593Y-91464806D01*
X61956001Y-91012361D01*
X61956001Y-90522639D01*
X62034001Y-90522639D01*
X62034001Y-91012361D01*
X62221409Y-91464806D01*
X62567695Y-91811092D01*
X63020140Y-91998500D01*
X63509862Y-91998500D01*
X63962307Y-91811092D01*
X64308593Y-91464806D01*
X64496001Y-91012361D01*
X64496001Y-90522639D01*
X64308593Y-90070194D01*
X63962307Y-89723908D01*
X63509862Y-89536500D01*
X63020140Y-89536500D01*
X62567695Y-89723908D01*
X62221409Y-90070194D01*
X62034001Y-90522639D01*
X61956001Y-90522639D01*
X61768593Y-90070194D01*
X61422307Y-89723908D01*
X60969862Y-89536500D01*
X60480140Y-89536500D01*
X60027695Y-89723908D01*
X59681409Y-90070194D01*
X59494001Y-90522639D01*
X59127000Y-90522639D01*
X59127000Y-87982639D01*
X59494001Y-87982639D01*
X59494001Y-88472361D01*
X59681409Y-88924806D01*
X60027695Y-89271092D01*
X60480140Y-89458500D01*
X60969862Y-89458500D01*
X61422307Y-89271092D01*
X61768593Y-88924806D01*
X61956001Y-88472361D01*
X61956001Y-87982639D01*
X62034001Y-87982639D01*
X62034001Y-88472361D01*
X62221409Y-88924806D01*
X62567695Y-89271092D01*
X63020140Y-89458500D01*
X63509862Y-89458500D01*
X63962307Y-89271092D01*
X64308593Y-88924806D01*
X64496001Y-88472361D01*
X64496001Y-87982639D01*
X64308593Y-87530194D01*
X63962307Y-87183908D01*
X63762885Y-87101305D01*
X64049081Y-86982759D01*
X64129354Y-86731458D01*
X63265001Y-85867105D01*
X62400648Y-86731458D01*
X62480921Y-86982759D01*
X62786072Y-87093454D01*
X62567695Y-87183908D01*
X62221409Y-87530194D01*
X62034001Y-87982639D01*
X61956001Y-87982639D01*
X61768593Y-87530194D01*
X61422307Y-87183908D01*
X60969862Y-86996500D01*
X60480140Y-86996500D01*
X60027695Y-87183908D01*
X59681409Y-87530194D01*
X59494001Y-87982639D01*
X59127000Y-87982639D01*
X59127000Y-85442639D01*
X59494001Y-85442639D01*
X59494001Y-85932361D01*
X59681409Y-86384806D01*
X60027695Y-86731092D01*
X60480140Y-86918500D01*
X60969862Y-86918500D01*
X61422307Y-86731092D01*
X61768593Y-86384806D01*
X61851196Y-86185384D01*
X61969742Y-86471580D01*
X62221043Y-86551853D01*
X63085396Y-85687500D01*
X63444606Y-85687500D01*
X64308959Y-86551853D01*
X64560260Y-86471580D01*
X64761719Y-85916221D01*
X64735316Y-85326042D01*
X64560260Y-84903420D01*
X64308959Y-84823147D01*
X63444606Y-85687500D01*
X63085396Y-85687500D01*
X62221043Y-84823147D01*
X61969742Y-84903420D01*
X61859047Y-85208571D01*
X61768593Y-84990194D01*
X61422307Y-84643908D01*
X61222885Y-84561305D01*
X61509081Y-84442759D01*
X61589354Y-84191458D01*
X62400648Y-84191458D01*
X62472853Y-84417500D01*
X62400648Y-84643542D01*
X63265001Y-85507895D01*
X64129354Y-84643542D01*
X64057149Y-84417500D01*
X64129354Y-84191458D01*
X63265001Y-83327105D01*
X62400648Y-84191458D01*
X61589354Y-84191458D01*
X60725001Y-83327105D01*
X59860648Y-84191458D01*
X59940921Y-84442759D01*
X60246072Y-84553454D01*
X60027695Y-84643908D01*
X59681409Y-84990194D01*
X59494001Y-85442639D01*
X59127000Y-85442639D01*
X59127000Y-82918779D01*
X59228283Y-82918779D01*
X59254686Y-83508958D01*
X59429742Y-83931580D01*
X59681043Y-84011853D01*
X60545396Y-83147500D01*
X60904606Y-83147500D01*
X61768959Y-84011853D01*
X61995001Y-83939648D01*
X62221043Y-84011853D01*
X63085396Y-83147500D01*
X63444606Y-83147500D01*
X64308959Y-84011853D01*
X64560260Y-83931580D01*
X64761719Y-83376221D01*
X64735316Y-82786042D01*
X64560260Y-82363420D01*
X64308959Y-82283147D01*
X63444606Y-83147500D01*
X63085396Y-83147500D01*
X62221043Y-82283147D01*
X61995001Y-82355352D01*
X61768959Y-82283147D01*
X60904606Y-83147500D01*
X60545396Y-83147500D01*
X59681043Y-82283147D01*
X59429742Y-82363420D01*
X59228283Y-82918779D01*
X59127000Y-82918779D01*
X59127000Y-80362639D01*
X59494001Y-80362639D01*
X59494001Y-80852361D01*
X59681409Y-81304806D01*
X60027695Y-81651092D01*
X60227117Y-81733695D01*
X59940921Y-81852241D01*
X59860648Y-82103542D01*
X60725001Y-82967895D01*
X61589354Y-82103542D01*
X61509081Y-81852241D01*
X61203930Y-81741546D01*
X61422307Y-81651092D01*
X61768593Y-81304806D01*
X61956001Y-80852361D01*
X61956001Y-80362639D01*
X62034001Y-80362639D01*
X62034001Y-80852361D01*
X62221409Y-81304806D01*
X62567695Y-81651092D01*
X62767117Y-81733695D01*
X62480921Y-81852241D01*
X62400648Y-82103542D01*
X63265001Y-82967895D01*
X64129354Y-82103542D01*
X64049081Y-81852241D01*
X63743930Y-81741546D01*
X63962307Y-81651092D01*
X64308593Y-81304806D01*
X64496001Y-80852361D01*
X64496001Y-80362639D01*
X64308593Y-79910194D01*
X63962307Y-79563908D01*
X63509862Y-79376500D01*
X63020140Y-79376500D01*
X62567695Y-79563908D01*
X62221409Y-79910194D01*
X62034001Y-80362639D01*
X61956001Y-80362639D01*
X61768593Y-79910194D01*
X61422307Y-79563908D01*
X60969862Y-79376500D01*
X60480140Y-79376500D01*
X60027695Y-79563908D01*
X59681409Y-79910194D01*
X59494001Y-80362639D01*
X59127000Y-80362639D01*
X59127000Y-77822639D01*
X59494001Y-77822639D01*
X59494001Y-78312361D01*
X59681409Y-78764806D01*
X60027695Y-79111092D01*
X60480140Y-79298500D01*
X60969862Y-79298500D01*
X61422307Y-79111092D01*
X61768593Y-78764806D01*
X61956001Y-78312361D01*
X61956001Y-77822639D01*
X62034001Y-77822639D01*
X62034001Y-78312361D01*
X62221409Y-78764806D01*
X62567695Y-79111092D01*
X63020140Y-79298500D01*
X63509862Y-79298500D01*
X63962307Y-79111092D01*
X64308593Y-78764806D01*
X64496001Y-78312361D01*
X64496001Y-77822639D01*
X64308593Y-77370194D01*
X63962307Y-77023908D01*
X63509862Y-76836500D01*
X63020140Y-76836500D01*
X62567695Y-77023908D01*
X62221409Y-77370194D01*
X62034001Y-77822639D01*
X61956001Y-77822639D01*
X61768593Y-77370194D01*
X61422307Y-77023908D01*
X60969862Y-76836500D01*
X60480140Y-76836500D01*
X60027695Y-77023908D01*
X59681409Y-77370194D01*
X59494001Y-77822639D01*
X59127000Y-77822639D01*
X59127000Y-75282639D01*
X59494001Y-75282639D01*
X59494001Y-75772361D01*
X59681409Y-76224806D01*
X60027695Y-76571092D01*
X60480140Y-76758500D01*
X60969862Y-76758500D01*
X61422307Y-76571092D01*
X61768593Y-76224806D01*
X61956001Y-75772361D01*
X61956001Y-75282639D01*
X62034001Y-75282639D01*
X62034001Y-75772361D01*
X62221409Y-76224806D01*
X62567695Y-76571092D01*
X63020140Y-76758500D01*
X63509862Y-76758500D01*
X63962307Y-76571092D01*
X64308593Y-76224806D01*
X64496001Y-75772361D01*
X64496001Y-75282639D01*
X64308593Y-74830194D01*
X63962307Y-74483908D01*
X63509862Y-74296500D01*
X63020140Y-74296500D01*
X62567695Y-74483908D01*
X62221409Y-74830194D01*
X62034001Y-75282639D01*
X61956001Y-75282639D01*
X61768593Y-74830194D01*
X61422307Y-74483908D01*
X60969862Y-74296500D01*
X60480140Y-74296500D01*
X60027695Y-74483908D01*
X59681409Y-74830194D01*
X59494001Y-75282639D01*
X59127000Y-75282639D01*
X59127000Y-72742639D01*
X59494001Y-72742639D01*
X59494001Y-73232361D01*
X59681409Y-73684806D01*
X60027695Y-74031092D01*
X60480140Y-74218500D01*
X60969862Y-74218500D01*
X61422307Y-74031092D01*
X61768593Y-73684806D01*
X61956001Y-73232361D01*
X61956001Y-72742639D01*
X62034001Y-72742639D01*
X62034001Y-73232361D01*
X62221409Y-73684806D01*
X62567695Y-74031092D01*
X63020140Y-74218500D01*
X63509862Y-74218500D01*
X63962307Y-74031092D01*
X64308593Y-73684806D01*
X64496001Y-73232361D01*
X64496001Y-72742639D01*
X64308593Y-72290194D01*
X63962307Y-71943908D01*
X63509862Y-71756500D01*
X63020140Y-71756500D01*
X62567695Y-71943908D01*
X62221409Y-72290194D01*
X62034001Y-72742639D01*
X61956001Y-72742639D01*
X61768593Y-72290194D01*
X61422307Y-71943908D01*
X60969862Y-71756500D01*
X60480140Y-71756500D01*
X60027695Y-71943908D01*
X59681409Y-72290194D01*
X59494001Y-72742639D01*
X59127000Y-72742639D01*
X59127000Y-70202639D01*
X59494001Y-70202639D01*
X59494001Y-70692361D01*
X59681409Y-71144806D01*
X60027695Y-71491092D01*
X60480140Y-71678500D01*
X60969862Y-71678500D01*
X61422307Y-71491092D01*
X61768593Y-71144806D01*
X61956001Y-70692361D01*
X61956001Y-70202639D01*
X62034001Y-70202639D01*
X62034001Y-70692361D01*
X62221409Y-71144806D01*
X62567695Y-71491092D01*
X63020140Y-71678500D01*
X63509862Y-71678500D01*
X63962307Y-71491092D01*
X64308593Y-71144806D01*
X64496001Y-70692361D01*
X64496001Y-70202639D01*
X64308593Y-69750194D01*
X63962307Y-69403908D01*
X63762885Y-69321305D01*
X64049081Y-69202759D01*
X64129354Y-68951458D01*
X63265001Y-68087105D01*
X62400648Y-68951458D01*
X62480921Y-69202759D01*
X62786072Y-69313454D01*
X62567695Y-69403908D01*
X62221409Y-69750194D01*
X62034001Y-70202639D01*
X61956001Y-70202639D01*
X61768593Y-69750194D01*
X61422307Y-69403908D01*
X60969862Y-69216500D01*
X60480140Y-69216500D01*
X60027695Y-69403908D01*
X59681409Y-69750194D01*
X59494001Y-70202639D01*
X59127000Y-70202639D01*
X59127000Y-67662639D01*
X59494001Y-67662639D01*
X59494001Y-68152361D01*
X59681409Y-68604806D01*
X60027695Y-68951092D01*
X60480140Y-69138500D01*
X60969862Y-69138500D01*
X61422307Y-68951092D01*
X61768593Y-68604806D01*
X61851196Y-68405384D01*
X61969742Y-68691580D01*
X62221043Y-68771853D01*
X63085396Y-67907500D01*
X63444606Y-67907500D01*
X64308959Y-68771853D01*
X64560260Y-68691580D01*
X64761719Y-68136221D01*
X64735316Y-67546042D01*
X64560260Y-67123420D01*
X64308959Y-67043147D01*
X63444606Y-67907500D01*
X63085396Y-67907500D01*
X62221043Y-67043147D01*
X61969742Y-67123420D01*
X61859047Y-67428571D01*
X61768593Y-67210194D01*
X61422307Y-66863908D01*
X60969862Y-66676500D01*
X60480140Y-66676500D01*
X60027695Y-66863908D01*
X59681409Y-67210194D01*
X59494001Y-67662639D01*
X59127000Y-67662639D01*
X59127000Y-65122639D01*
X59494001Y-65122639D01*
X59494001Y-65612361D01*
X59681409Y-66064806D01*
X60027695Y-66411092D01*
X60480140Y-66598500D01*
X60969862Y-66598500D01*
X61422307Y-66411092D01*
X61768593Y-66064806D01*
X61956001Y-65612361D01*
X61956001Y-65122639D01*
X62034001Y-65122639D01*
X62034001Y-65612361D01*
X62221409Y-66064806D01*
X62567695Y-66411092D01*
X62767117Y-66493695D01*
X62480921Y-66612241D01*
X62400648Y-66863542D01*
X63265001Y-67727895D01*
X64129354Y-66863542D01*
X64049081Y-66612241D01*
X63743930Y-66501546D01*
X63962307Y-66411092D01*
X64308593Y-66064806D01*
X64496001Y-65612361D01*
X64496001Y-65122639D01*
X64308593Y-64670194D01*
X63962307Y-64323908D01*
X63509862Y-64136500D01*
X63020140Y-64136500D01*
X62567695Y-64323908D01*
X62221409Y-64670194D01*
X62034001Y-65122639D01*
X61956001Y-65122639D01*
X61768593Y-64670194D01*
X61422307Y-64323908D01*
X60969862Y-64136500D01*
X60480140Y-64136500D01*
X60027695Y-64323908D01*
X59681409Y-64670194D01*
X59494001Y-65122639D01*
X59127000Y-65122639D01*
X59127000Y-62582639D01*
X59494001Y-62582639D01*
X59494001Y-63072361D01*
X59681409Y-63524806D01*
X60027695Y-63871092D01*
X60480140Y-64058500D01*
X60969862Y-64058500D01*
X61422307Y-63871092D01*
X61768593Y-63524806D01*
X61956001Y-63072361D01*
X61956001Y-62582639D01*
X62034001Y-62582639D01*
X62034001Y-63072361D01*
X62221409Y-63524806D01*
X62567695Y-63871092D01*
X63020140Y-64058500D01*
X63509862Y-64058500D01*
X63962307Y-63871092D01*
X64308593Y-63524806D01*
X64496001Y-63072361D01*
X64496001Y-62582639D01*
X64308593Y-62130194D01*
X63962307Y-61783908D01*
X63509862Y-61596500D01*
X63020140Y-61596500D01*
X62567695Y-61783908D01*
X62221409Y-62130194D01*
X62034001Y-62582639D01*
X61956001Y-62582639D01*
X61768593Y-62130194D01*
X61422307Y-61783908D01*
X60969862Y-61596500D01*
X60480140Y-61596500D01*
X60027695Y-61783908D01*
X59681409Y-62130194D01*
X59494001Y-62582639D01*
X59127000Y-62582639D01*
X59127000Y-60042639D01*
X59494001Y-60042639D01*
X59494001Y-60532361D01*
X59681409Y-60984806D01*
X60027695Y-61331092D01*
X60480140Y-61518500D01*
X60969862Y-61518500D01*
X61422307Y-61331092D01*
X61768593Y-60984806D01*
X61956001Y-60532361D01*
X61956001Y-60042639D01*
X62034001Y-60042639D01*
X62034001Y-60532361D01*
X62221409Y-60984806D01*
X62567695Y-61331092D01*
X63020140Y-61518500D01*
X63509862Y-61518500D01*
X63962307Y-61331092D01*
X64308593Y-60984806D01*
X64496001Y-60532361D01*
X64496001Y-60042639D01*
X64308593Y-59590194D01*
X63962307Y-59243908D01*
X63509862Y-59056500D01*
X63020140Y-59056500D01*
X62567695Y-59243908D01*
X62221409Y-59590194D01*
X62034001Y-60042639D01*
X61956001Y-60042639D01*
X61768593Y-59590194D01*
X61422307Y-59243908D01*
X60969862Y-59056500D01*
X60480140Y-59056500D01*
X60027695Y-59243908D01*
X59681409Y-59590194D01*
X59494001Y-60042639D01*
X59127000Y-60042639D01*
X59127000Y-59016721D01*
X59180852Y-58815741D01*
X59315741Y-58680852D01*
X59516721Y-58627000D01*
X64483279Y-58627000D01*
X64684259Y-58680852D01*
X64684259Y-58680852D01*
G37*
X64684259Y-58680852D02*
X64819148Y-58815741D01*
X64873000Y-59016721D01*
X64873000Y-107967845D01*
X64496001Y-108344844D01*
X64496001Y-108302639D01*
X64308593Y-107850194D01*
X63962307Y-107503908D01*
X63509862Y-107316500D01*
X63020140Y-107316500D01*
X62567695Y-107503908D01*
X62221409Y-107850194D01*
X62034001Y-108302639D01*
X62034001Y-108792361D01*
X62209685Y-109216501D01*
X62072216Y-109216501D01*
X62014999Y-109205120D01*
X61957783Y-109216501D01*
X61957778Y-109216501D01*
X61788305Y-109250211D01*
X61718103Y-109297119D01*
X61712610Y-109300789D01*
X61768593Y-109244806D01*
X61956001Y-108792361D01*
X61956001Y-108302639D01*
X61768593Y-107850194D01*
X61422307Y-107503908D01*
X60969862Y-107316500D01*
X60480140Y-107316500D01*
X60027695Y-107503908D01*
X59681409Y-107850194D01*
X59494001Y-108302639D01*
X59494001Y-108792361D01*
X59681409Y-109244806D01*
X60027695Y-109591092D01*
X60480140Y-109778500D01*
X60969862Y-109778500D01*
X61383801Y-109607042D01*
X61086168Y-109904675D01*
X60969862Y-109856500D01*
X60480140Y-109856500D01*
X60027695Y-110043908D01*
X59681409Y-110390194D01*
X59494001Y-110842639D01*
X59494001Y-111332361D01*
X59681409Y-111784806D01*
X60027695Y-112131092D01*
X60480140Y-112318500D01*
X60969862Y-112318500D01*
X61383802Y-112147041D01*
X61204638Y-112326206D01*
X61204632Y-112326210D01*
X61086167Y-112444675D01*
X60969862Y-112396500D01*
X60480140Y-112396500D01*
X60027695Y-112583908D01*
X59681409Y-112930194D01*
X59494001Y-113382639D01*
X59494001Y-113872361D01*
X59681409Y-114324806D01*
X60027695Y-114671092D01*
X60480140Y-114858500D01*
X60969862Y-114858500D01*
X61422307Y-114671092D01*
X61768593Y-114324806D01*
X61956001Y-113872361D01*
X61956001Y-113382639D01*
X61907826Y-113266334D01*
X62026291Y-113147869D01*
X62026295Y-113147863D01*
X62205460Y-112968699D01*
X62034001Y-113382639D01*
X62034001Y-113872361D01*
X62221409Y-114324806D01*
X62567695Y-114671092D01*
X63020140Y-114858500D01*
X63509862Y-114858500D01*
X63962307Y-114671092D01*
X64308593Y-114324806D01*
X64496001Y-113872361D01*
X64496001Y-113382639D01*
X64308593Y-112930194D01*
X64218476Y-112840077D01*
X64283879Y-112796376D01*
X64316294Y-112747864D01*
X64873000Y-112191158D01*
X64873000Y-150483279D01*
X64819148Y-150684259D01*
X64684259Y-150819148D01*
X64483279Y-150873000D01*
X59516721Y-150873000D01*
X59315741Y-150819148D01*
X59180852Y-150684259D01*
X59127000Y-150483279D01*
X59127000Y-150231458D01*
X59860648Y-150231458D01*
X59940921Y-150482759D01*
X60496280Y-150684218D01*
X61086459Y-150657815D01*
X61509081Y-150482759D01*
X61589354Y-150231458D01*
X62400648Y-150231458D01*
X62480921Y-150482759D01*
X63036280Y-150684218D01*
X63626459Y-150657815D01*
X64049081Y-150482759D01*
X64129354Y-150231458D01*
X63265001Y-149367105D01*
X62400648Y-150231458D01*
X61589354Y-150231458D01*
X60725001Y-149367105D01*
X59860648Y-150231458D01*
X59127000Y-150231458D01*
X59127000Y-148958779D01*
X59228283Y-148958779D01*
X59254686Y-149548958D01*
X59429742Y-149971580D01*
X59681043Y-150051853D01*
X60545396Y-149187500D01*
X60904606Y-149187500D01*
X61768959Y-150051853D01*
X61995001Y-149979648D01*
X62221043Y-150051853D01*
X63085396Y-149187500D01*
X63444606Y-149187500D01*
X64308959Y-150051853D01*
X64560260Y-149971580D01*
X64761719Y-149416221D01*
X64735316Y-148826042D01*
X64560260Y-148403420D01*
X64308959Y-148323147D01*
X63444606Y-149187500D01*
X63085396Y-149187500D01*
X62221043Y-148323147D01*
X61995001Y-148395352D01*
X61768959Y-148323147D01*
X60904606Y-149187500D01*
X60545396Y-149187500D01*
X59681043Y-148323147D01*
X59429742Y-148403420D01*
X59228283Y-148958779D01*
X59127000Y-148958779D01*
X59127000Y-146402639D01*
X59494001Y-146402639D01*
X59494001Y-146892361D01*
X59681409Y-147344806D01*
X60027695Y-147691092D01*
X60227117Y-147773695D01*
X59940921Y-147892241D01*
X59860648Y-148143542D01*
X60725001Y-149007895D01*
X61589354Y-148143542D01*
X61509081Y-147892241D01*
X61203930Y-147781546D01*
X61422307Y-147691092D01*
X61768593Y-147344806D01*
X61956001Y-146892361D01*
X61956001Y-146402639D01*
X62034001Y-146402639D01*
X62034001Y-146892361D01*
X62221409Y-147344806D01*
X62567695Y-147691092D01*
X62767117Y-147773695D01*
X62480921Y-147892241D01*
X62400648Y-148143542D01*
X63265001Y-149007895D01*
X64129354Y-148143542D01*
X64049081Y-147892241D01*
X63743930Y-147781546D01*
X63962307Y-147691092D01*
X64308593Y-147344806D01*
X64496001Y-146892361D01*
X64496001Y-146402639D01*
X64308593Y-145950194D01*
X63962307Y-145603908D01*
X63509862Y-145416500D01*
X63020140Y-145416500D01*
X62567695Y-145603908D01*
X62221409Y-145950194D01*
X62034001Y-146402639D01*
X61956001Y-146402639D01*
X61768593Y-145950194D01*
X61422307Y-145603908D01*
X60969862Y-145416500D01*
X60480140Y-145416500D01*
X60027695Y-145603908D01*
X59681409Y-145950194D01*
X59494001Y-146402639D01*
X59127000Y-146402639D01*
X59127000Y-143862639D01*
X59494001Y-143862639D01*
X59494001Y-144352361D01*
X59681409Y-144804806D01*
X60027695Y-145151092D01*
X60480140Y-145338500D01*
X60969862Y-145338500D01*
X61422307Y-145151092D01*
X61768593Y-144804806D01*
X61956001Y-144352361D01*
X61956001Y-143862639D01*
X62034001Y-143862639D01*
X62034001Y-144352361D01*
X62221409Y-144804806D01*
X62567695Y-145151092D01*
X63020140Y-145338500D01*
X63509862Y-145338500D01*
X63962307Y-145151092D01*
X64308593Y-144804806D01*
X64496001Y-144352361D01*
X64496001Y-143862639D01*
X64308593Y-143410194D01*
X63962307Y-143063908D01*
X63509862Y-142876500D01*
X63020140Y-142876500D01*
X62567695Y-143063908D01*
X62221409Y-143410194D01*
X62034001Y-143862639D01*
X61956001Y-143862639D01*
X61768593Y-143410194D01*
X61422307Y-143063908D01*
X60969862Y-142876500D01*
X60480140Y-142876500D01*
X60027695Y-143063908D01*
X59681409Y-143410194D01*
X59494001Y-143862639D01*
X59127000Y-143862639D01*
X59127000Y-141322639D01*
X59494001Y-141322639D01*
X59494001Y-141812361D01*
X59681409Y-142264806D01*
X60027695Y-142611092D01*
X60480140Y-142798500D01*
X60969862Y-142798500D01*
X61422307Y-142611092D01*
X61768593Y-142264806D01*
X61956001Y-141812361D01*
X61956001Y-141322639D01*
X62034001Y-141322639D01*
X62034001Y-141812361D01*
X62221409Y-142264806D01*
X62567695Y-142611092D01*
X63020140Y-142798500D01*
X63509862Y-142798500D01*
X63962307Y-142611092D01*
X64308593Y-142264806D01*
X64496001Y-141812361D01*
X64496001Y-141322639D01*
X64308593Y-140870194D01*
X63962307Y-140523908D01*
X63509862Y-140336500D01*
X63020140Y-140336500D01*
X62567695Y-140523908D01*
X62221409Y-140870194D01*
X62034001Y-141322639D01*
X61956001Y-141322639D01*
X61768593Y-140870194D01*
X61422307Y-140523908D01*
X60969862Y-140336500D01*
X60480140Y-140336500D01*
X60027695Y-140523908D01*
X59681409Y-140870194D01*
X59494001Y-141322639D01*
X59127000Y-141322639D01*
X59127000Y-138782639D01*
X59494001Y-138782639D01*
X59494001Y-139272361D01*
X59681409Y-139724806D01*
X60027695Y-140071092D01*
X60480140Y-140258500D01*
X60969862Y-140258500D01*
X61422307Y-140071092D01*
X61768593Y-139724806D01*
X61956001Y-139272361D01*
X61956001Y-138782639D01*
X62034001Y-138782639D01*
X62034001Y-139272361D01*
X62221409Y-139724806D01*
X62567695Y-140071092D01*
X63020140Y-140258500D01*
X63509862Y-140258500D01*
X63962307Y-140071092D01*
X64308593Y-139724806D01*
X64496001Y-139272361D01*
X64496001Y-138782639D01*
X64308593Y-138330194D01*
X63962307Y-137983908D01*
X63509862Y-137796500D01*
X63020140Y-137796500D01*
X62567695Y-137983908D01*
X62221409Y-138330194D01*
X62034001Y-138782639D01*
X61956001Y-138782639D01*
X61768593Y-138330194D01*
X61422307Y-137983908D01*
X60969862Y-137796500D01*
X60480140Y-137796500D01*
X60027695Y-137983908D01*
X59681409Y-138330194D01*
X59494001Y-138782639D01*
X59127000Y-138782639D01*
X59127000Y-136242639D01*
X59494001Y-136242639D01*
X59494001Y-136732361D01*
X59681409Y-137184806D01*
X60027695Y-137531092D01*
X60480140Y-137718500D01*
X60969862Y-137718500D01*
X61422307Y-137531092D01*
X61768593Y-137184806D01*
X61956001Y-136732361D01*
X61956001Y-136242639D01*
X62034001Y-136242639D01*
X62034001Y-136732361D01*
X62221409Y-137184806D01*
X62567695Y-137531092D01*
X63020140Y-137718500D01*
X63509862Y-137718500D01*
X63962307Y-137531092D01*
X64308593Y-137184806D01*
X64496001Y-136732361D01*
X64496001Y-136242639D01*
X64308593Y-135790194D01*
X63962307Y-135443908D01*
X63762885Y-135361305D01*
X64049081Y-135242759D01*
X64129354Y-134991458D01*
X63265001Y-134127105D01*
X62400648Y-134991458D01*
X62480921Y-135242759D01*
X62786072Y-135353454D01*
X62567695Y-135443908D01*
X62221409Y-135790194D01*
X62034001Y-136242639D01*
X61956001Y-136242639D01*
X61768593Y-135790194D01*
X61422307Y-135443908D01*
X60969862Y-135256500D01*
X60480140Y-135256500D01*
X60027695Y-135443908D01*
X59681409Y-135790194D01*
X59494001Y-136242639D01*
X59127000Y-136242639D01*
X59127000Y-133702639D01*
X59494001Y-133702639D01*
X59494001Y-134192361D01*
X59681409Y-134644806D01*
X60027695Y-134991092D01*
X60480140Y-135178500D01*
X60969862Y-135178500D01*
X61422307Y-134991092D01*
X61768593Y-134644806D01*
X61851196Y-134445384D01*
X61969742Y-134731580D01*
X62221043Y-134811853D01*
X63085396Y-133947500D01*
X63444606Y-133947500D01*
X64308959Y-134811853D01*
X64560260Y-134731580D01*
X64761719Y-134176221D01*
X64735316Y-133586042D01*
X64560260Y-133163420D01*
X64308959Y-133083147D01*
X63444606Y-133947500D01*
X63085396Y-133947500D01*
X62221043Y-133083147D01*
X61969742Y-133163420D01*
X61859047Y-133468571D01*
X61768593Y-133250194D01*
X61422307Y-132903908D01*
X60969862Y-132716500D01*
X60480140Y-132716500D01*
X60027695Y-132903908D01*
X59681409Y-133250194D01*
X59494001Y-133702639D01*
X59127000Y-133702639D01*
X59127000Y-131162639D01*
X59494001Y-131162639D01*
X59494001Y-131652361D01*
X59681409Y-132104806D01*
X60027695Y-132451092D01*
X60480140Y-132638500D01*
X60969862Y-132638500D01*
X61422307Y-132451092D01*
X61768593Y-132104806D01*
X61956001Y-131652361D01*
X61956001Y-131162639D01*
X62034001Y-131162639D01*
X62034001Y-131652361D01*
X62221409Y-132104806D01*
X62567695Y-132451092D01*
X62767117Y-132533695D01*
X62480921Y-132652241D01*
X62400648Y-132903542D01*
X63265001Y-133767895D01*
X64129354Y-132903542D01*
X64049081Y-132652241D01*
X63743930Y-132541546D01*
X63962307Y-132451092D01*
X64308593Y-132104806D01*
X64496001Y-131652361D01*
X64496001Y-131162639D01*
X64308593Y-130710194D01*
X63962307Y-130363908D01*
X63509862Y-130176500D01*
X63020140Y-130176500D01*
X62567695Y-130363908D01*
X62221409Y-130710194D01*
X62034001Y-131162639D01*
X61956001Y-131162639D01*
X61768593Y-130710194D01*
X61422307Y-130363908D01*
X60969862Y-130176500D01*
X60480140Y-130176500D01*
X60027695Y-130363908D01*
X59681409Y-130710194D01*
X59494001Y-131162639D01*
X59127000Y-131162639D01*
X59127000Y-128622639D01*
X59494001Y-128622639D01*
X59494001Y-129112361D01*
X59681409Y-129564806D01*
X60027695Y-129911092D01*
X60480140Y-130098500D01*
X60969862Y-130098500D01*
X61422307Y-129911092D01*
X61768593Y-129564806D01*
X61956001Y-129112361D01*
X61956001Y-128622639D01*
X62034001Y-128622639D01*
X62034001Y-129112361D01*
X62221409Y-129564806D01*
X62567695Y-129911092D01*
X63020140Y-130098500D01*
X63509862Y-130098500D01*
X63962307Y-129911092D01*
X64308593Y-129564806D01*
X64496001Y-129112361D01*
X64496001Y-128622639D01*
X64308593Y-128170194D01*
X63962307Y-127823908D01*
X63509862Y-127636500D01*
X63020140Y-127636500D01*
X62567695Y-127823908D01*
X62221409Y-128170194D01*
X62034001Y-128622639D01*
X61956001Y-128622639D01*
X61768593Y-128170194D01*
X61422307Y-127823908D01*
X60969862Y-127636500D01*
X60480140Y-127636500D01*
X60027695Y-127823908D01*
X59681409Y-128170194D01*
X59494001Y-128622639D01*
X59127000Y-128622639D01*
X59127000Y-126082639D01*
X59494001Y-126082639D01*
X59494001Y-126572361D01*
X59681409Y-127024806D01*
X60027695Y-127371092D01*
X60480140Y-127558500D01*
X60969862Y-127558500D01*
X61422307Y-127371092D01*
X61768593Y-127024806D01*
X61956001Y-126572361D01*
X61956001Y-126082639D01*
X62034001Y-126082639D01*
X62034001Y-126572361D01*
X62221409Y-127024806D01*
X62567695Y-127371092D01*
X63020140Y-127558500D01*
X63509862Y-127558500D01*
X63962307Y-127371092D01*
X64308593Y-127024806D01*
X64496001Y-126572361D01*
X64496001Y-126082639D01*
X64308593Y-125630194D01*
X63962307Y-125283908D01*
X63509862Y-125096500D01*
X63020140Y-125096500D01*
X62567695Y-125283908D01*
X62221409Y-125630194D01*
X62034001Y-126082639D01*
X61956001Y-126082639D01*
X61768593Y-125630194D01*
X61422307Y-125283908D01*
X60969862Y-125096500D01*
X60480140Y-125096500D01*
X60027695Y-125283908D01*
X59681409Y-125630194D01*
X59494001Y-126082639D01*
X59127000Y-126082639D01*
X59127000Y-123542639D01*
X59494001Y-123542639D01*
X59494001Y-124032361D01*
X59681409Y-124484806D01*
X60027695Y-124831092D01*
X60480140Y-125018500D01*
X60969862Y-125018500D01*
X61422307Y-124831092D01*
X61768593Y-124484806D01*
X61956001Y-124032361D01*
X61956001Y-123542639D01*
X62034001Y-123542639D01*
X62034001Y-124032361D01*
X62221409Y-124484806D01*
X62567695Y-124831092D01*
X63020140Y-125018500D01*
X63509862Y-125018500D01*
X63962307Y-124831092D01*
X64308593Y-124484806D01*
X64496001Y-124032361D01*
X64496001Y-123542639D01*
X64308593Y-123090194D01*
X63962307Y-122743908D01*
X63509862Y-122556500D01*
X63020140Y-122556500D01*
X62567695Y-122743908D01*
X62221409Y-123090194D01*
X62034001Y-123542639D01*
X61956001Y-123542639D01*
X61768593Y-123090194D01*
X61422307Y-122743908D01*
X61222885Y-122661305D01*
X61509081Y-122542759D01*
X61589354Y-122291458D01*
X60725001Y-121427105D01*
X59860648Y-122291458D01*
X59940921Y-122542759D01*
X60246072Y-122653454D01*
X60027695Y-122743908D01*
X59681409Y-123090194D01*
X59494001Y-123542639D01*
X59127000Y-123542639D01*
X59127000Y-121018779D01*
X59228283Y-121018779D01*
X59254686Y-121608958D01*
X59429742Y-122031580D01*
X59681043Y-122111853D01*
X60545396Y-121247500D01*
X60904606Y-121247500D01*
X61768959Y-122111853D01*
X62020260Y-122031580D01*
X62130955Y-121726429D01*
X62221409Y-121944806D01*
X62567695Y-122291092D01*
X63020140Y-122478500D01*
X63509862Y-122478500D01*
X63962307Y-122291092D01*
X64308593Y-121944806D01*
X64496001Y-121492361D01*
X64496001Y-121002639D01*
X64308593Y-120550194D01*
X63962307Y-120203908D01*
X63509862Y-120016500D01*
X63020140Y-120016500D01*
X62567695Y-120203908D01*
X62221409Y-120550194D01*
X62138806Y-120749616D01*
X62020260Y-120463420D01*
X61768959Y-120383147D01*
X60904606Y-121247500D01*
X60545396Y-121247500D01*
X59681043Y-120383147D01*
X59429742Y-120463420D01*
X59228283Y-121018779D01*
X59127000Y-121018779D01*
X59127000Y-118462639D01*
X59494001Y-118462639D01*
X59494001Y-118952361D01*
X59681409Y-119404806D01*
X60027695Y-119751092D01*
X60227117Y-119833695D01*
X59940921Y-119952241D01*
X59860648Y-120203542D01*
X60725001Y-121067895D01*
X61589354Y-120203542D01*
X61509081Y-119952241D01*
X61203930Y-119841546D01*
X61422307Y-119751092D01*
X61768593Y-119404806D01*
X61956001Y-118952361D01*
X61956001Y-118462639D01*
X62034001Y-118462639D01*
X62034001Y-118952361D01*
X62221409Y-119404806D01*
X62567695Y-119751092D01*
X63020140Y-119938500D01*
X63509862Y-119938500D01*
X63962307Y-119751092D01*
X64308593Y-119404806D01*
X64496001Y-118952361D01*
X64496001Y-118462639D01*
X64308593Y-118010194D01*
X63962307Y-117663908D01*
X63509862Y-117476500D01*
X63020140Y-117476500D01*
X62567695Y-117663908D01*
X62221409Y-118010194D01*
X62034001Y-118462639D01*
X61956001Y-118462639D01*
X61768593Y-118010194D01*
X61422307Y-117663908D01*
X60969862Y-117476500D01*
X60480140Y-117476500D01*
X60027695Y-117663908D01*
X59681409Y-118010194D01*
X59494001Y-118462639D01*
X59127000Y-118462639D01*
X59127000Y-115922639D01*
X59494001Y-115922639D01*
X59494001Y-116412361D01*
X59681409Y-116864806D01*
X60027695Y-117211092D01*
X60480140Y-117398500D01*
X60969862Y-117398500D01*
X61422307Y-117211092D01*
X61768593Y-116864806D01*
X61956001Y-116412361D01*
X61956001Y-115922639D01*
X62034001Y-115922639D01*
X62034001Y-116412361D01*
X62221409Y-116864806D01*
X62567695Y-117211092D01*
X63020140Y-117398500D01*
X63509862Y-117398500D01*
X63962307Y-117211092D01*
X64308593Y-116864806D01*
X64496001Y-116412361D01*
X64496001Y-115922639D01*
X64308593Y-115470194D01*
X63962307Y-115123908D01*
X63509862Y-114936500D01*
X63020140Y-114936500D01*
X62567695Y-115123908D01*
X62221409Y-115470194D01*
X62034001Y-115922639D01*
X61956001Y-115922639D01*
X61768593Y-115470194D01*
X61422307Y-115123908D01*
X60969862Y-114936500D01*
X60480140Y-114936500D01*
X60027695Y-115123908D01*
X59681409Y-115470194D01*
X59494001Y-115922639D01*
X59127000Y-115922639D01*
X59127000Y-105762639D01*
X59494001Y-105762639D01*
X59494001Y-106252361D01*
X59681409Y-106704806D01*
X60027695Y-107051092D01*
X60480140Y-107238500D01*
X60969862Y-107238500D01*
X61422307Y-107051092D01*
X61768593Y-106704806D01*
X61956001Y-106252361D01*
X61956001Y-105762639D01*
X62034001Y-105762639D01*
X62034001Y-106252361D01*
X62221409Y-106704806D01*
X62567695Y-107051092D01*
X63020140Y-107238500D01*
X63509862Y-107238500D01*
X63962307Y-107051092D01*
X64308593Y-106704806D01*
X64496001Y-106252361D01*
X64496001Y-105762639D01*
X64308593Y-105310194D01*
X63962307Y-104963908D01*
X63509862Y-104776500D01*
X63020140Y-104776500D01*
X62567695Y-104963908D01*
X62221409Y-105310194D01*
X62034001Y-105762639D01*
X61956001Y-105762639D01*
X61768593Y-105310194D01*
X61422307Y-104963908D01*
X60969862Y-104776500D01*
X60480140Y-104776500D01*
X60027695Y-104963908D01*
X59681409Y-105310194D01*
X59494001Y-105762639D01*
X59127000Y-105762639D01*
X59127000Y-103222639D01*
X59494001Y-103222639D01*
X59494001Y-103712361D01*
X59681409Y-104164806D01*
X60027695Y-104511092D01*
X60480140Y-104698500D01*
X60969862Y-104698500D01*
X61422307Y-104511092D01*
X61768593Y-104164806D01*
X61956001Y-103712361D01*
X61956001Y-103222639D01*
X62034001Y-103222639D01*
X62034001Y-103712361D01*
X62221409Y-104164806D01*
X62567695Y-104511092D01*
X63020140Y-104698500D01*
X63509862Y-104698500D01*
X63962307Y-104511092D01*
X64308593Y-104164806D01*
X64496001Y-103712361D01*
X64496001Y-103222639D01*
X64308593Y-102770194D01*
X63962307Y-102423908D01*
X63509862Y-102236500D01*
X63020140Y-102236500D01*
X62567695Y-102423908D01*
X62221409Y-102770194D01*
X62034001Y-103222639D01*
X61956001Y-103222639D01*
X61768593Y-102770194D01*
X61422307Y-102423908D01*
X60969862Y-102236500D01*
X60480140Y-102236500D01*
X60027695Y-102423908D01*
X59681409Y-102770194D01*
X59494001Y-103222639D01*
X59127000Y-103222639D01*
X59127000Y-100682639D01*
X59494001Y-100682639D01*
X59494001Y-101172361D01*
X59681409Y-101624806D01*
X60027695Y-101971092D01*
X60480140Y-102158500D01*
X60969862Y-102158500D01*
X61422307Y-101971092D01*
X61768593Y-101624806D01*
X61956001Y-101172361D01*
X61956001Y-100682639D01*
X62034001Y-100682639D01*
X62034001Y-101172361D01*
X62221409Y-101624806D01*
X62567695Y-101971092D01*
X63020140Y-102158500D01*
X63509862Y-102158500D01*
X63962307Y-101971092D01*
X64308593Y-101624806D01*
X64496001Y-101172361D01*
X64496001Y-100682639D01*
X64308593Y-100230194D01*
X63962307Y-99883908D01*
X63509862Y-99696500D01*
X63020140Y-99696500D01*
X62567695Y-99883908D01*
X62221409Y-100230194D01*
X62034001Y-100682639D01*
X61956001Y-100682639D01*
X61768593Y-100230194D01*
X61422307Y-99883908D01*
X60969862Y-99696500D01*
X60480140Y-99696500D01*
X60027695Y-99883908D01*
X59681409Y-100230194D01*
X59494001Y-100682639D01*
X59127000Y-100682639D01*
X59127000Y-98142639D01*
X59494001Y-98142639D01*
X59494001Y-98632361D01*
X59681409Y-99084806D01*
X60027695Y-99431092D01*
X60480140Y-99618500D01*
X60969862Y-99618500D01*
X61422307Y-99431092D01*
X61768593Y-99084806D01*
X61956001Y-98632361D01*
X61956001Y-98142639D01*
X62034001Y-98142639D01*
X62034001Y-98632361D01*
X62221409Y-99084806D01*
X62567695Y-99431092D01*
X63020140Y-99618500D01*
X63509862Y-99618500D01*
X63962307Y-99431092D01*
X64308593Y-99084806D01*
X64496001Y-98632361D01*
X64496001Y-98142639D01*
X64308593Y-97690194D01*
X63962307Y-97343908D01*
X63509862Y-97156500D01*
X63020140Y-97156500D01*
X62567695Y-97343908D01*
X62221409Y-97690194D01*
X62034001Y-98142639D01*
X61956001Y-98142639D01*
X61768593Y-97690194D01*
X61422307Y-97343908D01*
X60969862Y-97156500D01*
X60480140Y-97156500D01*
X60027695Y-97343908D01*
X59681409Y-97690194D01*
X59494001Y-98142639D01*
X59127000Y-98142639D01*
X59127000Y-95602639D01*
X59494001Y-95602639D01*
X59494001Y-96092361D01*
X59681409Y-96544806D01*
X60027695Y-96891092D01*
X60480140Y-97078500D01*
X60969862Y-97078500D01*
X61422307Y-96891092D01*
X61768593Y-96544806D01*
X61956001Y-96092361D01*
X61956001Y-95602639D01*
X62034001Y-95602639D01*
X62034001Y-96092361D01*
X62221409Y-96544806D01*
X62567695Y-96891092D01*
X63020140Y-97078500D01*
X63509862Y-97078500D01*
X63962307Y-96891092D01*
X64308593Y-96544806D01*
X64496001Y-96092361D01*
X64496001Y-95602639D01*
X64308593Y-95150194D01*
X63962307Y-94803908D01*
X63509862Y-94616500D01*
X63020140Y-94616500D01*
X62567695Y-94803908D01*
X62221409Y-95150194D01*
X62034001Y-95602639D01*
X61956001Y-95602639D01*
X61768593Y-95150194D01*
X61422307Y-94803908D01*
X60969862Y-94616500D01*
X60480140Y-94616500D01*
X60027695Y-94803908D01*
X59681409Y-95150194D01*
X59494001Y-95602639D01*
X59127000Y-95602639D01*
X59127000Y-93062639D01*
X59494001Y-93062639D01*
X59494001Y-93552361D01*
X59681409Y-94004806D01*
X60027695Y-94351092D01*
X60480140Y-94538500D01*
X60969862Y-94538500D01*
X61422307Y-94351092D01*
X61768593Y-94004806D01*
X61956001Y-93552361D01*
X61956001Y-93062639D01*
X62034001Y-93062639D01*
X62034001Y-93552361D01*
X62221409Y-94004806D01*
X62567695Y-94351092D01*
X63020140Y-94538500D01*
X63509862Y-94538500D01*
X63962307Y-94351092D01*
X64308593Y-94004806D01*
X64496001Y-93552361D01*
X64496001Y-93062639D01*
X64308593Y-92610194D01*
X63962307Y-92263908D01*
X63509862Y-92076500D01*
X63020140Y-92076500D01*
X62567695Y-92263908D01*
X62221409Y-92610194D01*
X62034001Y-93062639D01*
X61956001Y-93062639D01*
X61768593Y-92610194D01*
X61422307Y-92263908D01*
X60969862Y-92076500D01*
X60480140Y-92076500D01*
X60027695Y-92263908D01*
X59681409Y-92610194D01*
X59494001Y-93062639D01*
X59127000Y-93062639D01*
X59127000Y-90522639D01*
X59494001Y-90522639D01*
X59494001Y-91012361D01*
X59681409Y-91464806D01*
X60027695Y-91811092D01*
X60480140Y-91998500D01*
X60969862Y-91998500D01*
X61422307Y-91811092D01*
X61768593Y-91464806D01*
X61956001Y-91012361D01*
X61956001Y-90522639D01*
X62034001Y-90522639D01*
X62034001Y-91012361D01*
X62221409Y-91464806D01*
X62567695Y-91811092D01*
X63020140Y-91998500D01*
X63509862Y-91998500D01*
X63962307Y-91811092D01*
X64308593Y-91464806D01*
X64496001Y-91012361D01*
X64496001Y-90522639D01*
X64308593Y-90070194D01*
X63962307Y-89723908D01*
X63509862Y-89536500D01*
X63020140Y-89536500D01*
X62567695Y-89723908D01*
X62221409Y-90070194D01*
X62034001Y-90522639D01*
X61956001Y-90522639D01*
X61768593Y-90070194D01*
X61422307Y-89723908D01*
X60969862Y-89536500D01*
X60480140Y-89536500D01*
X60027695Y-89723908D01*
X59681409Y-90070194D01*
X59494001Y-90522639D01*
X59127000Y-90522639D01*
X59127000Y-87982639D01*
X59494001Y-87982639D01*
X59494001Y-88472361D01*
X59681409Y-88924806D01*
X60027695Y-89271092D01*
X60480140Y-89458500D01*
X60969862Y-89458500D01*
X61422307Y-89271092D01*
X61768593Y-88924806D01*
X61956001Y-88472361D01*
X61956001Y-87982639D01*
X62034001Y-87982639D01*
X62034001Y-88472361D01*
X62221409Y-88924806D01*
X62567695Y-89271092D01*
X63020140Y-89458500D01*
X63509862Y-89458500D01*
X63962307Y-89271092D01*
X64308593Y-88924806D01*
X64496001Y-88472361D01*
X64496001Y-87982639D01*
X64308593Y-87530194D01*
X63962307Y-87183908D01*
X63762885Y-87101305D01*
X64049081Y-86982759D01*
X64129354Y-86731458D01*
X63265001Y-85867105D01*
X62400648Y-86731458D01*
X62480921Y-86982759D01*
X62786072Y-87093454D01*
X62567695Y-87183908D01*
X62221409Y-87530194D01*
X62034001Y-87982639D01*
X61956001Y-87982639D01*
X61768593Y-87530194D01*
X61422307Y-87183908D01*
X60969862Y-86996500D01*
X60480140Y-86996500D01*
X60027695Y-87183908D01*
X59681409Y-87530194D01*
X59494001Y-87982639D01*
X59127000Y-87982639D01*
X59127000Y-85442639D01*
X59494001Y-85442639D01*
X59494001Y-85932361D01*
X59681409Y-86384806D01*
X60027695Y-86731092D01*
X60480140Y-86918500D01*
X60969862Y-86918500D01*
X61422307Y-86731092D01*
X61768593Y-86384806D01*
X61851196Y-86185384D01*
X61969742Y-86471580D01*
X62221043Y-86551853D01*
X63085396Y-85687500D01*
X63444606Y-85687500D01*
X64308959Y-86551853D01*
X64560260Y-86471580D01*
X64761719Y-85916221D01*
X64735316Y-85326042D01*
X64560260Y-84903420D01*
X64308959Y-84823147D01*
X63444606Y-85687500D01*
X63085396Y-85687500D01*
X62221043Y-84823147D01*
X61969742Y-84903420D01*
X61859047Y-85208571D01*
X61768593Y-84990194D01*
X61422307Y-84643908D01*
X61222885Y-84561305D01*
X61509081Y-84442759D01*
X61589354Y-84191458D01*
X62400648Y-84191458D01*
X62472853Y-84417500D01*
X62400648Y-84643542D01*
X63265001Y-85507895D01*
X64129354Y-84643542D01*
X64057149Y-84417500D01*
X64129354Y-84191458D01*
X63265001Y-83327105D01*
X62400648Y-84191458D01*
X61589354Y-84191458D01*
X60725001Y-83327105D01*
X59860648Y-84191458D01*
X59940921Y-84442759D01*
X60246072Y-84553454D01*
X60027695Y-84643908D01*
X59681409Y-84990194D01*
X59494001Y-85442639D01*
X59127000Y-85442639D01*
X59127000Y-82918779D01*
X59228283Y-82918779D01*
X59254686Y-83508958D01*
X59429742Y-83931580D01*
X59681043Y-84011853D01*
X60545396Y-83147500D01*
X60904606Y-83147500D01*
X61768959Y-84011853D01*
X61995001Y-83939648D01*
X62221043Y-84011853D01*
X63085396Y-83147500D01*
X63444606Y-83147500D01*
X64308959Y-84011853D01*
X64560260Y-83931580D01*
X64761719Y-83376221D01*
X64735316Y-82786042D01*
X64560260Y-82363420D01*
X64308959Y-82283147D01*
X63444606Y-83147500D01*
X63085396Y-83147500D01*
X62221043Y-82283147D01*
X61995001Y-82355352D01*
X61768959Y-82283147D01*
X60904606Y-83147500D01*
X60545396Y-83147500D01*
X59681043Y-82283147D01*
X59429742Y-82363420D01*
X59228283Y-82918779D01*
X59127000Y-82918779D01*
X59127000Y-80362639D01*
X59494001Y-80362639D01*
X59494001Y-80852361D01*
X59681409Y-81304806D01*
X60027695Y-81651092D01*
X60227117Y-81733695D01*
X59940921Y-81852241D01*
X59860648Y-82103542D01*
X60725001Y-82967895D01*
X61589354Y-82103542D01*
X61509081Y-81852241D01*
X61203930Y-81741546D01*
X61422307Y-81651092D01*
X61768593Y-81304806D01*
X61956001Y-80852361D01*
X61956001Y-80362639D01*
X62034001Y-80362639D01*
X62034001Y-80852361D01*
X62221409Y-81304806D01*
X62567695Y-81651092D01*
X62767117Y-81733695D01*
X62480921Y-81852241D01*
X62400648Y-82103542D01*
X63265001Y-82967895D01*
X64129354Y-82103542D01*
X64049081Y-81852241D01*
X63743930Y-81741546D01*
X63962307Y-81651092D01*
X64308593Y-81304806D01*
X64496001Y-80852361D01*
X64496001Y-80362639D01*
X64308593Y-79910194D01*
X63962307Y-79563908D01*
X63509862Y-79376500D01*
X63020140Y-79376500D01*
X62567695Y-79563908D01*
X62221409Y-79910194D01*
X62034001Y-80362639D01*
X61956001Y-80362639D01*
X61768593Y-79910194D01*
X61422307Y-79563908D01*
X60969862Y-79376500D01*
X60480140Y-79376500D01*
X60027695Y-79563908D01*
X59681409Y-79910194D01*
X59494001Y-80362639D01*
X59127000Y-80362639D01*
X59127000Y-77822639D01*
X59494001Y-77822639D01*
X59494001Y-78312361D01*
X59681409Y-78764806D01*
X60027695Y-79111092D01*
X60480140Y-79298500D01*
X60969862Y-79298500D01*
X61422307Y-79111092D01*
X61768593Y-78764806D01*
X61956001Y-78312361D01*
X61956001Y-77822639D01*
X62034001Y-77822639D01*
X62034001Y-78312361D01*
X62221409Y-78764806D01*
X62567695Y-79111092D01*
X63020140Y-79298500D01*
X63509862Y-79298500D01*
X63962307Y-79111092D01*
X64308593Y-78764806D01*
X64496001Y-78312361D01*
X64496001Y-77822639D01*
X64308593Y-77370194D01*
X63962307Y-77023908D01*
X63509862Y-76836500D01*
X63020140Y-76836500D01*
X62567695Y-77023908D01*
X62221409Y-77370194D01*
X62034001Y-77822639D01*
X61956001Y-77822639D01*
X61768593Y-77370194D01*
X61422307Y-77023908D01*
X60969862Y-76836500D01*
X60480140Y-76836500D01*
X60027695Y-77023908D01*
X59681409Y-77370194D01*
X59494001Y-77822639D01*
X59127000Y-77822639D01*
X59127000Y-75282639D01*
X59494001Y-75282639D01*
X59494001Y-75772361D01*
X59681409Y-76224806D01*
X60027695Y-76571092D01*
X60480140Y-76758500D01*
X60969862Y-76758500D01*
X61422307Y-76571092D01*
X61768593Y-76224806D01*
X61956001Y-75772361D01*
X61956001Y-75282639D01*
X62034001Y-75282639D01*
X62034001Y-75772361D01*
X62221409Y-76224806D01*
X62567695Y-76571092D01*
X63020140Y-76758500D01*
X63509862Y-76758500D01*
X63962307Y-76571092D01*
X64308593Y-76224806D01*
X64496001Y-75772361D01*
X64496001Y-75282639D01*
X64308593Y-74830194D01*
X63962307Y-74483908D01*
X63509862Y-74296500D01*
X63020140Y-74296500D01*
X62567695Y-74483908D01*
X62221409Y-74830194D01*
X62034001Y-75282639D01*
X61956001Y-75282639D01*
X61768593Y-74830194D01*
X61422307Y-74483908D01*
X60969862Y-74296500D01*
X60480140Y-74296500D01*
X60027695Y-74483908D01*
X59681409Y-74830194D01*
X59494001Y-75282639D01*
X59127000Y-75282639D01*
X59127000Y-72742639D01*
X59494001Y-72742639D01*
X59494001Y-73232361D01*
X59681409Y-73684806D01*
X60027695Y-74031092D01*
X60480140Y-74218500D01*
X60969862Y-74218500D01*
X61422307Y-74031092D01*
X61768593Y-73684806D01*
X61956001Y-73232361D01*
X61956001Y-72742639D01*
X62034001Y-72742639D01*
X62034001Y-73232361D01*
X62221409Y-73684806D01*
X62567695Y-74031092D01*
X63020140Y-74218500D01*
X63509862Y-74218500D01*
X63962307Y-74031092D01*
X64308593Y-73684806D01*
X64496001Y-73232361D01*
X64496001Y-72742639D01*
X64308593Y-72290194D01*
X63962307Y-71943908D01*
X63509862Y-71756500D01*
X63020140Y-71756500D01*
X62567695Y-71943908D01*
X62221409Y-72290194D01*
X62034001Y-72742639D01*
X61956001Y-72742639D01*
X61768593Y-72290194D01*
X61422307Y-71943908D01*
X60969862Y-71756500D01*
X60480140Y-71756500D01*
X60027695Y-71943908D01*
X59681409Y-72290194D01*
X59494001Y-72742639D01*
X59127000Y-72742639D01*
X59127000Y-70202639D01*
X59494001Y-70202639D01*
X59494001Y-70692361D01*
X59681409Y-71144806D01*
X60027695Y-71491092D01*
X60480140Y-71678500D01*
X60969862Y-71678500D01*
X61422307Y-71491092D01*
X61768593Y-71144806D01*
X61956001Y-70692361D01*
X61956001Y-70202639D01*
X62034001Y-70202639D01*
X62034001Y-70692361D01*
X62221409Y-71144806D01*
X62567695Y-71491092D01*
X63020140Y-71678500D01*
X63509862Y-71678500D01*
X63962307Y-71491092D01*
X64308593Y-71144806D01*
X64496001Y-70692361D01*
X64496001Y-70202639D01*
X64308593Y-69750194D01*
X63962307Y-69403908D01*
X63762885Y-69321305D01*
X64049081Y-69202759D01*
X64129354Y-68951458D01*
X63265001Y-68087105D01*
X62400648Y-68951458D01*
X62480921Y-69202759D01*
X62786072Y-69313454D01*
X62567695Y-69403908D01*
X62221409Y-69750194D01*
X62034001Y-70202639D01*
X61956001Y-70202639D01*
X61768593Y-69750194D01*
X61422307Y-69403908D01*
X60969862Y-69216500D01*
X60480140Y-69216500D01*
X60027695Y-69403908D01*
X59681409Y-69750194D01*
X59494001Y-70202639D01*
X59127000Y-70202639D01*
X59127000Y-67662639D01*
X59494001Y-67662639D01*
X59494001Y-68152361D01*
X59681409Y-68604806D01*
X60027695Y-68951092D01*
X60480140Y-69138500D01*
X60969862Y-69138500D01*
X61422307Y-68951092D01*
X61768593Y-68604806D01*
X61851196Y-68405384D01*
X61969742Y-68691580D01*
X62221043Y-68771853D01*
X63085396Y-67907500D01*
X63444606Y-67907500D01*
X64308959Y-68771853D01*
X64560260Y-68691580D01*
X64761719Y-68136221D01*
X64735316Y-67546042D01*
X64560260Y-67123420D01*
X64308959Y-67043147D01*
X63444606Y-67907500D01*
X63085396Y-67907500D01*
X62221043Y-67043147D01*
X61969742Y-67123420D01*
X61859047Y-67428571D01*
X61768593Y-67210194D01*
X61422307Y-66863908D01*
X60969862Y-66676500D01*
X60480140Y-66676500D01*
X60027695Y-66863908D01*
X59681409Y-67210194D01*
X59494001Y-67662639D01*
X59127000Y-67662639D01*
X59127000Y-65122639D01*
X59494001Y-65122639D01*
X59494001Y-65612361D01*
X59681409Y-66064806D01*
X60027695Y-66411092D01*
X60480140Y-66598500D01*
X60969862Y-66598500D01*
X61422307Y-66411092D01*
X61768593Y-66064806D01*
X61956001Y-65612361D01*
X61956001Y-65122639D01*
X62034001Y-65122639D01*
X62034001Y-65612361D01*
X62221409Y-66064806D01*
X62567695Y-66411092D01*
X62767117Y-66493695D01*
X62480921Y-66612241D01*
X62400648Y-66863542D01*
X63265001Y-67727895D01*
X64129354Y-66863542D01*
X64049081Y-66612241D01*
X63743930Y-66501546D01*
X63962307Y-66411092D01*
X64308593Y-66064806D01*
X64496001Y-65612361D01*
X64496001Y-65122639D01*
X64308593Y-64670194D01*
X63962307Y-64323908D01*
X63509862Y-64136500D01*
X63020140Y-64136500D01*
X62567695Y-64323908D01*
X62221409Y-64670194D01*
X62034001Y-65122639D01*
X61956001Y-65122639D01*
X61768593Y-64670194D01*
X61422307Y-64323908D01*
X60969862Y-64136500D01*
X60480140Y-64136500D01*
X60027695Y-64323908D01*
X59681409Y-64670194D01*
X59494001Y-65122639D01*
X59127000Y-65122639D01*
X59127000Y-62582639D01*
X59494001Y-62582639D01*
X59494001Y-63072361D01*
X59681409Y-63524806D01*
X60027695Y-63871092D01*
X60480140Y-64058500D01*
X60969862Y-64058500D01*
X61422307Y-63871092D01*
X61768593Y-63524806D01*
X61956001Y-63072361D01*
X61956001Y-62582639D01*
X62034001Y-62582639D01*
X62034001Y-63072361D01*
X62221409Y-63524806D01*
X62567695Y-63871092D01*
X63020140Y-64058500D01*
X63509862Y-64058500D01*
X63962307Y-63871092D01*
X64308593Y-63524806D01*
X64496001Y-63072361D01*
X64496001Y-62582639D01*
X64308593Y-62130194D01*
X63962307Y-61783908D01*
X63509862Y-61596500D01*
X63020140Y-61596500D01*
X62567695Y-61783908D01*
X62221409Y-62130194D01*
X62034001Y-62582639D01*
X61956001Y-62582639D01*
X61768593Y-62130194D01*
X61422307Y-61783908D01*
X60969862Y-61596500D01*
X60480140Y-61596500D01*
X60027695Y-61783908D01*
X59681409Y-62130194D01*
X59494001Y-62582639D01*
X59127000Y-62582639D01*
X59127000Y-60042639D01*
X59494001Y-60042639D01*
X59494001Y-60532361D01*
X59681409Y-60984806D01*
X60027695Y-61331092D01*
X60480140Y-61518500D01*
X60969862Y-61518500D01*
X61422307Y-61331092D01*
X61768593Y-60984806D01*
X61956001Y-60532361D01*
X61956001Y-60042639D01*
X62034001Y-60042639D01*
X62034001Y-60532361D01*
X62221409Y-60984806D01*
X62567695Y-61331092D01*
X63020140Y-61518500D01*
X63509862Y-61518500D01*
X63962307Y-61331092D01*
X64308593Y-60984806D01*
X64496001Y-60532361D01*
X64496001Y-60042639D01*
X64308593Y-59590194D01*
X63962307Y-59243908D01*
X63509862Y-59056500D01*
X63020140Y-59056500D01*
X62567695Y-59243908D01*
X62221409Y-59590194D01*
X62034001Y-60042639D01*
X61956001Y-60042639D01*
X61768593Y-59590194D01*
X61422307Y-59243908D01*
X60969862Y-59056500D01*
X60480140Y-59056500D01*
X60027695Y-59243908D01*
X59681409Y-59590194D01*
X59494001Y-60042639D01*
X59127000Y-60042639D01*
X59127000Y-59016721D01*
X59180852Y-58815741D01*
X59315741Y-58680852D01*
X59516721Y-58627000D01*
X64483279Y-58627000D01*
X64684259Y-58680852D01*
G36*
X110434259Y-52180852D02*
X110569148Y-52315741D01*
X110623000Y-52516721D01*
X110623000Y-59983279D01*
X110569148Y-60184259D01*
X110434259Y-60319148D01*
X110233279Y-60373000D01*
X92766721Y-60373000D01*
X92565741Y-60319148D01*
X92430852Y-60184259D01*
X92377000Y-59983279D01*
X92377000Y-59190031D01*
X96058698Y-59190031D01*
X96076416Y-59282500D01*
X96359467Y-59800491D01*
X96819198Y-60170734D01*
X97385620Y-60336862D01*
X97623000Y-60180582D01*
X97623000Y-58957000D01*
X97877000Y-58957000D01*
X97877000Y-60180582D01*
X98114380Y-60336862D01*
X98680802Y-60170734D01*
X99140533Y-59800491D01*
X99423584Y-59282500D01*
X99441302Y-59190031D01*
X99320246Y-58957000D01*
X97877000Y-58957000D01*
X97623000Y-58957000D01*
X96179754Y-58957000D01*
X96058698Y-59190031D01*
X92377000Y-59190031D01*
X92377000Y-58469969D01*
X96058698Y-58469969D01*
X96179754Y-58703000D01*
X97623000Y-58703000D01*
X97623000Y-58683000D01*
X97877000Y-58683000D01*
X97877000Y-58703000D01*
X99320246Y-58703000D01*
X99441302Y-58469969D01*
X99423584Y-58377500D01*
X99140533Y-57859509D01*
X98680802Y-57489266D01*
X98511310Y-57439555D01*
X98881920Y-57191920D01*
X99158416Y-56778116D01*
X99255508Y-56290000D01*
X99158416Y-55801884D01*
X98881920Y-55388080D01*
X98468116Y-55111584D01*
X98103210Y-55039000D01*
X97396790Y-55039000D01*
X97031884Y-55111584D01*
X96618080Y-55388080D01*
X96341584Y-55801884D01*
X96244492Y-56290000D01*
X96341584Y-56778116D01*
X96618080Y-57191920D01*
X96988690Y-57439555D01*
X96819198Y-57489266D01*
X96359467Y-57859509D01*
X96076416Y-58377500D01*
X96058698Y-58469969D01*
X92377000Y-58469969D01*
X92377000Y-52880000D01*
X96261536Y-52880000D01*
X96261536Y-54620000D01*
X96291106Y-54768659D01*
X96375314Y-54894686D01*
X96501341Y-54978894D01*
X96650000Y-55008464D01*
X98850000Y-55008464D01*
X98998659Y-54978894D01*
X99124686Y-54894686D01*
X99208894Y-54768659D01*
X99238464Y-54620000D01*
X99238464Y-52880000D01*
X99208894Y-52731341D01*
X99124686Y-52605314D01*
X98998659Y-52521106D01*
X98850000Y-52491536D01*
X96650000Y-52491536D01*
X96501341Y-52521106D01*
X96375314Y-52605314D01*
X96291106Y-52731341D01*
X96261536Y-52880000D01*
X92377000Y-52880000D01*
X92377000Y-52516721D01*
X92430852Y-52315741D01*
X92565741Y-52180852D01*
X92766721Y-52127000D01*
X110233279Y-52127000D01*
X110434259Y-52180852D01*
X110434259Y-52180852D01*
G37*
X110434259Y-52180852D02*
X110569148Y-52315741D01*
X110623000Y-52516721D01*
X110623000Y-59983279D01*
X110569148Y-60184259D01*
X110434259Y-60319148D01*
X110233279Y-60373000D01*
X92766721Y-60373000D01*
X92565741Y-60319148D01*
X92430852Y-60184259D01*
X92377000Y-59983279D01*
X92377000Y-59190031D01*
X96058698Y-59190031D01*
X96076416Y-59282500D01*
X96359467Y-59800491D01*
X96819198Y-60170734D01*
X97385620Y-60336862D01*
X97623000Y-60180582D01*
X97623000Y-58957000D01*
X97877000Y-58957000D01*
X97877000Y-60180582D01*
X98114380Y-60336862D01*
X98680802Y-60170734D01*
X99140533Y-59800491D01*
X99423584Y-59282500D01*
X99441302Y-59190031D01*
X99320246Y-58957000D01*
X97877000Y-58957000D01*
X97623000Y-58957000D01*
X96179754Y-58957000D01*
X96058698Y-59190031D01*
X92377000Y-59190031D01*
X92377000Y-58469969D01*
X96058698Y-58469969D01*
X96179754Y-58703000D01*
X97623000Y-58703000D01*
X97623000Y-58683000D01*
X97877000Y-58683000D01*
X97877000Y-58703000D01*
X99320246Y-58703000D01*
X99441302Y-58469969D01*
X99423584Y-58377500D01*
X99140533Y-57859509D01*
X98680802Y-57489266D01*
X98511310Y-57439555D01*
X98881920Y-57191920D01*
X99158416Y-56778116D01*
X99255508Y-56290000D01*
X99158416Y-55801884D01*
X98881920Y-55388080D01*
X98468116Y-55111584D01*
X98103210Y-55039000D01*
X97396790Y-55039000D01*
X97031884Y-55111584D01*
X96618080Y-55388080D01*
X96341584Y-55801884D01*
X96244492Y-56290000D01*
X96341584Y-56778116D01*
X96618080Y-57191920D01*
X96988690Y-57439555D01*
X96819198Y-57489266D01*
X96359467Y-57859509D01*
X96076416Y-58377500D01*
X96058698Y-58469969D01*
X92377000Y-58469969D01*
X92377000Y-52880000D01*
X96261536Y-52880000D01*
X96261536Y-54620000D01*
X96291106Y-54768659D01*
X96375314Y-54894686D01*
X96501341Y-54978894D01*
X96650000Y-55008464D01*
X98850000Y-55008464D01*
X98998659Y-54978894D01*
X99124686Y-54894686D01*
X99208894Y-54768659D01*
X99238464Y-54620000D01*
X99238464Y-52880000D01*
X99208894Y-52731341D01*
X99124686Y-52605314D01*
X98998659Y-52521106D01*
X98850000Y-52491536D01*
X96650000Y-52491536D01*
X96501341Y-52521106D01*
X96375314Y-52605314D01*
X96291106Y-52731341D01*
X96261536Y-52880000D01*
X92377000Y-52880000D01*
X92377000Y-52516721D01*
X92430852Y-52315741D01*
X92565741Y-52180852D01*
X92766721Y-52127000D01*
X110233279Y-52127000D01*
X110434259Y-52180852D01*
G36*
X110434259Y-66680852D02*
X110569148Y-66815741D01*
X110623000Y-67016721D01*
X110623000Y-74483279D01*
X110569148Y-74684259D01*
X110434259Y-74819148D01*
X110233279Y-74873000D01*
X92766721Y-74873000D01*
X92565741Y-74819148D01*
X92430852Y-74684259D01*
X92377000Y-74483279D01*
X92377000Y-73650031D01*
X96058698Y-73650031D01*
X96076416Y-73742500D01*
X96359467Y-74260491D01*
X96819198Y-74630734D01*
X97385620Y-74796862D01*
X97623000Y-74640582D01*
X97623000Y-73417000D01*
X97877000Y-73417000D01*
X97877000Y-74640582D01*
X98114380Y-74796862D01*
X98680802Y-74630734D01*
X99140533Y-74260491D01*
X99423584Y-73742500D01*
X99441302Y-73650031D01*
X99320246Y-73417000D01*
X97877000Y-73417000D01*
X97623000Y-73417000D01*
X96179754Y-73417000D01*
X96058698Y-73650031D01*
X92377000Y-73650031D01*
X92377000Y-72929969D01*
X96058698Y-72929969D01*
X96179754Y-73163000D01*
X97623000Y-73163000D01*
X97623000Y-73143000D01*
X97877000Y-73143000D01*
X97877000Y-73163000D01*
X99320246Y-73163000D01*
X99441302Y-72929969D01*
X99423584Y-72837500D01*
X99140533Y-72319509D01*
X98680802Y-71949266D01*
X98511310Y-71899555D01*
X98881920Y-71651920D01*
X99158416Y-71238116D01*
X99255508Y-70750000D01*
X99158416Y-70261884D01*
X98881920Y-69848080D01*
X98468116Y-69571584D01*
X98103210Y-69499000D01*
X97396790Y-69499000D01*
X97031884Y-69571584D01*
X96618080Y-69848080D01*
X96341584Y-70261884D01*
X96244492Y-70750000D01*
X96341584Y-71238116D01*
X96618080Y-71651920D01*
X96988690Y-71899555D01*
X96819198Y-71949266D01*
X96359467Y-72319509D01*
X96076416Y-72837500D01*
X96058698Y-72929969D01*
X92377000Y-72929969D01*
X92377000Y-67340000D01*
X96261536Y-67340000D01*
X96261536Y-69080000D01*
X96291106Y-69228659D01*
X96375314Y-69354686D01*
X96501341Y-69438894D01*
X96650000Y-69468464D01*
X98850000Y-69468464D01*
X98998659Y-69438894D01*
X99124686Y-69354686D01*
X99208894Y-69228659D01*
X99238464Y-69080000D01*
X99238464Y-67340000D01*
X99208894Y-67191341D01*
X99124686Y-67065314D01*
X98998659Y-66981106D01*
X98850000Y-66951536D01*
X96650000Y-66951536D01*
X96501341Y-66981106D01*
X96375314Y-67065314D01*
X96291106Y-67191341D01*
X96261536Y-67340000D01*
X92377000Y-67340000D01*
X92377000Y-67016721D01*
X92430852Y-66815741D01*
X92565741Y-66680852D01*
X92766721Y-66627000D01*
X110233279Y-66627000D01*
X110434259Y-66680852D01*
X110434259Y-66680852D01*
G37*
X110434259Y-66680852D02*
X110569148Y-66815741D01*
X110623000Y-67016721D01*
X110623000Y-74483279D01*
X110569148Y-74684259D01*
X110434259Y-74819148D01*
X110233279Y-74873000D01*
X92766721Y-74873000D01*
X92565741Y-74819148D01*
X92430852Y-74684259D01*
X92377000Y-74483279D01*
X92377000Y-73650031D01*
X96058698Y-73650031D01*
X96076416Y-73742500D01*
X96359467Y-74260491D01*
X96819198Y-74630734D01*
X97385620Y-74796862D01*
X97623000Y-74640582D01*
X97623000Y-73417000D01*
X97877000Y-73417000D01*
X97877000Y-74640582D01*
X98114380Y-74796862D01*
X98680802Y-74630734D01*
X99140533Y-74260491D01*
X99423584Y-73742500D01*
X99441302Y-73650031D01*
X99320246Y-73417000D01*
X97877000Y-73417000D01*
X97623000Y-73417000D01*
X96179754Y-73417000D01*
X96058698Y-73650031D01*
X92377000Y-73650031D01*
X92377000Y-72929969D01*
X96058698Y-72929969D01*
X96179754Y-73163000D01*
X97623000Y-73163000D01*
X97623000Y-73143000D01*
X97877000Y-73143000D01*
X97877000Y-73163000D01*
X99320246Y-73163000D01*
X99441302Y-72929969D01*
X99423584Y-72837500D01*
X99140533Y-72319509D01*
X98680802Y-71949266D01*
X98511310Y-71899555D01*
X98881920Y-71651920D01*
X99158416Y-71238116D01*
X99255508Y-70750000D01*
X99158416Y-70261884D01*
X98881920Y-69848080D01*
X98468116Y-69571584D01*
X98103210Y-69499000D01*
X97396790Y-69499000D01*
X97031884Y-69571584D01*
X96618080Y-69848080D01*
X96341584Y-70261884D01*
X96244492Y-70750000D01*
X96341584Y-71238116D01*
X96618080Y-71651920D01*
X96988690Y-71899555D01*
X96819198Y-71949266D01*
X96359467Y-72319509D01*
X96076416Y-72837500D01*
X96058698Y-72929969D01*
X92377000Y-72929969D01*
X92377000Y-67340000D01*
X96261536Y-67340000D01*
X96261536Y-69080000D01*
X96291106Y-69228659D01*
X96375314Y-69354686D01*
X96501341Y-69438894D01*
X96650000Y-69468464D01*
X98850000Y-69468464D01*
X98998659Y-69438894D01*
X99124686Y-69354686D01*
X99208894Y-69228659D01*
X99238464Y-69080000D01*
X99238464Y-67340000D01*
X99208894Y-67191341D01*
X99124686Y-67065314D01*
X98998659Y-66981106D01*
X98850000Y-66951536D01*
X96650000Y-66951536D01*
X96501341Y-66981106D01*
X96375314Y-67065314D01*
X96291106Y-67191341D01*
X96261536Y-67340000D01*
X92377000Y-67340000D01*
X92377000Y-67016721D01*
X92430852Y-66815741D01*
X92565741Y-66680852D01*
X92766721Y-66627000D01*
X110233279Y-66627000D01*
X110434259Y-66680852D01*
M02*
