M48
;DRILL file {KiCad 5.0.0-rc2-dev-unknown-54f14b0~63~ubuntu16.04.1} date Mon Apr  2 00:46:48 2018
;FORMAT={3:3/ absolute / metric / suppress leading zeros}
FMAT,2
METRIC,TZ
T1C0.400
T2C0.600
T3C0.650
T4C0.800
T5C1.000
T6C1.200
T7C1.300
%
G90
G05
M71
T1
X63500Y-53500
X64000Y-49750
X64000Y-52000
X64250Y-28750
X64250Y-30500
X64250Y-32250
X64250Y-34000
X64250Y-35750
X64250Y-37750
X64250Y-39750
X64250Y-41750
X64250Y-43500
X64500Y-46500
X64500Y-47500
X65000Y-45000
X65750Y-39500
X66000Y-49250
X66500Y-45000
X67000Y-28750
X67000Y-30500
X67000Y-32250
X67000Y-34000
X67000Y-61750
X67750Y-39500
X67750Y-59250
X68000Y-69750
X68000Y-71250
X68750Y-34250
X68750Y-35750
X69250Y-49250
X69750Y-50500
X69750Y-52500
X70000Y-39500
X70250Y-78000
X71500Y-28750
X71500Y-30250
X71500Y-31750
X71500Y-33500
X72000Y-39500
X72250Y-54250
X72500Y-35500
X72500Y-48750
X73250Y-39500
X74000Y-48750
X74250Y-39500
X74250Y-109750
X74750Y-34250
X74750Y-35500
X75000Y-43750
X75250Y-80750
X75500Y-28750
X75500Y-30250
X75500Y-31750
X75500Y-33250
X75500Y-39500
X75750Y-48750
X76000Y-37000
X76000Y-38000
X76000Y-41750
X76250Y-46500
X77500Y-41750
X77750Y-46500
X78000Y-54500
X79000Y-41750
X79250Y-46500
X80250Y-29000
X80250Y-30750
X80250Y-32500
X80250Y-34250
X80250Y-36250
X80250Y-38250
X80250Y-40000
X80500Y-41750
X80500Y-46500
X80500Y-52000
X83500Y-41500
X84500Y-41500
X85000Y-46250
X86250Y-86250
X86750Y-46000
X87000Y-107000
X88000Y-46000
X88000Y-98500
X88750Y-41500
X90750Y-42500
X91000Y-65000
X92000Y-42500
X92000Y-45500
X94250Y-52500
X94250Y-55000
X94250Y-57500
X94250Y-60000
X94500Y-67000
X94500Y-69500
X94500Y-72000
X94500Y-74500
X96000Y-45550
X97250Y-43000
X98000Y-98500
X99500Y-80750
X100500Y-109750
X102500Y-52750
X102500Y-57750
X102500Y-59750
X102500Y-67250
X102500Y-72250
X102500Y-74250
X105000Y-52750
X105000Y-59750
X105000Y-67250
X105000Y-74250
X107250Y-67250
X107500Y-52750
X107500Y-57750
X107500Y-59750
X107500Y-72250
X107500Y-74250
X110000Y-52750
X110000Y-54750
X110000Y-59750
X110000Y-67250
X110000Y-69250
X110000Y-74250
X111000Y-109500
X111250Y-81750
X111500Y-72250
X112000Y-57750
X118000Y-78000
X118250Y-73500
T4
X70500Y-54250
X80500Y-54250
T5
X60725Y-32347
X60725Y-34887
X60725Y-60288
X60725Y-62828
X60725Y-65368
X60725Y-67908
X60725Y-70447
X60725Y-72988
X60725Y-75528
X60725Y-78068
X60725Y-80608
X60725Y-83148
X60725Y-85688
X60725Y-88227
X60725Y-90768
X60725Y-93308
X60725Y-95848
X60725Y-98387
X60725Y-100928
X60725Y-103468
X60725Y-106007
X60725Y-108548
X60725Y-111088
X60725Y-113628
X60725Y-116168
X60725Y-118708
X60725Y-121248
X60725Y-123788
X60725Y-126328
X60725Y-128868
X60725Y-131408
X60725Y-133948
X60725Y-136487
X60725Y-139028
X60725Y-141568
X60725Y-144107
X60725Y-146648
X60725Y-149188
X63265Y-60288
X63265Y-62828
X63265Y-65368
X63265Y-67908
X63265Y-70447
X63265Y-72988
X63265Y-75528
X63265Y-78068
X63265Y-80608
X63265Y-83148
X63265Y-85688
X63265Y-88227
X63265Y-90768
X63265Y-93308
X63265Y-95848
X63265Y-98387
X63265Y-100928
X63265Y-103468
X63265Y-106007
X63265Y-108548
X63265Y-111088
X63265Y-113628
X63265Y-116168
X63265Y-118708
X63265Y-121248
X63265Y-123788
X63265Y-126328
X63265Y-128868
X63265Y-131408
X63265Y-133948
X63265Y-136487
X63265Y-139028
X63265Y-141568
X63265Y-144107
X63265Y-146648
X63265Y-149188
X121685Y-60288
X121685Y-62828
X121685Y-65368
X121685Y-67908
X121685Y-70447
X121685Y-72988
X121685Y-75528
X121685Y-78068
X121685Y-80608
X121685Y-83148
X121685Y-85688
X121685Y-88227
X121685Y-90768
X121685Y-93308
X121685Y-95848
X121685Y-98387
X121685Y-100928
X121685Y-103468
X121685Y-106007
X121685Y-108548
X121685Y-111088
X121685Y-113628
X121685Y-116168
X121685Y-118708
X121685Y-121248
X121685Y-123788
X121685Y-126328
X121685Y-128868
X121685Y-131408
X121685Y-133948
X121685Y-136487
X121685Y-139028
X121685Y-141568
X121685Y-144107
X121685Y-146648
X121685Y-149188
X124225Y-32347
X124225Y-34887
X124225Y-60288
X124225Y-62828
X124225Y-65368
X124225Y-67908
X124225Y-70447
X124225Y-72988
X124225Y-75528
X124225Y-78068
X124225Y-80608
X124225Y-83148
X124225Y-85688
X124225Y-88227
X124225Y-90768
X124225Y-93308
X124225Y-95848
X124225Y-98387
X124225Y-100928
X124225Y-103468
X124225Y-106007
X124225Y-108548
X124225Y-111088
X124225Y-113628
X124225Y-116168
X124225Y-118708
X124225Y-121248
X124225Y-123788
X124225Y-126328
X124225Y-128868
X124225Y-131408
X124225Y-133948
X124225Y-136487
X124225Y-139028
X124225Y-141568
X124225Y-144107
X124225Y-146648
X124225Y-149188
T6
X117250Y-42500
X119790Y-42500
X122330Y-42500
X86250Y-32250
X88790Y-32250
X97750Y-68210
X97750Y-70750
X97750Y-73290
X98750Y-144500
X101290Y-144500
X103830Y-144500
X114500Y-144500
X117040Y-144500
X67750Y-144500
X70290Y-144500
X81750Y-144500
X84290Y-144500
X86830Y-144500
X97750Y-53750
X97750Y-56290
X97750Y-58830
X80000Y-70500
X80000Y-73040
X100960Y-42500
X103500Y-42500
X106040Y-42500
T7
X99500Y-119300
X99500Y-131500
X105500Y-117300
X111500Y-119300
X111500Y-131500
X74039Y-90131
X74039Y-102331
X80039Y-88131
X86039Y-90131
X86039Y-102331
X73913Y-119339
X73913Y-131539
X79913Y-117339
X85913Y-119339
X85913Y-131539
X99586Y-90010
X99586Y-102210
X105586Y-88010
X111586Y-90010
X111586Y-102210
T2
X102325Y-30100G85X102325Y-29400
G05
X110675Y-30100G85X110675Y-29400
G05
T3
X104275Y-32850G85X104275Y-32650
G05
X108725Y-32850G85X108725Y-32650
G05
T0
M30
